SplineFontDB: 3.0
FontName: LoveYaLikeASister-Regular
FullName: Love Ya Like A Sister Regular
FamilyName: Love Ya Like A Sister
Weight: Book
Copyright: Copyright (c) 2011 by Kimberly Geswein. All rights reserved.
Version: 1.003
ItalicAngle: 0
UnderlinePosition: -72
UnderlineWidth: 75
Ascent: 819
Descent: 205
sfntRevision: 0x000100c5
LayerCount: 2
Layer: 0 1 "Back"  1
Layer: 1 1 "Fore"  0
XUID: [1021 288 713564382 15410769]
FSType: 0
OS2Version: 2
OS2_WeightWidthSlopeOnly: 0
OS2_UseTypoMetrics: 1
CreationTime: 1309521175
ModificationTime: 1319465163
PfmFamily: 17
TTFWeight: 400
TTFWidth: 5
LineGap: 0
VLineGap: 0
Panose: 2 0 0 0 0 0 0 0 0 0
OS2TypoAscent: 942
OS2TypoAOffset: 0
OS2TypoDescent: -333
OS2TypoDOffset: 0
OS2TypoLinegap: 0
OS2WinAscent: 942
OS2WinAOffset: 0
OS2WinDescent: 333
OS2WinDOffset: 0
HheadAscent: 942
HheadAOffset: 0
HheadDescent: -333
HheadDOffset: 0
OS2SubXSize: 717
OS2SubYSize: 665
OS2SubXOff: 0
OS2SubYOff: 141
OS2SupXSize: 717
OS2SupYSize: 665
OS2SupXOff: 0
OS2SupYOff: 488
OS2StrikeYSize: 51
OS2StrikeYPos: 256
OS2Vendor: 'HL  '
OS2CodePages: 00000093.00000000
OS2UnicodeRanges: a000002f.5000004a.00000000.00000000
MarkAttachClasses: 1
DEI: 91125
TtTable: prep
PUSHW_1
 511
SCANCTRL
PUSHB_1
 4
SCANTYPE
EndTTInstrs
ShortTable: maxp 16
  1
  0
  355
  842
  84
  664
  68
  2
  0
  1
  1
  0
  64
  0
  2
  1
EndShort
LangName: 1033 "" "" "" "FontForge 2.0 : Love Ya Like A Sister Regular : 18-10-2011" "" "Version 1.002 2007" "" "Love Ya Like A Sister is a trademark of Kimberly Geswein." "Kimberly Geswein" "Kimberly Geswein" "Copyright (c) 2011 by Kimberly Geswein. All rights reserved." "http://www.kimberlygeswein.com" "http://www.kimberlygeswein.com" "Copyright (c) 2010, Kimberly Geswein (kimberlygeswein.com)+AA0ADQAA-This Font Software is licensed under the SIL Open Font License, Version 1.1.  This license is available with a FAQ at:  http://scripts.sil.org/OFL" "http://scripts.sil.org/OFL" 
GaspTable: 1 65535 15
Encoding: UnicodeBmp

StartChar: exclam
Encoding: 33 33 4
Width: 226
GlyphClass: 2
Flags: W
LayerCount: 2
Fore
SplineSet
134 720 m 2,0,-1
 140 720 l 2,1,2
 167 720 167 720 187 697 c 1,3,-1
 185 623 l 1,4,-1
 185 614 l 1,5,-1
 193 481 l 1,6,7
 193 418 193 418 179 373 c 1,8,-1
 179 357 l 1,9,-1
 182 345 l 1,10,-1
 177 326 l 1,11,-1
 177 311 l 2,12,13
 177 292 177 292 183 282 c 1,14,15
 180 257 180 257 175 257 c 1,16,17
 171 261 171 261 166 261 c 1,18,19
 128 238 128 238 128 235 c 1,20,-1
 129 234 l 1,21,22
 173 239 173 239 173 245 c 1,23,-1
 178 245 l 1,24,-1
 183 239 l 1,25,26
 183 225 183 225 100 216 c 0,27,28
 95 216 95 216 92 221 c 1,29,30
 92 229 92 229 105 229 c 2,31,-1
 109 229 l 1,32,-1
 109 232 l 2,33,34
 109 235 109 235 96 239 c 1,35,-1
 95 247 l 2,36,37
 95 251 95 251 109 256 c 1,38,39
 113 264 113 264 113 268 c 2,40,-1
 113 269 l 2,41,42
 113 274 113 274 92 275 c 0,43,44
 86 275 86 275 80 520 c 1,45,46
 76 553 76 553 76 622 c 2,47,-1
 76 651 l 2,48,49
 76 669 76 669 92 679 c 1,50,-1
 80 695 l 1,51,52
 80 700 80 700 92 703 c 1,53,-1
 92 704 l 1,54,-1
 92 707 l 1,55,-1
 92 708 l 2,56,57
 92 720 92 720 134 720 c 2,0,-1
107 698 m 1,58,-1
 103 697 l 1,59,-1
 103 695 l 1,60,-1
 106 693 l 1,61,-1
 110 693 l 1,62,-1
 112 695 l 1,63,-1
 112 697 l 1,64,-1
 107 698 l 1,58,-1
157 679 m 2,65,-1
 157 678 l 2,66,67
 157 668 157 668 163 666 c 1,68,-1
 164 666 l 2,69,70
 170 666 170 666 171 682 c 0,71,72
 171 688 171 688 166 688 c 0,73,74
 157 688 157 688 157 679 c 2,65,-1
147 653 m 1,75,-1
 140 654 l 1,76,-1
 139 653 l 1,77,-1
 139 652 l 1,78,-1
 142 648 l 1,79,-1
 144 648 l 1,80,-1
 147 651 l 1,81,-1
 147 653 l 1,75,-1
142 643 m 1,82,-1
 140 643 l 1,83,-1
 139 641 l 1,84,-1
 138 603 l 1,85,-1
 138 579 l 2,86,87
 138 547 138 547 144 547 c 2,88,-1
 146 547 l 1,89,-1
 144 592 l 2,90,91
 144 606 144 606 150 610 c 1,92,-1
 150 613 l 1,93,94
 142 613 142 613 142 641 c 2,95,-1
 142 643 l 1,82,-1
92 616 m 1,96,-1
 92 614 l 1,97,-1
 92 607 l 1,98,-1
 92 594 l 1,99,-1
 95 594 l 1,100,-1
 95 596 l 1,101,-1
 96 606 l 1,102,103
 95 616 95 616 92 616 c 1,96,-1
95 582 m 1,104,-1
 92 582 l 1,105,-1
 92 532 l 1,106,-1
 94 524 l 1,107,-1
 97 524 l 1,108,109
 101 533 101 533 102 557 c 1,110,-1
 96 581 l 1,111,-1
 95 582 l 1,104,-1
154 527 m 2,112,-1
 154 520 l 1,113,-1
 157 517 l 1,114,-1
 159 517 l 1,115,-1
 160 524 l 1,116,-1
 160 528 l 1,117,-1
 159 535 l 1,118,-1
 157 535 l 1,119,120
 154 534 154 534 154 527 c 2,112,-1
96 512 m 1,121,-1
 94 509 l 1,122,-1
 94 505 l 1,123,-1
 96 505 l 1,124,-1
 100 508 l 1,125,-1
 99 512 l 1,126,-1
 96 512 l 1,121,-1
124 501 m 1,127,-1
 121 497 l 1,128,-1
 121 496 l 1,129,-1
 122 493 l 1,130,-1
 128 493 l 1,131,-1
 128 499 l 1,132,-1
 125 501 l 1,133,-1
 124 501 l 1,127,-1
122 449 m 1,134,-1
 124 445 l 1,135,-1
 125 445 l 2,136,137
 129 445 129 445 129 462 c 2,138,-1
 129 483 l 1,139,140
 123 483 123 483 122 449 c 1,134,-1
167 478 m 1,141,-1
 162 478 l 1,142,-1
 160 472 l 1,143,-1
 162 471 l 1,144,-1
 163 471 l 1,145,-1
 167 474 l 1,146,-1
 167 478 l 1,141,-1
107 383 m 1,147,-1
 105 377 l 1,148,-1
 103 330 l 1,149,150
 104 315 104 315 107 315 c 1,151,152
 124 326 124 326 124 338 c 2,153,-1
 124 342 l 2,154,155
 124 344 124 344 117 347 c 0,156,157
 114 348 114 348 112 375 c 1,158,-1
 112 379 l 1,159,-1
 110 380 l 1,160,161
 110 383 110 383 107 383 c 1,147,-1
134 348 m 1,162,-1
 130 345 l 1,163,-1
 131 340 l 1,164,-1
 134 340 l 1,165,-1
 137 344 l 1,166,-1
 137 348 l 1,167,-1
 134 348 l 1,162,-1
110 301 m 1,168,-1
 110 300 l 1,169,-1
 112 300 l 1,170,171
 117 302 117 302 117 308 c 2,172,-1
 117 310 l 1,173,-1
 115 310 l 2,174,175
 112 310 112 310 110 301 c 1,168,-1
152 286 m 1,176,-1
 152 283 l 1,177,-1
 153 283 l 2,178,179
 170 283 170 283 172 297 c 1,180,-1
 172 301 l 1,181,-1
 169 303 l 1,182,-1
 167 303 l 2,183,184
 164 303 164 303 152 286 c 1,176,-1
112 113 m 1,185,-1
 132 118 l 1,186,187
 153 110 153 110 187 65 c 1,188,-1
 187 63 l 2,189,190
 187 49 187 49 131 2 c 1,191,-1
 131 1 l 1,192,-1
 148 -2 l 1,193,-1
 148 -5 l 1,194,-1
 131 -7 l 1,195,196
 105 -7 105 -7 67 21 c 1,197,198
 55 38 55 38 55 51 c 0,199,200
 55 93 55 93 112 113 c 1,185,-1
127 94 m 1,201,-1
 124 92 l 1,202,203
 124 85 124 85 146 85 c 2,204,-1
 147 85 l 1,205,-1
 147 88 l 2,206,207
 147 93 147 93 131 94 c 1,208,-1
 127 94 l 1,201,-1
117 68 m 2,209,-1
 117 65 l 1,210,-1
 122 65 l 1,211,212
 135 66 135 66 135 70 c 1,213,-1
 132 73 l 1,214,-1
 125 73 l 1,215,216
 117 71 117 71 117 68 c 2,209,-1
86 63 m 1,217,-1
 90 58 l 1,218,-1
 92 59 l 1,219,-1
 92 67 l 1,220,-1
 90 70 l 1,221,222
 86 69 86 69 86 63 c 1,217,-1
134 53 m 1,223,-1
 130 49 l 1,224,-1
 130 48 l 1,225,-1
 132 45 l 1,226,-1
 135 45 l 1,227,-1
 139 49 l 1,228,-1
 139 51 l 1,229,-1
 137 53 l 1,230,-1
 134 53 l 1,223,-1
EndSplineSet
EndChar

StartChar: quotedbl
Encoding: 34 34 5
Width: 328
GlyphClass: 2
Flags: W
LayerCount: 2
Fore
SplineSet
131 718 m 1,0,-1
 133 720 l 1,1,-1
 133 718 l 1,2,-1
 123 712 l 1,3,-1
 123 711 l 2,4,5
 123 705 123 705 166 704 c 1,6,7
 174 690 174 690 174 677 c 1,8,9
 163 636 163 636 152 632 c 1,10,11
 128 603 128 603 96 603 c 2,12,-1
 88 603 l 1,13,-1
 88 601 l 1,14,-1
 94 585 l 1,15,16
 94 536 94 536 80 491 c 1,17,-1
 80 481 l 1,18,-1
 81 481 l 1,19,-1
 80 477 l 1,20,-1
 77 477 l 1,21,22
 54 488 54 488 49 506 c 1,23,-1
 31 605 l 1,24,25
 35 641 35 641 43 661 c 1,26,27
 43 688 43 688 83 712 c 1,28,29
 108 718 108 718 131 718 c 1,0,-1
90 679 m 1,30,-1
 88 679 l 1,31,-1
 83 679 l 1,32,-1
 78 675 l 1,33,-1
 78 670 l 1,34,-1
 83 667 l 1,35,-1
 88 667 l 1,36,37
 103 683 103 683 110 683 c 1,38,39
 115 688 115 688 115 692 c 1,40,41
 103 692 103 692 90 679 c 1,30,-1
156 682 m 1,42,-1
 152 679 l 1,43,-1
 152 667 l 2,44,45
 152 661 152 661 147 654 c 1,46,47
 147 646 147 646 154 646 c 0,48,49
 159 646 159 646 162 652 c 1,50,-1
 162 668 l 1,51,52
 160 682 160 682 156 682 c 1,42,-1
99 658 m 0,53,54
 99 652 99 652 109 648 c 1,55,-1
 108 646 l 1,56,-1
 108 636 l 1,57,-1
 113 636 l 1,58,59
 123 643 123 643 123 654 c 2,60,-1
 123 657 l 1,61,-1
 121 661 l 1,62,63
 121 666 121 666 125 670 c 1,64,-1
 125 677 l 1,65,-1
 121 680 l 1,66,-1
 118 680 l 2,67,68
 99 680 99 680 99 658 c 0,53,54
83 655 m 1,69,-1
 80 653 l 1,70,-1
 83 650 l 1,71,-1
 84 650 l 1,72,-1
 86 653 l 1,73,-1
 84 655 l 1,74,-1
 83 655 l 1,69,-1
63 605 m 1,75,-1
 59 603 l 1,76,-1
 59 599 l 1,77,-1
 63 599 l 1,78,-1
 67 603 l 1,79,-1
 63 605 l 1,75,-1
265 661 m 2,80,-1
 266 661 l 1,81,-1
 256 653 l 1,82,-1
 256 652 l 2,83,84
 256 646 256 646 299 645 c 1,85,86
 307 632 307 632 307 618 c 1,87,88
 296 577 296 577 285 573 c 1,89,90
 261 544 261 544 229 544 c 2,91,-1
 221 544 l 1,92,-1
 221 543 l 1,93,-1
 227 526 l 1,94,95
 227 479 227 479 213 434 c 1,96,-1
 213 423 l 1,97,-1
 214 422 l 1,98,-1
 213 418 l 1,99,-1
 211 418 l 1,100,101
 187 430 187 430 182 447 c 1,102,-1
 164 546 l 1,103,104
 168 584 168 584 176 603 c 1,105,106
 176 629 176 629 216 653 c 1,107,108
 243 661 243 661 265 661 c 2,80,-1
223 620 m 1,109,-1
 221 621 l 1,110,-1
 216 621 l 1,111,-1
 211 617 l 1,112,-1
 211 612 l 1,113,-1
 216 608 l 1,114,-1
 221 608 l 1,115,116
 236 625 236 625 243 625 c 1,117,118
 248 630 248 630 248 634 c 1,119,120
 237 634 237 634 223 620 c 1,109,-1
289 624 m 1,121,-1
 285 620 l 1,122,-1
 285 608 l 2,123,124
 285 601 285 601 280 596 c 1,125,126
 280 589 280 589 287 589 c 0,127,128
 292 589 292 589 295 593 c 1,129,-1
 295 610 l 1,130,131
 293 624 293 624 289 624 c 1,121,-1
232 599 m 0,132,133
 232 593 232 593 242 589 c 1,134,-1
 241 589 l 1,135,-1
 241 578 l 1,136,-1
 247 578 l 1,137,138
 256 586 256 586 256 596 c 2,139,-1
 256 598 l 1,140,-1
 254 602 l 1,141,142
 254 608 254 608 258 612 c 1,143,-1
 258 618 l 1,144,-1
 255 622 l 1,145,-1
 251 622 l 2,146,147
 232 622 232 622 232 599 c 0,132,133
216 597 m 1,148,-1
 213 595 l 1,149,-1
 216 592 l 1,150,-1
 217 592 l 1,151,-1
 220 595 l 1,152,-1
 217 597 l 1,153,-1
 216 597 l 1,148,-1
196 546 m 1,154,-1
 193 544 l 1,155,-1
 193 542 l 1,156,-1
 196 541 l 1,157,-1
 200 544 l 1,158,-1
 196 546 l 1,154,-1
EndSplineSet
EndChar

StartChar: numbersign
Encoding: 35 35 6
Width: 501
GlyphClass: 2
Flags: W
LayerCount: 2
Fore
SplineSet
353 495 m 1,0,-1
 355 495 l 1,1,-1
 358 492 l 1,2,-1
 358 459 l 2,3,4
 358 429 358 429 363 407 c 1,5,-1
 432 409 l 2,6,7
 466 409 466 409 466 397 c 2,8,-1
 466 394 l 1,9,10
 459 394 459 394 459 378 c 1,11,12
 451 358 451 358 417 358 c 1,13,14
 365 355 365 355 365 350 c 2,15,-1
 365 349 l 2,16,17
 365 329 365 329 373 262 c 1,18,-1
 374 262 l 2,19,20
 470 262 470 262 470 249 c 1,21,22
 463 242 463 242 463 239 c 1,23,24
 473 221 473 221 438 214 c 0,25,26
 418 209 418 209 380 208 c 1,27,-1
 376 198 l 1,28,-1
 376 186 l 2,29,30
 376 164 376 164 382 142 c 1,31,-1
 378 120 l 1,32,-1
 382 107 l 1,33,34
 373 98 373 98 359 98 c 1,35,36
 329 102 329 102 329 110 c 0,37,38
 323 203 323 203 316 203 c 0,39,40
 242 195 242 195 242 193 c 2,41,-1
 243 94 l 2,42,43
 243 81 243 81 233 81 c 1,44,45
 208 67 208 67 192 67 c 1,46,-1
 190 69 l 1,47,-1
 190 70 l 1,48,49
 197 87 197 87 198 103 c 1,50,-1
 185 161 l 1,51,52
 185 185 185 185 175 185 c 0,53,54
 95 185 95 185 95 208 c 2,55,-1
 95 229 l 1,56,-1
 93 243 l 1,57,-1
 93 246 l 1,58,59
 112 249 112 249 170 250 c 0,60,61
 179 250 179 250 180 269 c 1,62,-1
 180 343 l 1,63,-1
 110 339 l 1,64,-1
 110 337 l 1,65,66
 93 337 93 337 93 347 c 128,-1,67
 93 357 93 357 81 378 c 1,68,-1
 81 382 l 2,69,70
 81 391 81 391 142 391 c 2,71,-1
 160 391 l 1,72,73
 178 392 178 392 178 400 c 2,74,-1
 178 409 l 1,75,-1
 176 444 l 1,76,77
 177 465 177 465 193 482 c 1,78,79
 209 484 209 484 211 484 c 2,80,-1
 220 485 l 2,81,82
 226 485 226 485 240 428 c 1,83,84
 238 422 238 422 238 415 c 2,85,-1
 238 409 l 1,86,-1
 242 405 l 1,87,-1
 274 405 l 2,88,89
 291 405 291 405 302 409 c 1,90,-1
 302 466 l 2,91,92
 302 477 302 477 311 477 c 2,93,-1
 321 477 l 2,94,95
 346 477 346 477 353 495 c 1,0,-1
337 455 m 1,96,-1
 331 452 l 1,97,-1
 331 444 l 2,98,99
 331 436 331 436 337 436 c 1,100,-1
 340 440 l 1,101,-1
 340 452 l 1,102,-1
 337 455 l 1,96,-1
215 438 m 1,103,-1
 213 436 l 1,104,-1
 213 434 l 1,105,-1
 217 430 l 1,106,-1
 223 430 l 1,107,-1
 227 434 l 1,108,-1
 227 435 l 1,109,110
 226 438 226 438 219 438 c 2,111,-1
 215 438 l 1,103,-1
287 388 m 1,112,-1
 281 387 l 1,113,-1
 281 385 l 2,114,115
 281 382 281 382 301 380 c 1,116,-1
 301 378 l 2,117,118
 301 373 301 373 240 369 c 1,119,-1
 240 366 l 1,120,-1
 244 363 l 1,121,-1
 247 363 l 1,122,123
 306 365 306 365 306 373 c 2,124,-1
 306 384 l 1,125,-1
 302 388 l 1,126,-1
 287 388 l 1,112,-1
391 388 m 1,127,-1
 388 385 l 1,128,129
 390 382 390 382 398 382 c 2,130,-1
 405 382 l 1,131,-1
 405 384 l 1,132,133
 404 388 404 388 394 388 c 2,134,-1
 391 388 l 1,127,-1
93 374 m 2,135,-1
 93 372 l 1,136,-1
 103 372 l 2,137,138
 117 372 117 372 117 375 c 2,139,-1
 117 378 l 1,140,-1
 104 380 l 1,141,142
 93 377 93 377 93 374 c 2,135,-1
372 378 m 1,143,-1
 365 376 l 1,144,-1
 365 373 l 1,145,-1
 378 372 l 2,146,147
 391 372 391 372 391 375 c 2,148,-1
 390 378 l 1,149,-1
 372 378 l 1,143,-1
112 355 m 1,150,-1
 113 355 l 1,151,-1
 114 355 l 1,152,153
 148 356 148 356 148 360 c 2,154,-1
 148 362 l 1,155,-1
 146 362 l 1,156,157
 112 359 112 359 112 355 c 1,150,-1
236 287 m 2,158,-1
 236 254 l 1,159,-1
 237 254 l 2,160,161
 312 254 312 254 312 264 c 1,162,-1
 314 269 l 1,163,164
 311 346 311 346 306 346 c 2,165,-1
 304 346 l 1,166,-1
 279 347 l 1,167,168
 238 347 238 347 238 341 c 0,169,170
 236 327 236 327 236 287 c 2,158,-1
203 331 m 0,171,172
 206 267 206 267 213 267 c 0,173,174
 218 267 218 267 220 281 c 1,175,-1
 220 312 l 2,176,177
 220 344 220 344 211 344 c 1,178,179
 203 339 203 339 203 331 c 0,171,172
403 247 m 1,180,-1
 384 244 l 1,181,-1
 384 240 l 1,182,-1
 405 240 l 2,183,184
 414 240 414 240 415 244 c 1,185,-1
 415 246 l 1,186,-1
 403 247 l 1,180,-1
427 242 m 1,187,188
 434 242 434 242 438 238 c 1,189,-1
 440 238 l 1,190,-1
 440 242 l 1,191,-1
 436 246 l 1,192,-1
 435 246 l 1,193,194
 427 244 427 244 427 242 c 1,187,188
250 232 m 1,195,-1
 252 230 l 1,196,197
 310 233 310 233 310 238 c 1,198,-1
 309 239 l 1,199,-1
 308 239 l 1,200,201
 250 238 250 238 250 232 c 1,195,-1
116 236 m 1,202,-1
 112 232 l 1,203,-1
 112 230 l 1,204,-1
 114 229 l 1,205,-1
 128 229 l 1,206,-1
 128 230 l 1,207,208
 125 236 125 236 116 236 c 1,202,-1
103 208 m 2,209,-1
 103 203 l 1,210,-1
 106 200 l 1,211,-1
 116 200 l 1,212,213
 136 203 136 203 136 209 c 0,214,215
 136 213 136 213 120 213 c 2,216,-1
 118 213 l 1,217,218
 103 212 103 212 103 208 c 2,209,-1
153 193 m 1,219,-1
 157 190 l 1,220,-1
 163 190 l 2,221,222
 168 190 168 190 182 199 c 1,223,-1
 182 203 l 1,224,-1
 178 203 l 2,225,226
 157 203 157 203 153 193 c 1,219,-1
343 121 m 1,227,-1
 339 117 l 1,228,-1
 339 116 l 1,229,-1
 346 116 l 1,230,-1
 346 121 l 1,231,-1
 343 121 l 1,227,-1
362 117 m 1,232,-1
 358 113 l 1,233,-1
 358 112 l 1,234,-1
 362 112 l 1,235,-1
 364 114 l 1,236,-1
 364 117 l 1,237,-1
 362 117 l 1,232,-1
214 110 m 1,238,-1
 209 104 l 1,239,-1
 211 103 l 1,240,-1
 218 103 l 1,241,-1
 220 104 l 1,242,-1
 220 110 l 1,243,-1
 214 110 l 1,238,-1
209 87 m 1,244,-1
 203 81 l 1,245,-1
 203 76 l 1,246,247
 218 79 218 79 218 87 c 1,248,-1
 209 87 l 1,244,-1
EndSplineSet
EndChar

StartChar: dollar
Encoding: 36 36 7
Width: 535
GlyphClass: 2
Flags: W
LayerCount: 2
Fore
SplineSet
369 822 m 1,0,-1
 369 819 l 1,1,2
 364 803 364 803 358 776 c 1,3,-1
 358 720 l 1,4,-1
 353 704 l 1,5,6
 375 676 375 676 401 661 c 1,7,-1
 418 643 l 1,8,-1
 421 643 l 1,9,10
 428 706 428 706 445 704 c 0,11,12
 450 704 450 704 454.5 703.5 c 128,-1,13
 459 703 459 703 461.5 702.5 c 128,-1,14
 464 702 464 702 465 702 c 2,15,-1
 477 702 l 2,16,17
 489 702 489 702 489 705 c 1,18,19
 495 705 495 705 498 688 c 1,20,21
 498 668 498 668 489 630 c 1,22,-1
 489 629 l 1,23,-1
 497 610 l 1,24,25
 496 599 496 599 489 589 c 1,26,-1
 489 582 l 1,27,-1
 481 497 l 1,28,-1
 479 495 l 1,29,-1
 475 495 l 1,30,-1
 450 499 l 1,31,-1
 447 499 l 1,32,-1
 447 497 l 1,33,34
 437 497 437 497 417 574 c 1,35,36
 417 601 417 601 383 601 c 1,37,-1
 363 603 l 1,38,-1
 359 603 l 2,39,40
 356 603 356 603 355 602 c 0,41,42
 350 438 350 438 346 398 c 1,43,44
 346 382 346 382 384 382 c 0,45,46
 405 382 405 382 459 337 c 0,47,48
 514 291 514 291 514 207 c 2,49,-1
 514 153 l 2,50,51
 514 111 514 111 492 76 c 1,52,53
 446 15 446 15 423 15 c 1,54,-1
 400 8 l 1,55,56
 376 16 376 16 347 16 c 0,57,58
 328 16 328 16 322 6 c 1,59,-1
 322 -7 l 1,60,61
 329 -32 329 -32 339 -39 c 1,62,-1
 334 -45 l 1,63,64
 279 -32 279 -32 250 -32 c 1,65,-1
 250 -31 l 2,66,67
 250 -24 250 -24 261 -10 c 0,68,69
 264 -6 264 -6 264 10 c 2,70,-1
 264 16 l 2,71,72
 264 32 264 32 232 41 c 1,73,74
 113 115 113 115 106 115 c 2,75,-1
 104 115 l 1,76,77
 87 80 87 80 78 80 c 2,78,-1
 50 80 l 1,79,-1
 44 81 l 1,80,-1
 44 90 l 2,81,82
 44 128 44 128 62 196 c 1,83,84
 81 218 81 218 81 254 c 1,85,86
 98 274 98 274 117 277 c 1,87,-1
 119 277 l 1,88,89
 126 267 126 267 132 267 c 2,90,-1
 134 267 l 1,91,-1
 134 221 l 2,92,93
 134 196 134 196 223 125 c 1,94,95
 254 103 254 103 264 103 c 1,96,-1
 265 121 l 1,97,-1
 265 188 l 2,98,99
 265 266 265 266 270 318 c 1,100,101
 260 352 260 352 250 352 c 1,102,103
 221 361 221 361 218 368 c 1,104,-1
 218 369 l 1,105,-1
 223 371 l 1,106,-1
 250 365 l 1,107,-1
 250 367 l 2,108,109
 250 370 250 370 220 383 c 1,110,111
 109 455 109 455 109 510 c 0,112,113
 109 576 109 576 155 626 c 1,114,115
 186 675 186 675 211 675 c 1,116,117
 271 704 271 704 271 711 c 0,118,119
 276 782 276 782 281 791 c 1,120,-1
 283 799 l 1,121,-1
 280 805 l 1,122,-1
 280 808 l 2,123,124
 280 814 280 814 355 819 c 1,125,126
 355 822 355 822 369 822 c 1,0,-1
340 315 m 1,127,-1
 336 315 l 2,128,129
 332 315 332 315 328 74 c 0,130,131
 328 63 328 63 353 63 c 1,132,-1
 355 58 l 1,133,134
 360 58 360 58 383 70 c 1,135,136
 421 78 421 78 421 90 c 1,137,138
 455 121 455 121 455 130 c 1,139,140
 459 150 459 150 459 171 c 2,141,-1
 459 175 l 2,142,143
 459 211 459 211 435 270 c 1,144,145
 435 279 435 279 415 287 c 1,146,-1
 407 295 l 1,147,-1
 397 295 l 2,148,149
 385 295 385 295 340 315 c 1,127,-1
175 553 m 2,150,-1
 175 547 l 1,151,-1
 175 545 l 1,152,-1
 167 531 l 1,153,-1
 167 526 l 2,154,155
 167 502 167 502 205 472 c 1,156,157
 250 427 250 427 260 427 c 2,158,-1
 264 427 l 2,159,160
 279 427 279 427 279 484 c 1,161,162
 280 534 280 534 283 553 c 1,163,164
 275 553 275 553 272 572 c 1,165,166
 265 578 265 578 265 584 c 1,167,-1
 267 595 l 1,168,169
 264 604 264 604 246 604 c 2,170,-1
 229 604 l 1,171,172
 178 584 178 584 178 574 c 1,173,174
 175 564 175 564 175 553 c 2,150,-1
427 332 m 1,175,-1
 421 332 l 1,176,-1
 421 327 l 1,177,178
 439 301 439 301 460 301 c 1,179,180
 473 288 473 288 477 264 c 1,181,182
 484 252 484 252 492 252 c 1,183,-1
 497 256 l 1,184,-1
 497 258 l 2,185,186
 497 286 497 286 434 330 c 1,187,-1
 427 332 l 1,175,-1
233 611 m 1,188,-1
 237 609 l 1,189,-1
 265 609 l 1,190,-1
 267 611 l 1,191,-1
 267 621 l 1,192,-1
 264 625 l 1,193,-1
 256 625 l 1,194,195
 233 620 233 620 233 611 c 1,188,-1
337 450 m 1,196,197
 348 468 348 468 346 549 c 1,198,199
 337 476 337 476 337 450 c 1,196,197
220 405 m 1,200,-1
 218 402 l 1,201,202
 218 394 218 394 261 393 c 1,203,-1
 261 396 l 1,204,205
 252 405 252 405 236 405 c 2,206,-1
 220 405 l 1,200,-1
425 84 m 1,207,-1
 427 84 l 1,208,209
 459 92 459 92 459 106 c 1,210,-1
 457 107 l 1,211,212
 425 93 425 93 425 84 c 1,207,-1
126 513 m 2,213,-1
 124 513 l 1,214,-1
 124 509 l 1,215,216
 128 478 128 478 135 478 c 1,217,-1
 138 481 l 1,218,219
 133 513 133 513 126 513 c 2,213,-1
308 557 m 1,220,-1
 304 557 l 1,221,222
 299 545 299 545 299 537 c 2,223,-1
 299 535 l 2,224,225
 299 520 299 520 302 520 c 1,226,227
 308 528 308 528 308 557 c 1,220,-1
427 28 m 1,228,-1
 431 28 l 2,229,230
 438 28 438 28 452 43 c 1,231,-1
 452 45 l 1,232,-1
 450 49 l 1,233,234
 427 38 427 38 427 28 c 1,228,-1
297 119 m 1,235,-1
 295 119 l 1,236,237
 292 109 292 109 290 85 c 1,238,-1
 291 82 l 1,239,-1
 293 82 l 2,240,241
 297 82 297 82 299 105 c 1,242,-1
 297 119 l 1,235,-1
462 638 m 1,243,-1
 463 638 l 1,244,245
 472 647 472 647 472 661 c 2,246,-1
 472 664 l 1,247,-1
 467 668 l 1,248,249
 464 668 464 668 462 638 c 1,243,-1
210 454 m 1,250,-1
 205 450 l 1,251,-1
 205 448 l 1,252,253
 206 436 206 436 220 436 c 2,254,-1
 221 436 l 1,255,-1
 225 438 l 1,256,257
 218 454 218 454 210 454 c 1,250,-1
131 551 m 1,258,259
 124 543 124 543 124 534 c 2,260,-1
 124 531 l 1,261,-1
 129 527 l 1,262,263
 136 527 136 527 136 535 c 0,264,265
 135 551 135 551 131 551 c 1,258,259
292 434 m 1,266,-1
 292 433 l 1,267,-1
 297 427 l 1,268,-1
 302 427 l 1,269,270
 308 428 308 428 308 436 c 2,271,-1
 308 445 l 1,272,273
 301 445 301 445 292 434 c 1,266,-1
124 121 m 1,274,275
 138 106 138 106 146 106 c 2,276,-1
 148 106 l 1,277,-1
 149 107 l 1,278,279
 138 121 138 121 124 121 c 1,274,275
198 603 m 2,280,-1
 198 599 l 1,281,-1
 200 599 l 2,282,283
 217 599 217 599 217 604 c 2,284,-1
 217 609 l 2,285,286
 217 611 217 611 213 611 c 1,287,288
 198 606 198 606 198 603 c 2,280,-1
296 154 m 2,289,-1
 295 154 l 1,290,-1
 290 135 l 1,291,-1
 295 130 l 1,292,-1
 296 130 l 2,293,294
 299 130 299 130 301 138 c 1,295,296
 300 154 300 154 296 154 c 2,289,-1
157 142 m 1,297,-1
 157 141 l 2,298,299
 157 135 157 135 182 129 c 1,300,-1
 183 130 l 1,301,-1
 183 131 l 1,302,303
 166 142 166 142 157 142 c 1,297,-1
136 574 m 1,304,-1
 138 574 l 1,305,-1
 139 574 l 2,306,307
 146 574 146 574 153 589 c 1,308,-1
 153 591 l 1,309,-1
 149 591 l 1,310,311
 139 585 139 585 136 574 c 1,304,-1
184 470 m 1,312,-1
 182 470 l 1,313,-1
 182 466 l 1,314,315
 192 453 192 453 195 453 c 2,316,-1
 198 453 l 1,317,-1
 198 456 l 1,318,319
 193 465 193 465 184 470 c 1,312,-1
391 658 m 1,320,-1
 388 658 l 1,321,-1
 388 657 l 2,322,323
 388 650 388 650 400 642 c 1,324,-1
 403 645 l 1,325,326
 400 654 400 654 391 658 c 1,320,-1
387 27 m 2,327,-1
 372 27 l 1,328,329
 372 21 372 21 394 20 c 1,330,-1
 398 20 l 1,331,-1
 398 22 l 1,332,333
 396 27 396 27 387 27 c 2,327,-1
328 731 m 1,334,-1
 324 727 l 1,335,-1
 324 715 l 1,336,-1
 326 708 l 1,337,-1
 329 708 l 1,338,-1
 330 717 l 1,339,-1
 330 729 l 1,340,-1
 328 731 l 1,334,-1
455 592 m 2,341,-1
 455 582 l 1,342,-1
 456 582 l 1,343,344
 461 583 461 583 463 603 c 1,345,-1
 463 604 l 1,346,-1
 460 604 l 1,347,348
 455 602 455 602 455 592 c 2,341,-1
489 109 m 1,349,-1
 491 109 l 2,350,351
 495 109 495 109 499 128 c 1,352,-1
 499 130 l 1,353,-1
 498 130 l 1,354,355
 489 120 489 120 489 109 c 1,349,-1
435 60 m 1,356,-1
 437 60 l 2,357,358
 445 60 445 60 450 68 c 1,359,-1
 450 70 l 1,360,-1
 442 70 l 1,361,362
 435 67 435 67 435 60 c 1,356,-1
293 481 m 2,363,-1
 293 473 l 1,364,-1
 295 473 l 2,365,366
 298 473 298 473 301 487 c 1,367,-1
 301 493 l 1,368,-1
 299 493 l 1,369,370
 293 492 293 492 293 481 c 2,363,-1
56 124 m 1,371,-1
 57 121 l 1,372,-1
 58 121 l 2,373,374
 62 121 62 121 62 130 c 2,375,-1
 62 135 l 1,376,-1
 60 135 l 2,377,378
 58 135 58 135 56 124 c 1,371,-1
302 233 m 1,379,-1
 299 233 l 1,380,-1
 299 220 l 1,381,-1
 302 220 l 1,382,-1
 304 226 l 1,383,-1
 304 227 l 1,384,-1
 302 233 l 1,379,-1
301 252 m 1,385,-1
 299 250 l 1,386,-1
 299 243 l 1,387,-1
 301 241 l 1,388,-1
 302 241 l 1,389,-1
 305 243 l 1,390,-1
 305 250 l 1,391,-1
 302 252 l 1,392,-1
 301 252 l 1,385,-1
305 419 m 1,393,-1
 301 419 l 1,394,-1
 299 413 l 1,395,-1
 299 412 l 1,396,-1
 301 409 l 1,397,-1
 302 409 l 1,398,-1
 305 412 l 1,399,-1
 305 419 l 1,393,-1
138 154 m 1,400,-1
 135 151 l 1,401,-1
 135 149 l 1,402,-1
 138 146 l 1,403,-1
 142 146 l 1,404,-1
 142 150 l 1,405,-1
 139 154 l 1,406,-1
 138 154 l 1,400,-1
306 488 m 1,407,408
 313 488 313 488 315 493 c 1,409,-1
 315 495 l 1,410,-1
 314 495 l 2,411,412
 306 495 306 495 306 488 c 1,407,408
283 324 m 2,413,-1
 283 320 l 1,414,415
 287 321 287 321 287 328 c 2,416,-1
 287 332 l 1,417,-1
 286 332 l 1,418,419
 283 330 283 330 283 324 c 2,413,-1
312 741 m 1,420,-1
 310 739 l 1,421,-1
 310 733 l 1,422,-1
 312 731 l 1,423,-1
 315 731 l 1,424,-1
 315 741 l 1,425,-1
 312 741 l 1,420,-1
211 101 m 1,426,-1
 205 101 l 1,427,-1
 205 100 l 1,428,429
 207 95 207 95 214 95 c 2,430,-1
 215 95 l 1,431,-1
 215 97 l 1,432,-1
 211 101 l 1,426,-1
101 247 m 1,433,-1
 95 241 l 1,434,-1
 99 238 l 1,435,436
 104 241 104 241 104 247 c 1,437,-1
 101 247 l 1,433,-1
124 188 m 1,438,-1
 124 184 l 1,439,-1
 128 181 l 1,440,-1
 131 181 l 1,441,-1
 131 182 l 1,442,443
 130 188 130 188 124 188 c 1,438,-1
311 479 m 1,444,-1
 306 479 l 1,445,-1
 305 475 l 1,446,-1
 308 473 l 1,447,-1
 311 473 l 1,448,-1
 311 479 l 1,444,-1
295 10 m 1,449,-1
 292 8 l 1,450,-1
 292 5 l 1,451,-1
 295 5 l 1,452,-1
 297 8 l 1,453,-1
 297 10 l 1,454,-1
 295 10 l 1,449,-1
455 567 m 1,455,-1
 452 564 l 1,456,-1
 463 566 l 1,457,-1
 462 567 l 1,458,-1
 455 567 l 1,455,-1
292 -15 m 1,459,-1
 290 -17 l 1,460,-1
 290 -20 l 1,461,-1
 291 -20 l 1,462,-1
 295 -16 l 1,463,-1
 295 -15 l 1,464,-1
 292 -15 l 1,459,-1
281 214 m 1,465,-1
 279 214 l 1,466,-1
 279 210 l 1,467,-1
 281 210 l 1,468,-1
 281 214 l 1,465,-1
301 211 m 1,469,-1
 299 211 l 1,470,-1
 299 207 l 1,471,-1
 301 207 l 1,472,-1
 301 211 l 1,469,-1
EndSplineSet
EndChar

StartChar: percent
Encoding: 37 37 8
Width: 508
GlyphClass: 2
Flags: W
LayerCount: 2
Fore
SplineSet
454 760 m 1,0,1
 478 756 478 756 478 748 c 1,2,3
 493 744 493 744 493 740 c 1,4,5
 481 724 481 724 481 719 c 1,6,-1
 487 710 l 1,7,-1
 487 709 l 2,8,9
 487 705 487 705 476 686 c 1,10,11
 445 605 445 605 320 382 c 1,12,13
 273 280 273 280 259 261 c 1,14,15
 204 167 204 167 164 64 c 1,16,-1
 144 32 l 1,17,-1
 156 16 l 1,18,19
 156 12 156 12 142 4 c 1,20,-1
 139 4 l 2,21,22
 124 4 124 4 92 34 c 1,23,24
 71 43 71 43 71 54 c 1,25,-1
 74 64 l 1,26,27
 98 135 98 135 124 182 c 1,28,29
 134 221 134 221 146 221 c 2,30,-1
 150 221 l 1,31,-1
 150 222 l 2,32,33
 150 227 150 227 140 228 c 1,34,-1
 140 229 l 1,35,-1
 179 319 l 1,36,37
 193 335 193 335 193 346 c 1,38,39
 216 366 216 366 222 391 c 1,40,-1
 221 401 l 1,41,42
 227 414 227 414 239 424 c 1,43,-1
 350 646 l 1,44,45
 390 767 390 767 423 767 c 0,46,47
 441 767 441 767 454 760 c 1,0,1
404 740 m 1,48,-1
 400 743 l 1,49,50
 394 743 394 743 385 701 c 1,51,-1
 385 700 l 1,52,-1
 386 700 l 1,53,54
 394 705 394 705 404 735 c 1,55,-1
 404 740 l 1,48,-1
431 699 m 2,56,-1
 431 697 l 1,57,-1
 433 697 l 1,58,59
 441 703 441 703 441 711 c 2,60,-1
 441 713 l 1,61,62
 431 706 431 706 431 699 c 2,56,-1
408 589 m 1,63,-1
 408 585 l 1,64,-1
 412 585 l 1,65,-1
 416 590 l 1,66,-1
 416 596 l 1,67,68
 409 596 409 596 408 589 c 1,63,-1
327 508 m 1,69,-1
 326 508 l 2,70,71
 319 508 319 508 307 472 c 1,72,-1
 307 471 l 1,73,-1
 308 470 l 1,74,75
 320 482 320 482 327 505 c 1,76,-1
 327 508 l 1,69,-1
243 319 m 1,77,78
 249 319 249 319 250 323 c 1,79,-1
 250 325 l 1,80,81
 244 325 244 325 243 319 c 1,77,78
206 315 m 1,82,-1
 204 315 l 1,83,-1
 203 316 l 1,84,-1
 197 311 l 1,85,-1
 172 265 l 1,86,87
 150 240 150 240 150 234 c 2,88,-1
 150 230 l 1,89,90
 153 227 153 227 157 225 c 1,91,92
 171 238 171 238 206 315 c 1,82,-1
239 308 m 1,93,94
 228 292 228 292 228 286 c 2,95,-1
 228 284 l 1,96,-1
 229 284 l 2,97,98
 233 284 233 284 239 308 c 1,93,94
201 230 m 1,99,-1
 199 232 l 1,100,101
 193 229 193 229 179 193 c 1,102,-1
 182 190 l 1,103,-1
 184 190 l 1,104,105
 189 197 189 197 201 225 c 1,106,-1
 201 230 l 1,99,-1
124 143 m 1,107,-1
 121 146 l 1,108,109
 117 146 117 146 113 130 c 1,110,-1
 117 128 l 1,111,-1
 118 128 l 1,112,113
 124 132 124 132 124 139 c 2,114,-1
 124 143 l 1,107,-1
166 121 m 1,115,-1
 164 121 l 1,116,117
 158 115 158 115 148 85 c 1,118,-1
 150 81 l 1,119,120
 166 97 166 97 166 120 c 2,121,-1
 166 121 l 1,115,-1
124 110 m 1,122,-1
 124 108 l 1,123,-1
 127 108 l 1,124,125
 131 109 131 109 133 115 c 1,126,-1
 131 117 l 1,127,128
 128 116 128 116 124 110 c 1,122,-1
110 117 m 1,129,-1
 106 117 l 1,130,-1
 105 110 l 1,131,-1
 108 110 l 1,132,-1
 110 112 l 1,133,-1
 110 117 l 1,129,-1
100 67 m 1,134,-1
 98 69 l 1,135,136
 89 69 89 69 86 59 c 1,137,138
 86 52 86 52 90 51 c 1,139,-1
 92 51 l 2,140,141
 100 51 100 51 100 61 c 2,142,-1
 100 67 l 1,134,-1
149 20 m 1,143,-1
 146 23 l 1,144,-1
 140 23 l 1,145,-1
 139 21 l 1,146,-1
 139 19 l 1,147,-1
 144 17 l 1,148,-1
 147 17 l 1,149,-1
 149 20 l 1,143,-1
382 164 m 1,150,151
 421 150 421 150 434 128 c 1,152,153
 440 101 440 101 440 88 c 1,154,155
 432 56 432 56 423 47 c 0,156,157
 408 30 408 30 392 29 c 1,158,-1
 384 31 l 1,159,-1
 381 31 l 1,160,-1
 381 29 l 1,161,-1
 384 23 l 1,162,-1
 384 22 l 1,163,-1
 381 22 l 2,164,165
 350 22 350 22 327 57 c 1,166,167
 318 74 318 74 318 93 c 0,168,169
 318 125 318 125 334 142 c 1,170,171
 365 164 365 164 382 164 c 1,150,151
351 113 m 2,172,-1
 351 110 l 1,173,174
 363 110 363 110 388 135 c 1,175,-1
 388 139 l 1,176,-1
 384 139 l 1,177,178
 351 128 351 128 351 113 c 2,172,-1
416 117 m 1,179,180
 416 103 416 103 406 67 c 1,181,182
 418 67 418 67 425 95 c 1,183,-1
 425 107 l 2,184,185
 425 117 425 117 416 117 c 1,179,180
378 97 m 1,186,-1
 380 93 l 1,187,-1
 383 93 l 1,188,189
 390 96 390 96 390 103 c 2,190,-1
 390 106 l 1,191,-1
 387 108 l 1,192,-1
 383 108 l 1,193,194
 378 106 378 106 378 97 c 1,186,-1
342 107 m 1,195,-1
 337 103 l 1,196,-1
 337 88 l 2,197,198
 337 76 337 76 346 70 c 1,199,-1
 347 70 l 1,200,-1
 347 77 l 2,201,202
 347 104 347 104 342 107 c 1,195,-1
367 74 m 1,203,-1
 365 74 l 1,204,-1
 365 72 l 1,205,-1
 368 69 l 1,206,-1
 369 69 l 1,207,-1
 369 72 l 1,208,-1
 367 74 l 1,203,-1
381 50 m 1,209,-1
 381 47 l 1,210,-1
 384 47 l 1,211,212
 409 51 409 51 409 57 c 2,213,-1
 409 58 l 1,214,-1
 408 58 l 2,215,216
 395 58 395 58 381 50 c 1,209,-1
131 707 m 1,217,218
 169 695 169 695 183 672 c 1,219,220
 189 645 189 645 189 632 c 1,221,222
 182 600 182 600 173 591 c 0,223,224
 156 574 156 574 141 573 c 1,225,-1
 134 574 l 1,226,-1
 130 574 l 1,227,-1
 130 573 l 1,228,-1
 134 568 l 1,229,-1
 134 567 l 1,230,-1
 130 567 l 2,231,232
 98 567 98 567 76 601 c 1,233,234
 67 618 67 618 67 637 c 0,235,236
 67 668 67 668 84 687 c 1,237,238
 113 707 113 707 131 707 c 1,217,218
99 657 m 2,239,-1
 99 653 l 1,240,241
 112 653 112 653 138 679 c 1,242,-1
 138 682 l 1,243,-1
 134 684 l 1,244,245
 99 673 99 673 99 657 c 2,239,-1
165 661 m 1,246,247
 165 648 165 648 155 612 c 1,248,-1
 155 611 l 1,249,250
 167 611 167 611 175 640 c 1,251,-1
 175 652 l 2,252,253
 175 661 175 661 165 661 c 1,246,247
128 642 m 1,254,-1
 129 637 l 1,255,-1
 132 637 l 1,256,257
 139 641 139 641 139 647 c 2,258,-1
 139 650 l 1,259,-1
 136 652 l 1,260,-1
 132 652 l 1,261,262
 128 651 128 651 128 642 c 1,254,-1
91 652 m 1,263,-1
 85 646 l 1,264,-1
 85 632 l 2,265,266
 85 620 85 620 94 615 c 1,267,-1
 95 615 l 1,268,-1
 97 621 l 1,269,270
 97 649 97 649 91 652 c 1,263,-1
116 618 m 1,271,-1
 114 618 l 1,272,-1
 114 616 l 1,273,-1
 117 614 l 1,274,-1
 119 614 l 1,275,-1
 119 616 l 1,276,-1
 116 618 l 1,271,-1
130 595 m 1,277,-1
 130 591 l 1,278,-1
 134 591 l 1,279,280
 157 596 157 596 157 601 c 2,281,-1
 157 602 l 1,282,283
 144 602 144 602 130 595 c 1,277,-1
EndSplineSet
EndChar

StartChar: ampersand
Encoding: 38 38 9
Width: 589
GlyphClass: 2
Flags: W
LayerCount: 2
Fore
SplineSet
211 742 m 1,0,1
 225 736 225 736 256 732 c 1,2,3
 282 721 282 721 311 688 c 1,4,5
 344 640 344 640 344 632 c 1,6,7
 358 604 358 604 358 569 c 0,8,9
 358 514 358 514 274 434 c 1,10,11
 225 406 225 406 215 375 c 1,12,-1
 215 370 l 2,13,14
 215 356 215 356 271 303 c 1,15,16
 290 303 290 303 319 274 c 1,17,18
 336 259 336 259 364 243 c 1,19,-1
 364 244 l 2,20,21
 364 248 364 248 369 253 c 1,22,-1
 389 241 l 1,23,-1
 394 241 l 1,24,25
 404 258 404 258 418 319 c 1,26,-1
 427 395 l 1,27,-1
 427 399 l 2,28,29
 427 412 427 412 409 414 c 1,30,-1
 407 414 l 1,31,-1
 394 410 l 1,32,-1
 391 410 l 1,33,-1
 391 418 l 1,34,35
 399 468 399 468 405 468 c 1,36,37
 417 490 417 490 422 490 c 2,38,-1
 434 491 l 1,39,-1
 441 491 l 2,40,41
 459 491 459 491 488 463 c 1,42,43
 538 431 538 431 564 402 c 1,44,-1
 564 401 l 1,45,-1
 560 383 l 1,46,-1
 560 369 l 2,47,48
 560 362 560 362 542 351 c 1,49,-1
 539 351 l 1,50,51
 509 364 509 364 496 364 c 2,52,-1
 490 364 l 2,53,54
 483 364 483 364 479 321 c 1,55,56
 439 216 439 216 439 193 c 1,57,58
 440 188 440 188 488 156 c 1,59,60
 517 126 517 126 542 110 c 1,61,62
 560 92 560 92 560 85 c 0,63,64
 560 73 560 73 535 17 c 1,65,66
 535 4 535 4 511 -3 c 1,67,-1
 505 -8 l 1,68,-1
 504 -8 l 2,69,70
 500 -8 500 -8 496 29 c 1,71,72
 490 37 490 37 467 52 c 1,73,-1
 467 54 l 2,74,75
 467 57 467 57 481 59 c 1,76,77
 481 62 481 62 469 67 c 1,78,-1
 464 67 l 1,79,-1
 461 64 l 1,80,-1
 459 64 l 1,81,82
 459 76 459 76 441 86 c 1,83,84
 422 114 422 114 405 114 c 1,85,86
 393 106 393 106 376 67 c 1,87,88
 352 35 352 35 348 23 c 1,89,90
 320 -16 320 -16 238 -16 c 1,91,-1
 224 -18 l 1,92,93
 159 -9 159 -9 148 5 c 1,94,95
 101 50 101 50 94 69 c 1,96,97
 93 79 93 79 67 118 c 1,98,99
 49 176 49 176 49 197 c 1,100,-1
 59 301 l 1,101,102
 72 358 72 358 79 358 c 1,103,104
 106 373 106 373 106 380 c 1,105,106
 100 393 100 393 76 430 c 1,107,108
 56 508 56 508 56 528 c 0,109,110
 56 583 56 583 69 634 c 1,111,112
 69 693 69 693 128 725 c 1,113,114
 164 742 164 742 211 742 c 1,0,1
165 726 m 1,115,-1
 165 723 l 1,116,117
 193 724 193 724 193 730 c 2,118,-1
 193 732 l 1,119,-1
 190 733 l 1,120,121
 173 731 173 731 165 726 c 1,115,-1
104 699 m 1,122,-1
 106 697 l 1,123,-1
 112 697 l 2,124,125
 127 697 127 697 139 713 c 1,126,-1
 139 715 l 1,127,-1
 136 718 l 1,128,129
 120 718 120 718 104 699 c 1,122,-1
193 686 m 1,130,-1
 196 686 l 1,131,132
 214 688 214 688 214 697 c 1,133,-1
 211 699 l 1,134,135
 196 699 196 699 193 686 c 1,130,-1
142 679 m 1,136,-1
 149 679 l 1,137,138
 175 682 175 682 175 691 c 1,139,-1
 167 691 l 2,140,141
 156 691 156 691 142 679 c 1,136,-1
246 681 m 2,142,-1
 239 681 l 1,143,-1
 239 679 l 2,144,145
 239 674 239 674 277 662 c 1,146,-1
 278 662 l 1,147,-1
 278 664 l 1,148,149
 263 681 263 681 246 681 c 2,142,-1
298 681 m 1,150,-1
 296 681 l 1,151,152
 296 674 296 674 303 674 c 1,153,-1
 303 676 l 1,154,-1
 298 681 l 1,150,-1
99 577 m 1,155,-1
 106 538 l 1,156,-1
 106 533 l 1,157,158
 110 533 110 533 116 520 c 1,159,160
 120 520 120 520 120 515 c 1,161,-1
 117 508 l 1,162,-1
 117 505 l 2,163,164
 117 494 117 494 141 472 c 1,165,166
 171 433 171 433 176 433 c 2,167,-1
 180 433 l 2,168,169
 182 433 182 433 247 471 c 1,170,171
 281 505 281 505 292 556 c 1,172,-1
 297 600 l 1,173,174
 221 679 221 679 207 679 c 1,175,176
 155 667 155 667 136 643 c 1,177,178
 115 632 115 632 106 603 c 1,179,180
 99 585 99 585 99 577 c 1,155,-1
281 656 m 1,181,-1
 278 653 l 1,182,-1
 278 652 l 1,183,-1
 281 650 l 1,184,-1
 283 650 l 1,185,-1
 283 656 l 1,186,-1
 281 656 l 1,181,-1
308 559 m 2,187,-1
 308 556 l 1,188,-1
 310 553 l 1,189,-1
 311 553 l 1,190,-1
 315 558 l 1,191,-1
 315 568 l 1,192,-1
 312 571 l 1,193,194
 308 570 308 570 308 559 c 2,187,-1
71 535 m 1,195,-1
 69 533 l 1,196,-1
 69 525 l 1,197,-1
 74 520 l 1,198,-1
 76 520 l 1,199,-1
 76 526 l 2,200,201
 76 533 76 533 71 535 c 1,195,-1
294 513 m 2,202,-1
 294 508 l 1,203,-1
 296 508 l 2,204,205
 309 508 309 508 312 534 c 1,206,-1
 311 535 l 1,207,-1
 308 535 l 1,208,209
 294 524 294 524 294 513 c 2,202,-1
103 521 m 2,210,-1
 102 521 l 1,211,-1
 102 518 l 2,212,213
 102 509 102 509 108 506 c 1,214,-1
 111 508 l 1,215,-1
 111 513 l 1,216,217
 105 521 105 521 103 521 c 2,210,-1
283 482 m 1,218,219
 286 482 286 482 297 488 c 1,220,-1
 297 492 l 1,221,222
 283 490 283 490 283 482 c 1,218,219
123 474 m 1,223,-1
 121 473 l 1,224,-1
 121 472 l 1,225,226
 138 445 138 445 142 445 c 2,227,-1
 145 445 l 1,228,-1
 145 448 l 1,229,230
 134 474 134 474 123 474 c 1,223,-1
250 448 m 1,231,-1
 252 447 l 1,232,-1
 253 447 l 1,233,234
 263 448 263 448 283 467 c 1,235,-1
 283 468 l 1,236,-1
 283 470 l 1,237,238
 266 465 266 465 250 448 c 1,231,-1
454 457 m 2,239,-1
 451 457 l 1,240,-1
 451 455 l 2,241,242
 451 445 451 445 463 445 c 1,243,-1
 466 448 l 1,244,245
 462 457 462 457 454 457 c 2,239,-1
96 448 m 1,246,-1
 94 445 l 1,247,-1
 96 443 l 1,248,-1
 99 443 l 1,249,-1
 99 445 l 1,250,-1
 96 448 l 1,246,-1
149 442 m 1,251,-1
 146 442 l 1,252,-1
 146 434 l 1,253,254
 152 423 152 423 160 423 c 2,255,-1
 161 423 l 1,256,-1
 161 427 l 2,257,258
 161 434 161 434 149 442 c 1,251,-1
509 427 m 1,259,-1
 508 427 l 1,260,-1
 508 426 l 1,261,262
 515 412 515 412 535 404 c 1,263,-1
 535 407 l 1,264,265
 524 424 524 424 509 427 c 1,259,-1
488 402 m 1,266,-1
 480 405 l 1,267,-1
 479 404 l 1,268,-1
 479 402 l 1,269,270
 480 399 480 399 486 399 c 2,271,-1
 488 399 l 1,272,-1
 488 402 l 1,266,-1
124 392 m 1,273,-1
 121 391 l 1,274,-1
 121 389 l 1,275,-1
 126 389 l 1,276,-1
 128 391 l 1,277,-1
 128 392 l 1,278,-1
 124 392 l 1,273,-1
526 370 m 1,279,-1
 531 367 l 1,280,281
 544 371 544 371 544 375 c 2,282,-1
 544 382 l 1,283,-1
 542 382 l 1,284,285
 526 378 526 378 526 370 c 1,279,-1
463 380 m 1,286,-1
 459 376 l 1,287,-1
 459 367 l 1,288,-1
 463 367 l 1,289,-1
 467 373 l 1,290,-1
 467 377 l 1,291,-1
 464 380 l 1,292,-1
 463 380 l 1,286,-1
200 355 m 1,293,-1
 197 355 l 1,294,-1
 197 354 l 2,295,296
 197 350 197 350 203 347 c 1,297,-1
 205 348 l 1,298,-1
 205 350 l 1,299,-1
 200 355 l 1,293,-1
170 337 m 1,300,-1
 167 335 l 1,301,-1
 167 333 l 1,302,303
 173 325 173 325 215 296 c 1,304,-1
 218 296 l 1,305,-1
 218 298 l 1,306,307
 187 335 187 335 172 337 c 1,308,-1
 170 337 l 1,300,-1
106 296 m 2,309,-1
 106 283 l 1,310,-1
 103 247 l 1,311,312
 110 232 110 232 118 190 c 1,313,314
 128 166 128 166 139 130 c 1,315,316
 152 96 152 96 200 67 c 0,317,318
 220 55 220 55 228 55 c 2,319,-1
 232 55 l 2,320,321
 267 55 267 55 316 90 c 1,322,323
 360 134 360 134 365 152 c 1,324,-1
 365 156 l 1,325,326
 341 184 341 184 246 231 c 1,327,328
 201 258 201 258 160 315 c 1,329,330
 150 321 150 321 146 321 c 2,331,-1
 139 321 l 1,332,333
 106 314 106 314 106 296 c 2,309,-1
207 283 m 1,334,-1
 205 283 l 1,335,336
 205 275 205 275 215 271 c 1,337,-1
 217 271 l 1,338,339
 217 279 217 279 207 283 c 1,334,-1
417 238 m 1,340,-1
 418 236 l 1,341,-1
 419 236 l 1,342,-1
 429 250 l 1,343,-1
 429 257 l 1,344,-1
 427 257 l 2,345,346
 423 257 423 257 417 238 c 1,340,-1
93 224 m 1,347,-1
 93 222 l 1,348,349
 95 211 95 211 98 211 c 2,350,-1
 101 211 l 1,351,-1
 101 218 l 1,352,353
 96 224 96 224 93 224 c 1,347,-1
333 212 m 1,354,-1
 331 211 l 1,355,-1
 331 209 l 1,356,-1
 369 180 l 1,357,-1
 372 180 l 1,358,-1
 372 182 l 1,359,360
 347 212 347 212 335 212 c 2,361,-1
 333 212 l 1,354,-1
106 189 m 2,362,-1
 103 189 l 1,363,-1
 103 180 l 2,364,365
 103 157 103 157 121 121 c 1,366,367
 124 121 124 121 133 99 c 1,368,369
 143 87 143 87 148 85 c 1,370,-1
 151 85 l 1,371,-1
 151 86 l 1,372,-1
 121 147 l 1,373,374
 108 189 108 189 106 189 c 2,362,-1
85 170 m 1,375,-1
 81 170 l 1,376,-1
 81 160 l 1,377,-1
 85 156 l 1,378,-1
 91 156 l 1,379,-1
 91 158 l 1,380,-1
 85 170 l 1,375,-1
445 165 m 1,381,-1
 442 162 l 1,382,-1
 445 160 l 1,383,-1
 447 160 l 1,384,-1
 447 162 l 1,385,-1
 445 165 l 1,381,-1
474 142 m 1,386,-1
 474 140 l 1,387,388
 482 130 482 130 486 128 c 1,389,-1
 489 128 l 1,390,-1
 489 130 l 1,391,392
 484 142 484 142 474 142 c 1,386,-1
358 117 m 1,393,-1
 358 115 l 1,394,-1
 360 115 l 1,395,396
 376 124 376 124 376 135 c 2,397,-1
 376 139 l 1,398,-1
 375 139 l 2,399,400
 365 139 365 139 358 117 c 1,393,-1
482 123 m 1,401,-1
 480 121 l 1,402,403
 480 114 480 114 509 102 c 1,404,-1
 514 102 l 1,405,-1
 517 104 l 1,406,-1
 517 105 l 1,407,408
 502 123 502 123 486 123 c 2,409,-1
 482 123 l 1,401,-1
335 89 m 1,410,-1
 331 85 l 1,411,-1
 331 83 l 1,412,-1
 333 83 l 1,413,-1
 337 86 l 1,414,-1
 337 89 l 1,415,-1
 335 89 l 1,410,-1
535 89 m 1,416,-1
 531 86 l 1,417,-1
 531 85 l 1,418,419
 536 79 536 79 539 79 c 1,420,-1
 539 85 l 1,421,-1
 535 89 l 1,416,-1
492 80 m 1,422,-1
 495 77 l 1,423,424
 504 78 504 78 504 83 c 2,425,-1
 504 85 l 1,426,427
 502 88 502 88 496 88 c 1,428,429
 492 87 492 87 492 80 c 1,422,-1
106 77 m 1,430,-1
 106 76 l 1,431,-1
 106 73 l 1,432,433
 110 63 110 63 117 63 c 1,434,-1
 117 64 l 2,435,436
 117 77 117 77 106 77 c 1,430,-1
180 65 m 2,437,-1
 177 65 l 1,438,-1
 177 61 l 1,439,440
 186 48 186 48 195 48 c 2,441,-1
 199 48 l 2,442,443
 202 48 202 48 202 51 c 1,444,445
 188 65 188 65 180 65 c 2,437,-1
523 45 m 1,446,-1
 520 42 l 1,447,-1
 520 41 l 1,448,-1
 524 41 l 1,449,-1
 526 44 l 1,450,-1
 526 45 l 1,451,-1
 523 45 l 1,446,-1
265 42 m 1,452,-1
 263 42 l 1,453,-1
 263 41 l 1,454,-1
 265 41 l 1,455,-1
 265 42 l 1,452,-1
292 32 m 2,456,-1
 292 30 l 1,457,458
 325 32 325 32 328 39 c 1,459,-1
 328 40 l 1,460,-1
 325 42 l 1,461,-1
 318 42 l 1,462,463
 292 37 292 37 292 32 c 2,456,-1
189 36 m 2,464,-1
 186 36 l 1,465,-1
 186 34 l 2,466,467
 186 28 186 28 207 27 c 1,468,-1
 217 27 l 1,469,470
 204 36 204 36 189 36 c 2,464,-1
234 30 m 1,471,-1
 232 30 l 1,472,-1
 232 27 l 1,473,-1
 234 27 l 1,474,-1
 234 30 l 1,471,-1
157 22 m 1,475,-1
 153 19 l 1,476,-1
 153 16 l 1,477,-1
 157 16 l 1,478,-1
 157 14 l 1,479,-1
 160 16 l 1,480,-1
 160 20 l 1,481,-1
 157 22 l 1,475,-1
174 4 m 0,482,483
 174 -2 174 -2 221 -5 c 1,484,-1
 237 -5 l 2,485,486
 246 -5 246 -5 247 -2 c 1,487,488
 247 8 247 8 189 9 c 0,489,490
 174 9 174 9 174 4 c 0,482,483
273 -1 m 1,491,-1
 271 -3 l 1,492,-1
 271 -5 l 1,493,-1
 277 -5 l 1,494,-1
 287 -5 l 1,495,-1
 290 -3 l 1,496,-1
 287 -1 l 1,497,-1
 273 -1 l 1,491,-1
EndSplineSet
EndChar

StartChar: quotesingle
Encoding: 39 39 10
Width: 183
GlyphClass: 2
Flags: W
LayerCount: 2
Fore
SplineSet
82 645 m 0,0,1
 114 645 114 645 144 614 c 1,2,3
 163 589 163 589 163 546 c 1,4,5
 166 546 166 546 167 536 c 1,6,-1
 167 535 l 2,7,8
 167 530 167 530 159 500 c 1,9,-1
 144 455 l 1,10,-1
 110 413 l 1,11,12
 91 426 91 426 91 437 c 1,13,14
 96 473 96 473 103 500 c 1,15,-1
 103 504 l 2,16,17
 103 517 103 517 88 523 c 1,18,19
 34 552 34 552 34 580 c 1,20,-1
 33 586 l 1,21,22
 41 645 41 645 82 645 c 0,0,1
62 596 m 1,23,-1
 62 589 l 2,24,25
 62 579 62 579 67 577 c 1,26,27
 74 591 74 591 94 605 c 1,28,-1
 95 607 l 1,29,-1
 92 610 l 1,30,-1
 81 608 l 1,31,-1
 77 610 l 1,32,-1
 77 612 l 1,33,-1
 85 620 l 1,34,-1
 85 622 l 1,35,-1
 82 622 l 2,36,37
 67 622 67 622 62 596 c 1,23,-1
94 571 m 1,38,-1
 95 571 l 2,39,40
 106 571 106 571 106 581 c 1,41,-1
 103 583 l 1,42,-1
 99 583 l 1,43,44
 94 581 94 581 94 571 c 1,38,-1
131 568 m 1,45,-1
 128 564 l 1,46,-1
 128 561 l 1,47,-1
 130 561 l 2,48,49
 132 561 132 561 135 567 c 1,50,-1
 134 568 l 1,51,-1
 131 568 l 1,45,-1
94 533 m 1,52,-1
 85 531 l 1,53,-1
 85 529 l 1,54,-1
 87 526 l 1,55,-1
 101 526 l 1,56,-1
 103 529 l 1,57,-1
 103 531 l 1,58,-1
 94 533 l 1,52,-1
136 529 m 1,59,-1
 134 526 l 1,60,-1
 134 524 l 1,61,-1
 136 524 l 1,62,-1
 139 526 l 1,63,-1
 139 529 l 1,64,-1
 136 529 l 1,59,-1
122 499 m 1,65,-1
 121 496 l 1,66,-1
 121 491 l 1,67,-1
 122 489 l 1,68,-1
 126 492 l 1,69,-1
 126 495 l 1,70,-1
 122 499 l 1,65,-1
141 481 m 1,71,-1
 138 481 l 1,72,-1
 132 470 l 1,73,-1
 135 470 l 1,74,-1
 141 477 l 1,75,-1
 141 481 l 1,71,-1
EndSplineSet
EndChar

StartChar: parenleft
Encoding: 40 40 11
Width: 255
GlyphClass: 2
Flags: W
LayerCount: 2
Fore
SplineSet
193 741 m 1,0,-1
 193 746 l 1,1,-1
 193 748 l 1,2,-1
 189 745 l 1,3,-1
 132 598 l 1,4,5
 108 457 108 457 108 383 c 1,6,-1
 106 376 l 1,7,-1
 104 376 l 1,8,-1
 104 374 l 1,9,-1
 106 371 l 1,10,-1
 106 365 l 1,11,-1
 103 361 l 1,12,13
 102 364 102 364 95 364 c 2,14,-1
 92 364 l 2,15,16
 86 364 86 364 84 358 c 1,17,18
 87 316 87 316 92 316 c 1,19,20
 96 318 96 318 103 333 c 1,21,-1
 106 333 l 1,22,23
 108 324 108 324 111 324 c 0,24,25
 113 324 113 324 111 316 c 1,26,-1
 110 316 l 1,27,28
 103 312 103 312 103 304 c 2,29,-1
 103 289 l 1,30,-1
 101 279 l 1,31,-1
 101 275 l 2,32,33
 101 243 101 243 115 243 c 1,34,35
 137 164 137 164 149 146 c 1,36,37
 159 128 159 128 177 77 c 1,38,39
 218 5 218 5 233 -19 c 1,40,-1
 233 -23 l 1,41,-1
 228 -23 l 1,42,-1
 211 -23 l 2,43,44
 203 -23 203 -23 189 -34 c 1,45,-1
 182 -34 l 1,46,47
 174 -23 174 -23 156 -23 c 1,48,49
 147 -19 147 -19 124 43 c 1,50,51
 100 88 100 88 63 217 c 1,52,-1
 49 324 l 1,53,54
 47 324 47 324 44 371 c 1,55,56
 38 390 38 390 38 430 c 2,57,-1
 38 444 l 2,58,59
 38 455 38 455 48 475 c 1,60,-1
 48 477 l 2,61,62
 48 508 48 508 66 564 c 1,63,64
 92 743 92 743 104 743 c 1,65,66
 116 777 116 777 139 805 c 1,67,68
 164 845 164 845 189 857 c 1,69,70
 204 857 204 857 205 833 c 1,71,72
 218 799 218 799 229 787 c 1,73,-1
 229 785 l 1,74,-1
 228 784 l 1,75,-1
 218 779 l 1,76,-1
 218 776 l 1,77,78
 219 772 219 772 225 772 c 1,79,-1
 232 775 l 1,80,-1
 211 761 l 1,81,-1
 214 756 l 1,82,83
 214 746 214 746 202 739 c 1,84,-1
 196 739 l 1,85,-1
 193 741 l 1,0,-1
94 642 m 2,86,-1
 94 638 l 1,87,-1
 95 635 l 1,88,89
 99 638 99 638 106 670 c 1,90,91
 109 671 109 671 111 679 c 1,92,-1
 113 679 l 1,93,-1
 121 671 l 1,94,95
 134 680 134 680 134 704 c 2,96,-1
 134 715 l 1,97,-1
 131 715 l 1,98,-1
 130 715 l 2,99,100
 128 715 128 715 125 707 c 1,101,-1
 121 704 l 1,102,103
 117 705 117 705 115 709 c 1,104,105
 126 741 126 741 131 741 c 2,106,-1
 138 740 l 1,107,-1
 143 740 l 2,108,109
 154 740 154 740 165 779 c 1,110,-1
 165 783 l 1,111,112
 160 783 160 783 145 768 c 1,113,-1
 145 769 l 1,114,115
 154 782 154 782 154 787 c 2,116,-1
 154 789 l 1,117,-1
 152 791 l 1,118,-1
 148 791 l 1,119,120
 122 770 122 770 122 752 c 1,121,122
 94 693 94 693 94 642 c 2,86,-1
103 185 m 1,123,-1
 101 167 l 1,124,125
 107 134 107 134 113 134 c 2,126,-1
 114 134 l 1,127,-1
 118 139 l 1,128,129
 128 142 128 142 128 145 c 0,130,131
 115 185 115 185 103 185 c 1,123,-1
189 779 m 1,132,-1
 180 779 l 2,133,134
 174 779 174 779 165 746 c 1,135,136
 158 737 158 737 164 736 c 256,137,138
 170 735 170 735 179 756 c 0,139,140
 180 757 180 757 180 758 c 0,141,142
 200 780 200 780 200 787 c 1,143,-1
 194 791 l 1,144,-1
 193 791 l 2,145,146
 190 791 190 791 189 779 c 1,132,-1
70 475 m 2,147,-1
 70 472 l 1,148,149
 81 472 81 472 87 499 c 1,150,151
 84 514 84 514 81 514 c 1,152,153
 70 494 70 494 70 475 c 2,147,-1
174 45 m 1,154,-1
 173 45 l 1,155,-1
 174 31 l 1,156,-1
 167 25 l 1,157,158
 167 16 167 16 189 13 c 1,159,-1
 191 13 l 1,160,161
 187 29 187 29 174 45 c 1,154,-1
101 562 m 2,162,-1
 101 561 l 1,163,-1
 103 561 l 1,164,165
 110 565 110 565 113 607 c 1,166,-1
 112 607 l 1,167,168
 101 590 101 590 101 562 c 2,162,-1
126 132 m 1,169,-1
 124 129 l 1,170,-1
 124 124 l 1,171,172
 132 101 132 101 139 101 c 1,173,-1
 139 104 l 2,174,175
 139 122 139 122 126 132 c 1,169,-1
142 689 m 2,176,-1
 142 687 l 1,177,-1
 145 684 l 1,178,179
 150 684 150 684 153 702 c 1,180,-1
 153 707 l 1,181,-1
 152 707 l 1,182,183
 142 701 142 701 142 689 c 2,176,-1
185 -6 m 1,184,-1
 182 -10 l 1,185,-1
 182 -13 l 1,186,187
 183 -17 183 -17 191 -17 c 2,188,-1
 194 -17 l 1,189,-1
 200 -12 l 1,190,191
 200 -7 200 -7 187 -6 c 1,192,-1
 185 -6 l 1,184,-1
111 225 m 1,193,-1
 108 225 l 1,194,-1
 108 218 l 1,195,-1
 113 213 l 1,196,-1
 115 213 l 1,197,-1
 115 220 l 1,198,-1
 111 225 l 1,193,-1
101 347 m 1,199,-1
 103 351 l 1,200,201
 108 349 108 349 108 343 c 2,202,-1
 108 340 l 1,203,-1
 106 340 l 2,204,205
 104 340 104 340 101 347 c 1,199,-1
169 806 m 1,206,-1
 165 803 l 1,207,-1
 165 801 l 1,208,-1
 167 799 l 1,209,-1
 169 799 l 1,210,-1
 171 801 l 1,211,-1
 171 806 l 1,212,-1
 169 806 l 1,206,-1
99 543 m 1,213,-1
 97 543 l 1,214,-1
 97 538 l 1,215,-1
 99 535 l 1,216,-1
 103 535 l 1,217,-1
 103 541 l 1,218,-1
 99 543 l 1,213,-1
152 717 m 1,219,-1
 149 715 l 1,220,-1
 149 714 l 1,221,-1
 154 714 l 1,222,-1
 157 715 l 1,223,-1
 157 717 l 1,224,-1
 152 717 l 1,219,-1
173 824 m 1,225,-1
 169 820 l 1,226,-1
 169 819 l 1,227,-1
 174 819 l 1,228,-1
 175 823 l 1,229,-1
 174 824 l 1,230,-1
 173 824 l 1,225,-1
135 752 m 1,231,-1
 135 754 l 1,232,-1
 138 754 l 1,233,-1
 138 752 l 1,234,-1
 135 752 l 1,231,-1
EndSplineSet
EndChar

StartChar: parenright
Encoding: 41 41 12
Width: 329
GlyphClass: 2
Flags: W
LayerCount: 2
Fore
SplineSet
184 863 m 1,0,-1
 186 863 l 1,1,2
 210 842 210 842 229 789 c 1,3,4
 259 737 259 737 272 685 c 1,5,6
 285 641 285 641 297 516 c 1,7,8
 299 516 299 516 301 505 c 1,9,10
 298 499 298 499 293 497 c 1,11,-1
 292 499 l 1,12,-1
 292 510 l 2,13,14
 292 520 292 520 286 524 c 1,15,-1
 285 524 l 2,16,17
 283 524 283 524 283 520 c 2,18,-1
 282 495 l 1,19,-1
 283 463 l 1,20,21
 285 458 285 458 286 458 c 2,22,-1
 293 460 l 1,23,-1
 297 460 l 1,24,-1
 301 456 l 1,25,-1
 301 455 l 1,26,27
 292 446 292 446 286 427 c 1,28,-1
 286 425 l 2,29,30
 286 418 286 418 293 401 c 1,31,32
 282 362 282 362 272 362 c 1,33,-1
 258 373 l 1,34,35
 253 373 253 373 248 338 c 1,36,-1
 250 337 l 1,37,-1
 255 337 l 1,38,-1
 268 346 l 1,39,-1
 272 342 l 1,40,-1
 274 342 l 1,41,-1
 272 338 l 1,42,-1
 277 329 l 1,43,-1
 272 289 l 1,44,-1
 272 286 l 1,45,46
 274 283 274 283 283 280 c 1,47,-1
 283 273 l 1,48,49
 280 253 280 253 276 253 c 1,50,-1
 274 263 l 1,51,52
 260 263 260 263 226 184 c 1,53,-1
 229 184 l 1,54,55
 249 204 249 204 252 204 c 1,56,-1
 252 201 l 1,57,58
 239 164 239 164 202 99 c 0,59,60
 161 29 161 29 146 12 c 1,61,-1
 139 5 l 1,62,-1
 138 5 l 1,63,-1
 139 14 l 1,64,-1
 139 18 l 1,65,-1
 136 21 l 1,66,-1
 132 21 l 1,67,-1
 110 1 l 1,68,69
 99 -4 99 -4 99 -13 c 1,70,-1
 100 -13 l 1,71,-1
 107 -7 l 1,72,-1
 109 -7 l 1,73,-1
 110 -14 l 1,74,-1
 109 -23 l 1,75,-1
 111 -23 l 1,76,-1
 121 -14 l 1,77,-1
 124 -14 l 1,78,-1
 128 -19 l 1,79,-1
 128 -20 l 2,80,81
 128 -26 128 -26 109 -42 c 0,82,83
 106 -45 106 -45 106 -58 c 1,84,-1
 103 -61 l 1,85,-1
 100 -61 l 1,86,-1
 95 -56 l 1,87,-1
 95 -55 l 1,88,-1
 92 -55 l 1,89,90
 88 -59 88 -59 84 -59 c 1,91,92
 66 -38 66 -38 53 -26 c 1,93,94
 50 -11 50 -11 40 -11 c 1,95,-1
 35 -9 l 1,96,-1
 35 -7 l 1,97,-1
 45 -5 l 1,98,-1
 60 -9 l 1,99,-1
 63 -9 l 1,100,101
 92 -1 92 -1 92 14 c 1,102,-1
 90 16 l 1,103,-1
 70 8 l 1,104,-1
 68 9 l 1,105,-1
 68 11 l 2,106,107
 68 14 68 14 113 57 c 0,108,109
 132 76 132 76 154 131 c 1,110,111
 166 143 166 143 166 148 c 1,112,113
 178 200 178 200 184 203 c 1,114,115
 188 203 188 203 192 188 c 1,116,-1
 193 188 l 1,117,118
 223 262 223 262 223 303 c 1,119,-1
 225 340 l 1,120,-1
 223 340 l 2,121,122
 212 340 212 340 198 253 c 1,123,124
 194 211 194 211 186 211 c 2,125,-1
 185 211 l 1,126,-1
 184 214 l 1,127,-1
 196 305 l 1,128,129
 203 308 203 308 208 337 c 1,130,131
 217 356 217 356 217 374 c 1,132,-1
 214 421 l 2,133,134
 214 427 214 427 221 434 c 1,135,-1
 221 441 l 1,136,137
 228 459 228 459 229 485 c 1,138,139
 229 658 229 658 156 770 c 1,140,141
 140 786 140 786 135 802 c 1,142,143
 146 807 146 807 146 813 c 1,144,-1
 142 813 l 1,145,-1
 130 812 l 1,146,-1
 129 813 l 1,147,-1
 129 814 l 2,148,149
 129 827 129 827 160 851 c 1,150,151
 170 851 170 851 184 863 c 1,0,-1
188 850 m 1,152,-1
 184 850 l 1,153,-1
 184 846 l 1,154,155
 186 832 186 832 189 832 c 2,156,-1
 191 832 l 1,157,158
 196 834 196 834 196 841 c 2,159,-1
 196 842 l 1,160,-1
 188 850 l 1,152,-1
154 823 m 1,161,-1
 154 821 l 1,162,-1
 157 818 l 1,163,-1
 163 818 l 1,164,-1
 167 823 l 1,165,-1
 167 827 l 1,166,-1
 166 827 l 2,167,168
 155 827 155 827 154 823 c 1,161,-1
166 797 m 1,169,-1
 161 793 l 1,170,-1
 161 792 l 1,171,-1
 186 772 l 1,172,-1
 188 774 l 1,173,-1
 188 776 l 1,174,175
 183 784 183 784 183 790 c 1,176,-1
 184 792 l 1,177,-1
 185 792 l 1,178,179
 183 797 183 797 178 797 c 2,180,-1
 166 797 l 1,169,-1
188 764 m 1,181,-1
 185 767 l 1,182,-1
 184 765 l 1,183,-1
 184 762 l 1,184,-1
 186 760 l 1,185,-1
 188 760 l 1,186,-1
 188 764 l 1,181,-1
196 747 m 1,187,-1
 194 747 l 1,188,-1
 194 745 l 1,189,-1
 198 742 l 1,190,-1
 200 742 l 1,191,-1
 200 745 l 1,192,-1
 196 747 l 1,187,-1
211 697 m 1,193,-1
 208 697 l 1,194,195
 208 684 208 684 226 641 c 1,196,-1
 225 635 l 1,197,-1
 225 633 l 1,198,-1
 226 633 l 2,199,200
 237 633 237 633 241 629 c 1,201,-1
 245 629 l 2,202,203
 247 629 247 629 247 633 c 0,204,205
 247 643 247 643 211 697 c 1,193,-1
229 626 m 1,206,-1
 225 626 l 1,207,-1
 225 625 l 1,208,209
 242 563 242 563 242 557 c 2,210,-1
 241 530 l 1,211,-1
 243 530 l 1,212,213
 251 541 251 541 260 549 c 1,214,-1
 266 604 l 1,215,-1
 229 626 l 1,206,-1
254 505 m 1,216,-1
 251 505 l 1,217,-1
 251 500 l 1,218,-1
 254 500 l 1,219,-1
 254 505 l 1,216,-1
293 485 m 1,220,-1
 297 490 l 1,221,-1
 301 490 l 1,222,-1
 301 487 l 1,223,-1
 297 484 l 1,224,-1
 293 484 l 1,225,-1
 293 485 l 1,220,-1
293 470 m 1,226,-1
 293 472 l 1,227,-1
 295 472 l 1,228,-1
 297 470 l 1,229,-1
 297 468 l 1,230,-1
 295 468 l 1,231,-1
 293 470 l 1,226,-1
267 427 m 1,232,-1
 267 414 l 1,233,-1
 270 411 l 1,234,-1
 272 411 l 1,235,236
 275 423 275 423 275 441 c 1,237,-1
 274 443 l 1,238,-1
 272 443 l 2,239,240
 268 443 268 443 267 427 c 1,232,-1
238 424 m 1,241,-1
 241 424 l 1,242,243
 245 425 245 425 245 431 c 2,244,-1
 245 439 l 1,245,-1
 242 441 l 1,246,247
 238 441 238 441 238 424 c 1,241,-1
241 303 m 1,248,249
 243 286 243 286 247 286 c 2,250,-1
 248 286 l 2,251,252
 261 286 261 286 264 305 c 1,253,-1
 264 315 l 2,254,255
 264 322 264 322 258 324 c 1,256,-1
 252 320 l 1,257,-1
 251 327 l 1,258,-1
 250 327 l 1,259,260
 241 322 241 322 241 303 c 1,248,249
226 231 m 1,261,-1
 227 231 l 1,262,263
 241 249 241 249 250 273 c 1,264,-1
 248 274 l 1,265,-1
 247 274 l 2,266,267
 236 274 236 274 226 231 c 1,261,-1
262 229 m 1,268,-1
 265 231 l 1,269,-1
 267 229 l 1,270,-1
 266 225 l 1,271,-1
 262 225 l 1,272,-1
 262 229 l 1,268,-1
255 213 m 1,273,-1
 258 218 l 1,274,-1
 260 218 l 1,275,-1
 260 216 l 1,276,-1
 256 212 l 1,277,-1
 255 212 l 1,278,-1
 255 213 l 1,273,-1
186 128 m 1,279,-1
 191 128 l 1,280,281
 220 151 220 151 220 167 c 1,282,-1
 218 167 l 2,283,284
 212 167 212 167 191 137 c 0,285,286
 186 130 186 130 186 128 c 1,279,-1
150 70 m 1,287,-1
 142 49 l 1,288,-1
 146 49 l 1,289,290
 166 66 166 66 192 112 c 1,291,-1
 192 113 l 1,292,-1
 191 115 l 1,293,294
 176 106 176 106 150 70 c 1,287,-1
130 -9 m 1,295,-1
 132 -5 l 1,296,-1
 134 -7 l 1,297,-1
 134 -9 l 1,298,-1
 130 -11 l 1,299,-1
 130 -9 l 1,295,-1
80 -23 m 2,300,-1
 77 -23 l 1,301,-1
 74 -31 l 1,302,303
 74 -35 74 -35 81 -39 c 1,304,-1
 82 -39 l 2,305,306
 88 -39 88 -39 94 -30 c 1,307,-1
 94 -29 l 2,308,309
 94 -23 94 -23 80 -23 c 2,300,-1
EndSplineSet
EndChar

StartChar: asterisk
Encoding: 42 42 13
Width: 576
GlyphClass: 2
Flags: W
LayerCount: 2
Fore
SplineSet
271 638 m 1,0,-1
 276 638 l 1,1,-1
 276 635 l 1,2,3
 278 628 278 628 323 527 c 1,4,5
 332 510 332 510 342 473 c 1,6,-1
 344 472 l 1,7,-1
 376 472 l 1,8,9
 558 469 558 469 558 462 c 2,10,-1
 558 459 l 1,11,12
 548 448 548 448 538 427 c 1,13,14
 520 408 520 408 477 378 c 1,15,16
 422 329 422 329 422 326 c 2,17,-1
 422 324 l 1,18,19
 443 271 443 271 473 215 c 1,20,21
 473 204 473 204 506 157 c 1,22,23
 513 153 513 153 513 145 c 1,24,25
 506 139 506 139 501 139 c 1,26,27
 457 165 457 165 387 188 c 1,28,29
 307 211 307 211 286 211 c 0,30,31
 277 211 277 211 230 166 c 1,32,-1
 143 101 l 2,33,34
 138 97 138 97 130 97 c 1,35,36
 125 99 125 99 121 114 c 1,37,38
 121 125 121 125 135 155 c 1,39,40
 143 179 143 179 149 279 c 1,41,-1
 149 280 l 2,42,43
 149 292 149 292 128 302 c 1,44,45
 128 316 128 316 36 411 c 1,46,-1
 34 418 l 1,47,-1
 34 419 l 1,48,-1
 36 419 l 1,49,-1
 36 421 l 1,50,-1
 38 419 l 1,51,-1
 54 419 l 1,52,-1
 54 422 l 1,53,-1
 49 427 l 1,54,-1
 36 427 l 1,55,-1
 22 425 l 1,56,-1
 17 427 l 1,57,-1
 17 428 l 2,58,59
 17 431 17 431 30 435 c 1,60,-1
 30 437 l 1,61,-1
 26 444 l 1,62,63
 26 453 26 453 69 460 c 1,64,-1
 74 460 l 1,65,-1
 180 452 l 1,66,67
 194 479 194 479 236 589 c 1,68,69
 258 628 258 628 271 638 c 1,0,-1
259 576 m 2,70,-1
 259 572 l 1,71,-1
 261 570 l 1,72,73
 268 571 268 571 268 580 c 2,74,-1
 268 585 l 1,75,-1
 265 585 l 1,76,77
 259 582 259 582 259 576 c 2,70,-1
246 502 m 1,78,-1
 244 502 l 1,79,-1
 241 499 l 1,80,-1
 241 497 l 1,81,-1
 246 497 l 1,82,-1
 247 502 l 1,83,-1
 246 502 l 1,78,-1
317 467 m 1,84,-1
 315 465 l 1,85,-1
 315 457 l 1,86,-1
 316 457 l 1,87,-1
 319 460 l 1,88,-1
 319 467 l 1,89,-1
 317 467 l 1,84,-1
225 463 m 1,90,-1
 221 459 l 1,91,-1
 221 456 l 1,92,-1
 224 456 l 1,93,-1
 228 460 l 1,94,-1
 228 463 l 1,95,-1
 225 463 l 1,90,-1
283 452 m 1,96,97
 276 447 276 447 266 419 c 1,98,99
 257 414 257 414 250 391 c 1,100,-1
 251 391 l 2,101,102
 270 391 270 391 274 409 c 1,103,104
 284 423 284 423 288 441 c 1,105,-1
 293 446 l 1,106,-1
 293 447 l 2,107,108
 293 449 293 449 283 452 c 1,96,97
59 444 m 2,109,-1
 59 442 l 1,110,-1
 73 441 l 1,111,-1
 77 441 l 2,112,113
 94 441 94 441 94 445 c 2,114,-1
 94 446 l 2,115,116
 94 448 94 448 86 450 c 1,117,118
 59 448 59 448 59 444 c 2,109,-1
524 447 m 1,119,-1
 520 444 l 1,120,-1
 520 441 l 1,121,-1
 523 441 l 1,122,-1
 526 445 l 1,123,-1
 526 447 l 1,124,-1
 524 447 l 1,119,-1
391 437 m 1,125,-1
 387 435 l 1,126,-1
 391 435 l 1,127,-1
 391 437 l 1,125,-1
59 423 m 1,128,129
 65 414 65 414 71 411 c 1,130,-1
 75 411 l 1,131,-1
 75 418 l 2,132,133
 75 422 75 422 63 427 c 1,134,135
 59 427 59 427 59 423 c 1,128,129
391 394 m 1,136,137
 392 390 392 390 398 387 c 1,138,-1
 402 387 l 1,139,140
 428 397 428 397 437 409 c 1,141,-1
 437 413 l 1,142,-1
 433 417 l 1,143,-1
 422 417 l 1,144,145
 391 410 391 410 391 394 c 1,136,137
332 401 m 1,146,-1
 332 400 l 1,147,-1
 337 396 l 1,148,149
 355 399 355 399 355 403 c 2,150,-1
 355 406 l 1,151,-1
 348 407 l 1,152,-1
 341 407 l 2,153,154
 334 407 334 407 332 401 c 1,146,-1
229 291 m 1,155,-1
 221 267 l 1,156,-1
 222 265 l 1,157,-1
 224 265 l 1,158,159
 286 333 286 333 292 363 c 1,160,161
 301 380 301 380 301 393 c 2,162,-1
 301 394 l 1,163,164
 289 394 289 394 283 359 c 1,165,-1
 265 331 l 1,166,167
 252 302 252 302 229 291 c 1,155,-1
373 383 m 1,168,-1
 369 380 l 1,169,-1
 372 380 l 1,170,-1
 373 382 l 1,171,-1
 373 383 l 1,168,-1
247 361 m 1,172,-1
 247 359 l 1,173,174
 254 360 254 360 254 368 c 2,175,-1
 254 372 l 1,176,-1
 253 372 l 2,177,178
 249 372 249 372 247 361 c 1,172,-1
389 346 m 1,179,-1
 387 346 l 1,180,181
 376 332 376 332 376 329 c 1,182,-1
 377 329 l 1,183,184
 391 337 391 337 391 344 c 1,185,-1
 389 346 l 1,179,-1
221 336 m 2,186,-1
 215 336 l 1,187,-1
 215 331 l 1,188,189
 218 326 218 326 225 326 c 2,190,-1
 228 326 l 1,191,-1
 230 328 l 1,192,-1
 230 330 l 1,193,194
 228 336 228 336 221 336 c 2,186,-1
316 333 m 1,195,-1
 313 330 l 1,196,-1
 313 328 l 1,197,-1
 315 328 l 1,198,-1
 319 331 l 1,199,-1
 319 333 l 1,200,-1
 316 333 l 1,195,-1
297 283 m 1,201,-1
 300 283 l 1,202,203
 313 293 313 293 326 312 c 1,204,-1
 326 314 l 1,205,-1
 325 314 l 1,206,207
 297 293 297 293 297 283 c 1,201,-1
380 295 m 1,208,-1
 369 286 l 1,209,-1
 369 283 l 1,210,211
 383 283 383 283 387 290 c 1,212,-1
 387 295 l 1,213,-1
 380 295 l 1,208,-1
351 250 m 1,214,215
 352 246 352 246 360 246 c 2,216,-1
 364 246 l 1,217,218
 369 248 369 248 369 257 c 1,219,-1
 365 258 l 1,220,221
 351 255 351 255 351 250 c 1,214,215
241 246 m 1,222,-1
 239 243 l 1,223,-1
 239 240 l 1,224,-1
 240 240 l 1,225,-1
 243 243 l 1,226,-1
 243 246 l 1,227,-1
 241 246 l 1,222,-1
382 245 m 1,228,-1
 382 243 l 2,229,230
 382 239 382 239 389 236 c 1,231,-1
 395 236 l 1,232,-1
 395 237 l 1,233,234
 390 245 390 245 382 245 c 1,228,-1
337 238 m 2,235,-1
 335 238 l 1,236,-1
 335 237 l 2,237,238
 335 232 335 232 362 225 c 1,239,-1
 362 227 l 1,240,-1
 362 229 l 1,241,242
 344 238 344 238 337 238 c 2,235,-1
409 225 m 1,243,-1
 412 221 l 1,244,-1
 418 221 l 2,245,246
 425 221 425 221 426 225 c 1,247,-1
 423 229 l 1,248,-1
 417 229 l 1,249,250
 409 227 409 227 409 225 c 1,243,-1
419 196 m 1,251,-1
 419 195 l 2,252,253
 419 189 419 189 454 180 c 1,254,-1
 457 180 l 1,255,-1
 457 182 l 2,256,257
 457 187 457 187 419 196 c 1,251,-1
181 157 m 1,258,-1
 182 157 l 1,259,-1
 184 157 l 1,260,261
 194 160 194 160 195 164 c 1,262,-1
 195 166 l 1,263,-1
 193 166 l 1,264,265
 181 164 181 164 181 157 c 1,258,-1
EndSplineSet
EndChar

StartChar: plus
Encoding: 43 43 14
Width: 430
GlyphClass: 2
Flags: W
LayerCount: 2
Fore
SplineSet
270 164 m 1,0,-1
 269 158 l 1,1,2
 267 153 267 153 191 157 c 1,3,-1
 190 157 l 2,4,5
 180 157 180 157 185 247 c 1,6,7
 157 243 157 243 139 243 c 1,8,-1
 139 246 l 2,9,10
 139 251 139 251 186 259 c 1,11,-1
 186 260 l 1,12,13
 185 263 185 263 185 272 c 1,14,15
 131 262 131 262 131 246 c 1,16,-1
 124 242 l 1,17,18
 89 242 89 242 89 312 c 0,19,20
 89 331 89 331 167 340 c 0,21,22
 167 341 167 341 178 343 c 1,23,-1
 181 342 l 1,24,25
 179 392 179 392 182 409 c 1,26,-1
 184 409 l 1,27,28
 192 407 192 407 192 340 c 1,29,-1
 198 339 l 1,30,-1
 203 339 l 1,31,32
 205 413 205 413 185 416 c 1,33,-1
 182 424 l 1,34,35
 186 458 186 458 256 448 c 0,36,37
 276 446 276 446 274 367 c 1,38,39
 275 367 275 367 275 357 c 1,40,-1
 272 348 l 1,41,-1
 371 363 l 1,42,-1
 376 363 l 2,43,44
 383 363 383 363 387 284 c 1,45,-1
 388 284 l 1,46,47
 388 274 388 274 286 267 c 1,48,-1
 268 264 l 1,49,-1
 270 164 l 1,0,-1
280 283 m 1,50,-1
 280 281 l 1,51,-1
 281 281 l 1,52,53
 371 284 371 284 371 290 c 2,54,-1
 371 291 l 1,55,56
 370 293 370 293 364 297 c 1,57,-1
 363 297 l 2,58,59
 331 297 331 297 280 283 c 1,50,-1
198 173 m 1,60,-1
 199 173 l 2,61,62
 201 173 201 173 206 178 c 1,63,-1
 206 179 l 1,64,65
 210 208 210 208 203 251 c 1,66,67
 202 250 202 250 200 250 c 1,68,69
 193 175 193 175 198 173 c 1,60,-1
229 229 m 1,70,-1
 226 207 l 1,71,72
 223 175 223 175 230 171 c 1,73,-1
 233 171 l 1,74,-1
 235 175 l 1,75,76
 234 229 234 229 229 229 c 1,70,-1
311 314 m 1,77,-1
 333 314 l 1,78,79
 365 316 365 316 368 322 c 1,80,-1
 368 325 l 1,81,-1
 363 326 l 1,82,83
 311 319 311 319 311 314 c 1,77,-1
257 428 m 1,84,-1
 254 433 l 1,85,-1
 242 434 l 1,86,-1
 239 432 l 1,87,-1
 239 430 l 1,88,89
 238 427 238 427 250 424 c 2,90,-1
 255 423 l 1,91,-1
 257 426 l 1,92,-1
 257 428 l 1,84,-1
110 316 m 1,93,-1
 106 312 l 1,94,-1
 106 300 l 1,95,-1
 109 297 l 1,96,-1
 110 297 l 2,97,98
 113 297 113 297 114 310 c 1,99,-1
 114 314 l 1,100,-1
 112 316 l 1,101,-1
 110 316 l 1,93,-1
250 237 m 1,102,-1
 249 225 l 1,103,104
 247 214 247 214 253 213 c 1,105,-1
 254 212 l 1,106,-1
 254 215 l 1,107,108
 255 237 255 237 250 237 c 1,102,-1
301 334 m 1,109,-1
 312 334 l 2,110,111
 322 334 322 334 324 339 c 1,112,-1
 324 340 l 1,113,-1
 321 340 l 1,114,115
 301 337 301 337 301 334 c 1,109,-1
351 346 m 1,116,-1
 344 345 l 1,117,-1
 344 343 l 1,118,-1
 353 343 l 1,119,-1
 359 344 l 1,120,-1
 359 346 l 1,121,-1
 351 346 l 1,116,-1
256 185 m 1,122,-1
 256 193 l 1,123,-1
 254 193 l 1,124,-1
 253 184 l 1,125,-1
 253 177 l 1,126,-1
 256 177 l 1,127,-1
 256 185 l 1,122,-1
254 398 m 1,128,-1
 250 402 l 1,129,-1
 249 402 l 1,130,-1
 248 398 l 1,131,-1
 250 394 l 1,132,-1
 254 394 l 1,133,-1
 254 398 l 1,128,-1
139 316 m 1,134,-1
 136 312 l 1,135,-1
 136 311 l 1,136,-1
 141 311 l 1,137,-1
 144 314 l 1,138,-1
 144 316 l 1,139,-1
 139 316 l 1,134,-1
230 433 m 1,140,-1
 229 436 l 1,141,-1
 226 436 l 1,142,-1
 225 434 l 1,143,-1
 228 430 l 1,144,-1
 230 430 l 1,145,-1
 230 433 l 1,140,-1
109 289 m 1,146,-1
 106 286 l 1,147,-1
 106 283 l 1,148,-1
 109 283 l 1,149,-1
 111 286 l 1,150,-1
 111 289 l 1,151,-1
 109 289 l 1,146,-1
203 318 m 1,152,-1
 200 316 l 1,153,-1
 200 312 l 1,154,-1
 203 312 l 1,155,-1
 203 318 l 1,152,-1
230 247 m 1,156,-1
 230 250 l 1,157,-1
 229 250 l 1,158,-1
 228 246 l 1,159,-1
 230 247 l 1,156,-1
292 312 m 1,160,-1
 290 312 l 1,161,-1
 290 310 l 1,162,-1
 295 310 l 1,163,-1
 292 312 l 1,160,-1
247 325 m 1,164,-1
 247 322 l 1,165,-1
 248 322 l 1,166,167
 247 323 247 323 247 326 c 2,168,-1
 247 325 l 1,164,-1
202 264 m 1,169,-1
 201 265 l 1,170,-1
 201 263 l 2,171,172
 201 262 201 262 200 261 c 1,173,-1
 202 261 l 1,174,-1
 202 264 l 1,169,-1
250 279 m 1,175,-1
 249 279 l 1,176,-1
 250 278 l 1,177,-1
 250 279 l 1,175,-1
EndSplineSet
EndChar

StartChar: comma
Encoding: 44 44 15
Width: 204
GlyphClass: 2
Flags: W
LayerCount: 2
Fore
SplineSet
77 165 m 0,0,1
 96 165 96 165 139 141 c 1,2,-1
 139 139 l 1,3,4
 122 136 122 136 122 133 c 1,5,6
 143 106 143 106 148 106 c 1,7,-1
 158 110 l 1,8,9
 162 110 162 110 165 103 c 1,10,-1
 161 91 l 1,11,12
 166 79 166 79 166 76 c 0,13,14
 166 36 166 36 148 23 c 1,15,16
 148 21 148 21 153 21 c 1,17,-1
 153 19 l 2,18,19
 153 16 153 16 142 13 c 1,20,-1
 142 7 l 1,21,-1
 157 5 l 1,22,23
 150 -15 150 -15 131 -41 c 1,24,25
 103 -75 103 -75 92 -75 c 1,26,-1
 85 -67 l 1,27,28
 79 -70 79 -70 74 -70 c 1,29,-1
 73 -67 l 1,30,31
 82 -47 82 -47 98 -47 c 1,32,-1
 99 -45 l 1,33,34
 99 -41 99 -41 85 -38 c 1,35,-1
 85 -35 l 1,36,37
 94 7 94 7 94 22 c 2,38,-1
 94 25 l 2,39,40
 94 27 94 27 66 31 c 1,41,42
 38 53 38 53 38 89 c 2,43,-1
 38 98 l 2,44,45
 38 145 38 145 67 145 c 1,46,47
 79 150 79 150 79 152 c 1,48,-1
 77 155 l 1,49,-1
 63 155 l 1,50,-1
 60 157 l 1,51,-1
 60 158 l 1,52,53
 66 165 66 165 77 165 c 0,0,1
92 146 m 1,54,-1
 89 143 l 1,55,-1
 89 142 l 1,56,-1
 103 142 l 1,57,-1
 103 146 l 1,58,-1
 92 146 l 1,54,-1
67 114 m 1,59,-1
 66 104 l 1,60,-1
 66 102 l 1,61,62
 74 102 74 102 104 123 c 1,63,-1
 104 124 l 1,64,-1
 98 126 l 1,65,66
 67 126 67 126 67 114 c 1,59,-1
77 79 m 2,67,-1
 77 76 l 1,68,-1
 79 74 l 1,69,-1
 87 81 l 1,70,-1
 95 81 l 1,71,-1
 97 88 l 1,72,-1
 97 93 l 1,73,-1
 93 96 l 1,74,-1
 92 96 l 1,75,76
 77 94 77 94 77 79 c 2,67,-1
EndSplineSet
EndChar

StartChar: hyphen
Encoding: 45 45 16
Width: 359
GlyphClass: 2
Flags: W
LayerCount: 2
Fore
SplineSet
316 354 m 1,0,-1
 321 354 l 2,1,2
 327 354 327 354 333 275 c 1,3,-1
 334 275 l 1,4,5
 334 264 334 264 232 257 c 1,6,7
 114 234 114 234 85 234 c 1,8,-1
 85 236 l 2,9,10
 85 244 85 244 168 255 c 1,11,12
 205 264 205 264 205 268 c 2,13,-1
 205 269 l 1,14,-1
 195 269 l 1,15,16
 77 262 77 262 77 236 c 1,17,-1
 69 232 l 1,18,19
 35 232 35 232 35 303 c 0,20,21
 35 322 35 322 113 330 c 1,22,23
 113 333 113 333 123 333 c 1,24,-1
 143 329 l 1,25,-1
 153 329 l 1,26,-1
 316 354 l 1,0,-1
296 337 m 1,27,-1
 290 336 l 1,28,-1
 290 333 l 1,29,-1
 299 333 l 1,30,-1
 304 335 l 1,31,-1
 304 337 l 1,32,-1
 296 337 l 1,27,-1
246 325 m 1,33,-1
 258 325 l 2,34,35
 268 325 268 325 269 329 c 1,36,-1
 269 330 l 1,37,-1
 267 330 l 1,38,39
 246 328 246 328 246 325 c 1,33,-1
193 315 m 2,40,-1
 193 313 l 1,41,42
 204 313 204 313 205 319 c 1,43,-1
 200 319 l 2,44,45
 193 319 193 319 193 315 c 2,40,-1
257 304 m 1,46,-1
 279 304 l 1,47,48
 311 306 311 306 314 313 c 1,49,-1
 314 315 l 1,50,-1
 309 317 l 1,51,52
 257 310 257 310 257 304 c 1,46,-1
145 307 m 1,53,-1
 145 303 l 1,54,-1
 146 303 l 2,55,56
 167 303 167 303 178 311 c 1,57,-1
 178 313 l 1,58,-1
 176 313 l 2,59,60
 164 313 164 313 145 307 c 1,53,-1
56 307 m 1,61,-1
 52 303 l 1,62,-1
 52 290 l 1,63,-1
 54 288 l 1,64,-1
 56 288 l 2,65,66
 59 288 59 288 60 301 c 1,67,-1
 60 304 l 1,68,-1
 58 307 l 1,69,-1
 56 307 l 1,61,-1
85 307 m 1,70,-1
 82 303 l 1,71,-1
 82 301 l 1,72,-1
 87 301 l 1,73,-1
 89 304 l 1,74,-1
 89 307 l 1,75,-1
 85 307 l 1,70,-1
238 303 m 1,76,-1
 236 303 l 1,77,-1
 236 301 l 1,78,-1
 240 301 l 1,79,-1
 238 303 l 1,76,-1
225 273 m 1,80,-1
 225 272 l 1,81,-1
 227 272 l 1,82,83
 316 275 316 275 316 280 c 2,84,-1
 316 282 l 1,85,86
 314 285 314 285 310 288 c 1,87,-1
 309 288 l 2,88,89
 274 288 274 288 225 273 c 1,80,-1
54 279 m 1,90,-1
 52 276 l 1,91,-1
 52 274 l 1,92,-1
 54 274 l 1,93,-1
 57 276 l 1,94,-1
 57 279 l 1,95,-1
 54 279 l 1,90,-1
EndSplineSet
EndChar

StartChar: period
Encoding: 46 46 17
Width: 204
GlyphClass: 2
Flags: W
LayerCount: 2
Fore
SplineSet
108 139 m 1,0,1
 139 135 139 135 151 124 c 1,2,3
 155 116 155 116 155 106 c 2,4,-1
 155 92 l 2,5,6
 155 51 155 51 108 13 c 1,7,-1
 95 9 l 1,8,9
 76 9 76 9 56 66 c 1,10,-1
 56 70 l 2,11,12
 56 114 56 114 69 124 c 1,13,14
 98 139 98 139 108 139 c 1,0,1
76 95 m 0,15,16
 78 69 78 69 83 69 c 1,17,18
 85 71 85 71 92 104 c 1,19,-1
 95 111 l 1,20,-1
 95 114 l 1,21,-1
 94 114 l 1,22,23
 76 108 76 108 76 95 c 0,15,16
103 89 m 2,24,-1
 103 87 l 2,25,26
 103 77 103 77 107 76 c 1,27,-1
 108 76 l 2,28,29
 112 76 112 76 120 97 c 1,30,-1
 120 103 l 1,31,-1
 117 104 l 1,32,-1
 114 104 l 2,33,34
 103 104 103 104 103 89 c 2,24,-1
132 76 m 1,35,-1
 133 74 l 1,36,-1
 138 74 l 1,37,-1
 139 81 l 1,38,-1
 139 84 l 1,39,-1
 138 84 l 2,40,41
 135 84 135 84 132 76 c 1,35,-1
118 56 m 1,42,-1
 81 52 l 1,43,44
 81 44 81 44 87 43 c 1,45,-1
 98 43 l 2,46,47
 110 43 110 43 118 54 c 1,48,-1
 118 56 l 1,42,-1
EndSplineSet
EndChar

StartChar: slash
Encoding: 47 47 18
Width: 454
GlyphClass: 2
Flags: W
LayerCount: 2
Fore
SplineSet
402 751 m 1,0,1
 427 747 427 747 427 739 c 1,2,3
 441 734 441 734 441 730 c 1,4,5
 429 713 429 713 429 710 c 1,6,-1
 435 701 l 1,7,-1
 435 700 l 2,8,9
 435 695 435 695 424 678 c 1,10,11
 394 599 394 599 268 373 c 1,12,13
 223 276 223 276 207 251 c 1,14,15
 151 155 151 155 112 55 c 1,16,-1
 92 23 l 1,17,-1
 103 7 l 1,18,19
 103 2 103 2 90 -5 c 1,20,-1
 87 -5 l 2,21,22
 71 -5 71 -5 40 26 c 1,23,24
 20 34 20 34 20 45 c 1,25,-1
 22 55 l 1,26,27
 48 128 48 128 72 174 c 1,28,29
 83 212 83 212 94 212 c 2,30,-1
 99 212 l 1,31,-1
 99 214 l 2,32,33
 99 217 99 217 88 219 c 1,34,-1
 88 220 l 1,35,-1
 128 310 l 1,36,37
 140 326 140 326 140 337 c 1,38,39
 163 356 163 356 171 381 c 1,40,-1
 169 392 l 1,41,42
 175 405 175 405 188 416 c 1,43,-1
 298 637 l 1,44,45
 338 758 338 758 371 758 c 0,46,47
 391 758 391 758 402 751 c 1,0,1
352 730 m 1,48,-1
 348 733 l 1,49,50
 342 733 342 733 333 693 c 1,51,-1
 333 691 l 1,52,-1
 334 691 l 1,53,54
 342 696 342 696 352 726 c 1,55,-1
 352 730 l 1,48,-1
380 689 m 2,56,-1
 380 688 l 1,57,-1
 381 688 l 1,58,59
 390 692 390 692 390 703 c 2,60,-1
 390 704 l 1,61,62
 380 697 380 697 380 689 c 2,56,-1
355 580 m 1,63,-1
 355 577 l 1,64,-1
 361 577 l 1,65,-1
 364 581 l 1,66,-1
 364 587 l 1,67,68
 358 587 358 587 355 580 c 1,63,-1
275 499 m 1,69,-1
 274 499 l 2,70,71
 268 499 268 499 255 463 c 1,72,-1
 255 462 l 1,73,-1
 256 461 l 1,74,75
 267 471 267 471 275 496 c 1,76,-1
 275 499 l 1,69,-1
191 310 m 1,77,78
 196 310 196 310 198 315 c 1,79,80
 193 315 193 315 191 310 c 1,77,78
154 305 m 1,81,-1
 153 305 l 1,82,-1
 152 307 l 1,83,-1
 146 303 l 1,84,-1
 121 255 l 1,85,86
 99 233 99 233 99 225 c 2,87,-1
 99 221 l 2,88,89
 99 218 99 218 105 216 c 1,90,91
 121 229 121 229 154 305 c 1,81,-1
188 300 m 1,92,-1
 187 300 l 1,93,94
 175 285 175 285 175 276 c 2,95,-1
 175 275 l 1,96,-1
 178 275 l 2,97,98
 182 275 182 275 188 300 c 1,92,-1
149 221 m 1,99,-1
 147 224 l 1,100,101
 138 219 138 219 128 184 c 1,102,-1
 130 181 l 1,103,-1
 131 181 l 1,104,105
 139 189 139 189 149 216 c 1,106,-1
 149 221 l 1,99,-1
72 134 m 1,107,-1
 70 137 l 1,108,109
 65 137 65 137 62 121 c 1,110,-1
 65 119 l 1,111,-1
 67 119 l 1,112,113
 72 124 72 124 72 130 c 2,114,-1
 72 134 l 1,107,-1
113 113 m 1,115,-1
 112 113 l 1,116,117
 106 107 106 107 96 75 c 1,118,-1
 99 73 l 1,119,120
 113 89 113 89 113 110 c 2,121,-1
 113 113 l 1,115,-1
72 100 m 1,122,-1
 72 99 l 1,123,-1
 75 99 l 1,124,125
 80 102 80 102 81 106 c 1,126,-1
 80 108 l 1,127,128
 77 107 77 107 72 100 c 1,122,-1
58 108 m 1,129,-1
 55 108 l 1,130,-1
 53 102 l 1,131,-1
 53 100 l 1,132,-1
 56 100 l 1,133,-1
 58 103 l 1,134,-1
 58 108 l 1,129,-1
49 58 m 1,135,-1
 46 59 l 1,136,137
 38 59 38 59 34 49 c 1,138,139
 34 43 34 43 38 42 c 1,140,-1
 40 42 l 2,141,142
 49 42 49 42 49 52 c 2,143,-1
 49 58 l 1,135,-1
97 11 m 1,144,-1
 94 14 l 1,145,-1
 88 14 l 1,146,-1
 86 13 l 1,147,-1
 86 9 l 1,148,-1
 92 8 l 1,149,-1
 95 8 l 1,150,-1
 97 11 l 1,144,-1
EndSplineSet
EndChar

StartChar: zero
Encoding: 48 48 19
Width: 578
GlyphClass: 2
Flags: W
LayerCount: 2
Fore
SplineSet
308 683 m 0,0,1
 377 683 377 683 437 638 c 1,2,-1
 492 556 l 1,3,4
 508 535 508 535 521 499 c 1,5,6
 537 475 537 475 550 404 c 1,7,-1
 552 379 l 1,8,9
 552 356 552 356 543 327 c 1,10,-1
 543 320 l 2,11,12
 543 308 543 308 552 308 c 1,13,-1
 550 270 l 1,14,-1
 550 225 l 2,15,16
 550 195 550 195 521 106 c 1,17,18
 513 88 513 88 493 78 c 1,19,20
 475 60 475 60 380 13 c 1,21,22
 339 -16 339 -16 301 -16 c 2,23,-1
 300 -16 l 1,24,25
 195 -7 195 -7 195 1 c 1,26,27
 165 12 165 12 127 55 c 1,28,-1
 127 58 l 1,29,-1
 130 61 l 1,30,-1
 133 61 l 1,31,-1
 137 58 l 1,32,-1
 140 58 l 1,33,-1
 140 61 l 1,34,35
 138 72 138 72 130 72 c 2,36,-1
 124 72 l 1,37,-1
 123 67 l 1,38,39
 110 71 110 71 92 113 c 1,40,41
 85 120 85 120 81 135 c 1,42,43
 51 168 51 168 38 351 c 1,44,-1
 38 355 l 1,45,46
 45 452 45 452 51 452 c 1,47,48
 52 490 52 490 81 563 c 1,49,50
 94 576 94 576 105 603 c 1,51,52
 176 683 176 683 308 683 c 0,0,1
311 673 m 2,53,-1
 290 673 l 1,54,-1
 290 671 l 2,55,56
 290 666 290 666 316 661 c 1,57,-1
 331 661 l 1,58,-1
 331 666 l 1,59,60
 327 673 327 673 311 673 c 2,53,-1
357 666 m 1,61,-1
 355 663 l 1,62,-1
 369 660 l 1,63,-1
 373 660 l 1,64,-1
 376 661 l 1,65,66
 376 666 376 666 360 666 c 2,67,-1
 357 666 l 1,61,-1
398 652 m 2,68,-1
 397 652 l 1,69,-1
 397 651 l 1,70,71
 423 618 423 618 442 614 c 1,72,-1
 443 614 l 1,73,-1
 443 616 l 1,74,75
 416 652 416 652 398 652 c 2,68,-1
379 644 m 1,76,-1
 376 642 l 1,77,78
 383 632 383 632 391 632 c 2,79,-1
 398 632 l 1,80,-1
 398 634 l 2,81,82
 398 640 398 640 382 644 c 1,83,-1
 379 644 l 1,76,-1
333 643 m 1,84,-1
 319 643 l 1,85,-1
 319 642 l 1,86,87
 330 634 330 634 358 631 c 1,88,-1
 360 632 l 1,89,-1
 360 634 l 2,90,91
 360 638 360 638 333 643 c 1,84,-1
104 379 m 1,92,93
 106 354 106 354 110 347 c 1,94,-1
 106 332 l 1,95,-1
 106 326 l 1,96,-1
 128 212 l 1,97,98
 150 148 150 148 185 110 c 1,99,100
 240 74 240 74 271 74 c 0,101,102
 315 74 315 74 387 103 c 1,103,104
 476 157 476 157 476 196 c 1,105,106
 492 250 492 250 502 330 c 1,107,-1
 502 381 l 2,108,109
 502 455 502 455 463 509 c 1,110,111
 463 518 463 518 404 571 c 1,112,113
 365 619 365 619 335 619 c 1,114,-1
 292 629 l 1,115,-1
 283 629 l 2,116,117
 226 629 226 629 195 581 c 1,118,119
 174 564 174 564 157 537 c 1,120,121
 147 537 147 537 115 481 c 1,122,123
 104 445 104 445 104 379 c 1,92,93
140 596 m 1,124,-1
 140 592 l 1,125,126
 145 592 145 592 157 609 c 1,127,-1
 157 614 l 1,128,-1
 156 614 l 2,129,130
 150 614 150 614 140 596 c 1,124,-1
118 580 m 1,131,-1
 121 580 l 1,132,-1
 125 584 l 1,133,-1
 125 586 l 1,134,135
 118 586 118 586 118 580 c 1,131,-1
145 551 m 1,136,-1
 149 551 l 1,137,138
 158 556 158 556 160 562 c 1,139,-1
 160 565 l 1,140,-1
 152 565 l 1,141,142
 145 561 145 561 145 551 c 1,136,-1
477 553 m 1,143,144
 477 534 477 534 501 485 c 1,145,146
 505 484 505 484 523 439 c 1,147,148
 523 434 523 434 526 434 c 1,149,-1
 530 437 l 1,150,-1
 530 441 l 1,151,152
 524 466 524 466 492 538 c 1,153,154
 482 553 482 553 477 553 c 1,143,144
528 411 m 1,155,-1
 526 411 l 1,156,-1
 526 409 l 1,157,-1
 533 391 l 1,158,159
 533 386 533 386 524 369 c 1,160,-1
 524 367 l 2,161,162
 524 359 524 359 531 355 c 1,163,-1
 534 355 l 2,164,165
 537 355 537 355 542 384 c 1,166,167
 534 405 534 405 528 411 c 1,155,-1
59 408 m 1,168,-1
 55 404 l 1,169,-1
 55 401 l 1,170,-1
 59 398 l 1,171,-1
 63 400 l 1,172,-1
 63 405 l 1,173,-1
 59 408 l 1,168,-1
59 380 m 1,174,-1
 56 380 l 1,175,-1
 54 364 l 1,176,-1
 54 354 l 1,177,178
 59 354 59 354 59 377 c 2,179,-1
 59 380 l 1,174,-1
85 338 m 1,180,-1
 81 338 l 1,181,-1
 80 329 l 1,182,183
 80 281 80 281 106 200 c 1,184,-1
 121 181 l 1,185,-1
 123 181 l 1,186,-1
 123 182 l 1,187,188
 115 206 115 206 98 298 c 1,189,190
 92 304 92 304 85 338 c 1,180,-1
76 198 m 1,191,-1
 74 198 l 1,192,-1
 74 194 l 1,193,-1
 76 194 l 1,194,-1
 76 198 l 1,191,-1
496 115 m 1,195,-1
 496 113 l 1,196,-1
 499 113 l 2,197,198
 511 113 511 113 526 166 c 1,199,-1
 526 167 l 1,200,-1
 524 171 l 1,201,202
 517 171 517 171 496 115 c 1,195,-1
86 137 m 1,203,-1
 86 134 l 1,204,205
 95 131 95 131 112 100 c 1,206,-1
 121 94 l 1,207,-1
 127 94 l 1,208,-1
 127 95 l 1,209,210
 108 137 108 137 96 144 c 1,211,-1
 95 144 l 1,212,213
 90 143 90 143 86 137 c 1,203,-1
216 68 m 1,214,-1
 166 96 l 1,215,-1
 166 94 l 1,216,217
 196 49 196 49 241 49 c 1,218,219
 253 50 253 50 253 53 c 1,220,221
 251 56 251 56 216 68 c 1,214,-1
133 92 m 1,222,-1
 127 92 l 1,223,-1
 125 88 l 1,224,225
 126 84 126 84 133 84 c 2,226,-1
 135 84 l 1,227,-1
 137 86 l 1,228,-1
 137 88 l 1,229,-1
 133 92 l 1,222,-1
254 47 m 1,230,-1
 253 46 l 1,231,232
 253 40 253 40 271 37 c 1,233,-1
 279 37 l 1,234,235
 290 39 290 39 290 47 c 1,236,-1
 300 47 l 2,237,238
 321 47 321 47 387 71 c 1,239,-1
 387 72 l 1,240,-1
 385 74 l 1,241,-1
 377 74 l 1,242,-1
 335 63 l 1,243,244
 308 63 308 63 254 47 c 1,230,-1
301 23 m 1,245,-1
 301 22 l 1,246,-1
 303 20 l 1,247,-1
 319 20 l 1,248,249
 367 30 367 30 367 36 c 1,250,251
 384 40 384 40 389 49 c 1,252,-1
 389 52 l 1,253,-1
 387 52 l 1,254,255
 329 39 329 39 301 23 c 1,245,-1
149 46 m 2,256,-1
 148 46 l 1,257,258
 148 37 148 37 166 31 c 1,259,-1
 167 31 l 1,260,261
 156 46 156 46 149 46 c 2,256,-1
230 28 m 1,262,-1
 230 23 l 1,263,264
 266 6 266 6 275 6 c 2,265,-1
 283 6 l 1,266,-1
 283 12 l 1,267,268
 252 28 252 28 230 28 c 1,262,-1
EndSplineSet
EndChar

StartChar: one
Encoding: 49 49 20
Width: 409
GlyphClass: 2
Flags: W
LayerCount: 2
Fore
SplineSet
172 758 m 0,0,1
 229 752 229 752 229 741 c 0,2,3
 229 731 229 731 236 731 c 1,4,-1
 239 728 l 1,5,-1
 228 719 l 1,6,-1
 228 715 l 1,7,-1
 231 715 l 1,8,9
 236 721 236 721 239 721 c 0,10,11
 244 721 244 721 244 709 c 2,12,-1
 253 435 l 1,13,14
 243 392 243 392 243 265 c 2,15,-1
 243 261 l 2,16,17
 243 184 243 184 247 161 c 1,18,19
 239 158 239 158 239 148 c 0,20,21
 239 135 239 135 244 135 c 2,22,-1
 247 135 l 1,23,-1
 247 142 l 1,24,-1
 249 142 l 2,25,26
 254 142 254 142 259 95 c 1,27,-1
 257 94 l 1,28,-1
 253 94 l 1,29,30
 245 103 245 103 239 103 c 1,31,-1
 239 101 l 1,32,-1
 239 97 l 2,33,34
 239 82 239 82 265 82 c 1,35,36
 414 90 414 90 414 81 c 2,37,-1
 414 80 l 2,38,39
 414 78 414 78 399 73 c 1,40,-1
 398 71 l 1,41,-1
 398 70 l 1,42,43
 400 68 400 68 416 63 c 1,44,45
 420 59 420 59 420 52 c 1,46,47
 410 -3 410 -3 396 -3 c 1,48,-1
 377 -5 l 1,49,-1
 325 1 l 1,50,-1
 293 -1 l 1,51,52
 25 -5 25 -5 25 5 c 1,53,54
 17 16 17 16 17 21 c 2,55,-1
 17 22 l 1,56,-1
 27 56 l 1,57,-1
 23 63 l 1,58,59
 23 78 23 78 44 83 c 2,60,-1
 56 86 l 1,61,-1
 150 89 l 2,62,63
 162 89 162 89 164 104 c 1,64,-1
 164 114 l 2,65,66
 164 196 164 196 158 252 c 1,67,68
 167 548 167 548 177 548 c 1,69,-1
 178 561 l 1,70,71
 174 646 174 646 164 646 c 1,72,73
 120 617 120 617 105 589 c 1,74,-1
 99 586 l 1,75,76
 42 607 42 607 26 626 c 1,77,78
 24 626 24 626 22 640 c 1,79,-1
 24 643 l 1,80,-1
 31 642 l 1,81,-1
 38 642 l 2,82,83
 58 642 58 642 124 711 c 1,84,85
 144 729 144 729 156 752 c 1,86,87
 166 758 166 758 172 758 c 0,0,1
184 724 m 2,88,-1
 184 723 l 1,89,-1
 185 721 l 1,90,-1
 187 721 l 2,91,92
 196 721 196 721 197 724 c 1,93,-1
 197 725 l 1,94,-1
 194 728 l 1,95,-1
 191 728 l 1,96,97
 184 727 184 727 184 724 c 2,88,-1
154 724 m 1,98,-1
 150 721 l 1,99,-1
 153 718 l 1,100,-1
 156 718 l 1,101,-1
 162 719 l 1,102,-1
 162 722 l 1,103,-1
 159 724 l 1,104,-1
 154 724 l 1,98,-1
231 703 m 1,105,-1
 229 700 l 1,106,-1
 229 697 l 1,107,-1
 231 696 l 1,108,-1
 234 697 l 1,109,-1
 234 700 l 1,110,-1
 231 703 l 1,105,-1
83 620 m 1,111,-1
 83 617 l 1,112,-1
 84 617 l 2,113,114
 99 617 99 617 115 636 c 1,115,116
 169 686 169 686 169 697 c 1,117,-1
 166 697 l 1,118,119
 110 650 110 650 83 620 c 1,111,-1
204 669 m 2,120,-1
 204 668 l 1,121,-1
 209 664 l 1,122,-1
 212 665 l 1,123,-1
 212 675 l 1,124,-1
 211 677 l 1,125,-1
 211 678 l 1,126,127
 204 677 204 677 204 669 c 2,120,-1
200 669 m 1,128,-1
 196 669 l 1,129,-1
 189 652 l 1,130,-1
 189 647 l 1,131,-1
 193 643 l 1,132,-1
 199 643 l 2,133,134
 205 643 205 643 206 647 c 1,135,-1
 206 650 l 2,136,137
 206 653 206 653 196 657 c 1,138,-1
 194 657 l 1,139,-1
 194 661 l 1,140,141
 200 666 200 666 200 669 c 1,128,-1
63 634 m 1,142,-1
 63 632 l 1,143,-1
 67 632 l 2,144,145
 78 632 78 632 86 647 c 1,146,-1
 85 649 l 1,147,-1
 84 649 l 1,148,149
 70 643 70 643 63 634 c 1,142,-1
211 598 m 1,150,-1
 214 529 l 1,151,-1
 216 529 l 1,152,153
 222 546 222 546 222 578 c 2,154,-1
 222 607 l 2,155,156
 222 640 222 640 218 640 c 0,157,158
 212 640 212 640 211 598 c 1,150,-1
211 447 m 2,159,-1
 211 436 l 1,160,-1
 214 417 l 1,161,-1
 216 417 l 2,162,163
 224 417 224 417 224 475 c 2,164,-1
 224 481 l 1,165,-1
 221 484 l 1,166,167
 211 480 211 480 211 447 c 2,159,-1
182 264 m 1,168,-1
 179 264 l 1,169,-1
 179 259 l 1,170,-1
 182 259 l 1,171,-1
 182 264 l 1,168,-1
214 184 m 1,172,-1
 214 183 l 1,173,-1
 214 176 l 1,174,-1
 218 173 l 1,175,-1
 220 173 l 1,176,-1
 222 175 l 1,177,-1
 222 178 l 1,178,179
 220 178 220 178 214 184 c 1,172,-1
221 153 m 2,180,-1
 220 153 l 1,181,182
 214 136 214 136 214 111 c 2,183,-1
 214 103 l 2,184,185
 214 91 214 91 224 87 c 1,186,-1
 226 87 l 2,187,188
 229 87 229 87 229 93 c 0,189,190
 228 153 228 153 221 153 c 2,180,-1
179 128 m 1,191,-1
 175 122 l 1,192,-1
 177 118 l 1,193,-1
 178 118 l 1,194,-1
 182 122 l 1,195,-1
 182 124 l 1,196,-1
 179 128 l 1,191,-1
196 111 m 1,197,-1
 193 108 l 1,198,-1
 193 101 l 1,199,-1
 196 98 l 1,200,-1
 199 98 l 1,201,-1
 199 108 l 1,202,-1
 196 111 l 1,197,-1
69 76 m 1,203,-1
 60 76 l 1,204,-1
 60 74 l 1,205,-1
 64 70 l 1,206,-1
 66 70 l 1,207,-1
 69 74 l 1,208,-1
 69 76 l 1,203,-1
67 52 m 1,209,-1
 39 49 l 1,210,-1
 39 45 l 1,211,-1
 42 41 l 1,212,-1
 44 41 l 2,213,214
 54 41 54 41 67 52 c 1,209,-1
261 56 m 1,215,-1
 261 52 l 1,216,-1
 329 63 l 1,217,-1
 335 63 l 1,218,-1
 335 67 l 1,219,220
 312 70 312 70 261 56 c 1,215,-1
99 45 m 1,221,-1
 77 42 l 1,222,-1
 77 38 l 1,223,-1
 83 38 l 1,224,-1
 92 38 l 2,225,226
 117 38 117 38 117 42 c 1,227,-1
 114 45 l 1,228,-1
 99 45 l 1,221,-1
178 47 m 1,229,-1
 177 45 l 1,230,-1
 177 44 l 1,231,232
 181 40 181 40 185 40 c 1,233,-1
 185 42 l 1,234,235
 183 47 183 47 178 47 c 1,229,-1
160 45 m 1,236,-1
 158 42 l 1,237,-1
 160 40 l 1,238,-1
 164 40 l 1,239,-1
 167 42 l 1,240,-1
 167 45 l 1,241,-1
 160 45 l 1,236,-1
199 40 m 1,242,-1
 194 37 l 1,243,-1
 194 35 l 2,244,245
 194 31 194 31 225 31 c 2,246,-1
 226 31 l 2,247,248
 234 31 234 31 234 37 c 1,249,250
 230 40 230 40 225 40 c 2,251,-1
 199 40 l 1,242,-1
387 30 m 2,252,-1
 387 26 l 1,253,-1
 391 22 l 1,254,255
 402 22 402 22 402 38 c 2,256,-1
 402 46 l 1,257,-1
 400 49 l 1,258,-1
 396 49 l 1,259,260
 387 42 387 42 387 30 c 2,252,-1
253 29 m 1,261,262
 247 19 247 19 232 19 c 1,263,-1
 232 17 l 2,264,265
 232 13 232 13 263 12 c 1,266,-1
 265 12 l 1,267,268
 283 26 283 26 290 36 c 1,269,270
 289 39 289 39 281 37.5 c 128,-1,271
 273 36 273 36 253 29 c 1,261,262
325 38 m 2,272,-1
 303 36 l 1,273,-1
 303 34 l 2,274,275
 303 31 303 31 332 31 c 1,276,-1
 333 32 l 1,277,-1
 333 33 l 1,278,279
 331 38 331 38 325 38 c 2,272,-1
348 38 m 1,280,-1
 345 36 l 1,281,-1
 346 32 l 1,282,-1
 348 32 l 1,283,-1
 351 34 l 1,284,-1
 351 36 l 1,285,-1
 348 38 l 1,280,-1
301 24 m 1,286,-1
 297 24 l 1,287,-1
 297 22 l 1,288,-1
 301 22 l 1,289,-1
 301 24 l 1,286,-1
370 9 m 1,290,-1
 370 8 l 2,291,292
 370 6 370 6 379 4 c 1,293,294
 389 5 389 5 389 9 c 2,295,-1
 389 11 l 1,296,-1
 385 14 l 1,297,-1
 381 14 l 2,298,299
 372 14 372 14 370 9 c 1,290,-1
EndSplineSet
EndChar

StartChar: two
Encoding: 50 50 21
Width: 510
GlyphClass: 2
Flags: W
LayerCount: 2
Fore
SplineSet
279 688 m 1,0,-1
 301 691 l 1,1,2
 334 691 334 691 404 667 c 1,3,4
 441 648 441 648 441 642 c 1,5,6
 475 608 475 608 475 589 c 1,7,-1
 491 530 l 1,8,9
 481 492 481 492 448 421 c 1,10,11
 406 386 406 386 324 338 c 1,12,13
 257 276 257 276 236 274 c 1,14,-1
 194 236 l 1,15,16
 104 158 104 158 102 154 c 0,17,18
 93 135 93 135 86 105 c 1,19,-1
 86 103 l 2,20,21
 86 95 86 95 135 92 c 1,22,-1
 135 88 l 1,23,-1
 103 86 l 1,24,-1
 103 82 l 1,25,26
 190 67 190 67 220 67 c 1,27,28
 218 70 218 70 148 87 c 1,29,-1
 148 90 l 1,30,-1
 149 90 l 2,31,32
 168 90 168 90 229 75 c 1,33,-1
 285 71 l 1,34,-1
 333 76 l 1,35,-1
 358 76 l 1,36,37
 424 72 424 72 430 58 c 1,38,-1
 460 49 l 1,39,-1
 466 45 l 1,40,-1
 466 41 l 1,41,-1
 450 37 l 1,42,-1
 450 36 l 1,43,-1
 454 31 l 1,44,-1
 456 31 l 1,45,-1
 470 33 l 1,46,-1
 470 31 l 1,47,48
 468 -13 468 -13 464 -13 c 2,49,-1
 347 -9 l 1,50,-1
 323 -9 l 2,51,52
 298 -9 298 -9 255 -14 c 1,53,54
 104 4 104 4 45 4 c 1,55,56
 27 8 27 8 27 22 c 1,57,58
 20 40 20 40 20 67 c 2,59,-1
 20 97 l 2,60,61
 20 184 20 184 40 207 c 1,62,-1
 65 223 l 1,63,64
 71 234 71 234 71 241 c 1,65,66
 135 293 135 293 139 293 c 1,67,68
 166 303 166 303 213 344 c 1,69,-1
 218 344 l 1,70,71
 205 328 205 328 197 328 c 1,72,-1
 197 324 l 1,73,-1
 203 324 l 1,74,75
 216 331 216 331 229 346 c 1,76,-1
 229 348 l 1,77,-1
 225 348 l 1,78,-1
 225 351 l 1,79,-1
 297 396 l 1,80,81
 352 434 352 434 384 466 c 1,82,83
 408 493 408 493 415 537 c 1,84,85
 415 576 415 576 382 596 c 1,86,87
 371 600 371 600 292 607 c 0,88,89
 292 608 292 608 276 609 c 1,90,91
 242 609 242 609 212 569 c 1,92,93
 204 551 204 551 204 542 c 2,94,-1
 204 535 l 1,95,-1
 206 535 l 1,96,97
 206 526 206 526 173 522 c 2,98,-1
 131 516 l 1,99,-1
 131 515 l 1,100,-1
 125 516 l 1,101,-1
 117 516 l 1,102,-1
 92 513 l 1,103,-1
 90 517 l 1,104,105
 104 586 104 586 121 603 c 1,106,107
 178 655 178 655 201 657 c 1,108,109
 218 672 218 672 279 688 c 1,0,-1
319 681 m 2,110,-1
 309 681 l 1,111,-1
 309 679 l 1,112,-1
 315 671 l 1,113,-1
 324 671 l 1,114,-1
 328 676 l 1,115,-1
 328 677 l 1,116,117
 327 681 327 681 319 681 c 2,110,-1
255 666 m 2,118,-1
 255 664 l 1,119,-1
 256 664 l 2,120,121
 297 664 297 664 297 673 c 1,122,-1
 292 677 l 1,123,-1
 280 677 l 1,124,125
 255 671 255 671 255 666 c 2,118,-1
380 670 m 1,126,-1
 379 670 l 1,127,-1
 379 668 l 2,128,129
 379 662 379 662 405 656 c 1,130,-1
 405 657 l 2,131,132
 405 663 405 663 380 670 c 1,126,-1
218 651 m 2,133,-1
 218 648 l 1,134,-1
 231 648 l 1,135,-1
 235 652 l 1,136,-1
 235 653 l 1,137,-1
 229 654 l 1,138,139
 218 652 218 652 218 651 c 2,133,-1
232 613 m 1,140,-1
 229 609 l 1,141,-1
 229 607 l 1,142,-1
 235 607 l 1,143,-1
 238 611 l 1,144,-1
 238 613 l 1,145,-1
 232 613 l 1,140,-1
406 611 m 1,146,-1
 404 609 l 1,147,-1
 404 607 l 1,148,149
 408 600 408 600 415 600 c 2,150,-1
 416 600 l 2,151,152
 419 600 419 600 419 604 c 0,153,154
 419 609 419 609 408 611 c 1,155,-1
 406 611 l 1,146,-1
421 596 m 1,156,-1
 421 594 l 1,157,158
 439 592 439 592 439 578 c 1,159,-1
 445 571 l 1,160,-1
 445 578 l 2,161,162
 445 600 445 600 431 600 c 0,163,164
 422 600 422 600 421 596 c 1,156,-1
200 576 m 1,165,-1
 202 574 l 1,166,-1
 203 574 l 1,167,168
 218 582 218 582 218 590 c 2,169,-1
 218 591 l 1,170,-1
 214 591 l 2,171,172
 210 591 210 591 200 576 c 1,165,-1
172 549 m 1,173,-1
 167 549 l 1,174,-1
 167 545 l 1,175,-1
 171 544 l 1,176,-1
 172 544 l 1,177,-1
 172 549 l 1,173,-1
464 515 m 1,178,-1
 460 510 l 1,179,-1
 460 507 l 1,180,-1
 462 507 l 1,181,-1
 465 510 l 1,182,-1
 465 515 l 1,183,-1
 464 515 l 1,178,-1
441 475 m 1,184,-1
 436 475 l 1,185,-1
 436 470 l 1,186,187
 443 470 443 470 443 464 c 1,188,-1
 446 464 l 1,189,-1
 446 470 l 1,190,-1
 441 475 l 1,184,-1
423 439 m 1,191,-1
 424 437 l 1,192,-1
 424 436 l 1,193,194
 430 439 430 439 436 448 c 1,195,-1
 436 450 l 1,196,-1
 434 450 l 1,197,198
 427 446 427 446 423 439 c 1,191,-1
396 419 m 1,199,-1
 398 419 l 1,200,-1
 409 421 l 1,201,202
 409 429 409 429 402 429 c 1,203,204
 396 428 396 428 396 419 c 1,199,-1
394 400 m 1,205,-1
 394 398 l 1,206,207
 413 400 413 400 429 419 c 1,208,-1
 427 421 l 1,209,210
 404 409 404 409 394 400 c 1,205,-1
349 381 m 1,211,-1
 346 380 l 1,212,-1
 346 376 l 1,213,-1
 348 376 l 1,214,-1
 351 379 l 1,215,-1
 349 380 l 1,216,-1
 349 381 l 1,211,-1
193 261 m 1,217,-1
 193 258 l 1,218,-1
 196 258 l 2,219,220
 202 258 202 258 223 276 c 1,221,222
 228 276 228 276 233 288 c 1,223,-1
 235 289 l 1,224,-1
 235 292 l 1,225,-1
 232 292 l 2,226,227
 220 292 220 292 193 261 c 1,217,-1
130 266 m 2,228,-1
 130 263 l 1,229,-1
 131 263 l 2,230,231
 144 263 144 263 152 283 c 1,232,-1
 147 283 l 1,233,234
 130 269 130 269 130 266 c 2,228,-1
97 248 m 1,235,-1
 84 248 l 1,236,-1
 85 238 l 1,237,238
 71 224 71 224 71 220 c 1,239,-1
 75 220 l 1,240,241
 93 230 93 230 100 245 c 1,242,-1
 100 247 l 1,243,-1
 97 248 l 1,235,-1
172 238 m 1,244,-1
 167 235 l 1,245,-1
 167 232 l 1,246,-1
 171 232 l 1,247,-1
 175 236 l 1,248,-1
 175 238 l 1,249,-1
 172 238 l 1,244,-1
92 181 m 2,250,-1
 92 177 l 1,251,-1
 95 177 l 1,252,253
 106 185 106 185 106 193 c 2,254,-1
 106 194 l 1,255,-1
 103 194 l 1,256,257
 92 188 92 188 92 181 c 2,250,-1
65 74 m 1,258,-1
 62 71 l 1,259,-1
 62 67 l 1,260,-1
 65 63 l 1,261,-1
 67 67 l 1,262,-1
 67 71 l 1,263,-1
 65 74 l 1,258,-1
92 71 m 1,264,-1
 88 68 l 1,265,-1
 90 67 l 1,266,-1
 103 67 l 1,267,-1
 103 70 l 1,268,-1
 96 71 l 1,269,-1
 92 71 l 1,264,-1
364 63 m 1,270,-1
 357 62 l 1,271,-1
 357 61 l 1,272,-1
 361 57 l 1,273,-1
 374 57 l 1,274,-1
 377 59 l 1,275,-1
 377 62 l 1,276,-1
 364 63 l 1,270,-1
38 43 m 1,277,-1
 34 41 l 1,278,-1
 34 40 l 1,279,-1
 37 37 l 1,280,-1
 38 37 l 1,281,-1
 41 40 l 1,282,-1
 38 43 l 1,277,-1
59 22 m 2,283,-1
 59 21 l 1,284,-1
 67 20 l 1,285,286
 82 22 82 22 82 24 c 2,287,-1
 81 26 l 1,288,-1
 67 26 l 1,289,290
 59 24 59 24 59 22 c 2,283,-1
383 11 m 1,291,-1
 394 11 l 1,292,293
 408 13 408 13 408 16 c 1,294,-1
 405 20 l 1,295,-1
 399 20 l 2,296,297
 394 20 394 20 383 11 c 1,291,-1
419 5 m 1,298,-1
 423 3 l 1,299,-1
 434 3 l 2,300,301
 449 3 449 3 449 8 c 2,302,-1
 449 9 l 2,303,304
 449 12 449 12 445 12 c 0,305,306
 421 11 421 11 419 5 c 1,298,-1
EndSplineSet
EndChar

StartChar: three
Encoding: 51 51 22
Width: 470
GlyphClass: 2
Flags: W
LayerCount: 2
Fore
SplineSet
20 693 m 1,0,-1
 23 695 l 1,1,2
 78 689 78 689 213 679 c 1,3,4
 230 671 230 671 361 658 c 1,5,6
 412 646 412 646 412 631 c 1,7,8
 408 617 408 617 379 582 c 1,9,10
 379 579 379 579 333 521 c 1,11,12
 333 512 333 512 279 463 c 1,13,-1
 268 448 l 1,14,-1
 268 445 l 1,15,16
 283 445 283 445 333 455 c 1,17,18
 350 455 350 455 418 414 c 1,19,20
 436 394 436 394 454 336 c 1,21,-1
 454 325 l 2,22,23
 454 192 454 192 431 160 c 1,24,25
 412 105 412 105 327 46 c 1,26,27
 275 21 275 21 175 -1 c 1,28,29
 163 -5 163 -5 135 -5 c 2,30,-1
 128 -5 l 1,31,-1
 122 -7 l 1,32,33
 76 -7 76 -7 45 14 c 1,34,-1
 45 17 l 1,35,36
 48 19 48 19 65 58 c 1,37,-1
 67 58 l 1,38,-1
 88 58 l 1,39,-1
 99 58 l 2,40,41
 184 58 184 58 229 103 c 1,42,-1
 315 158 l 1,43,44
 364 202 364 202 369 221 c 1,45,46
 389 253 389 253 389 326 c 1,47,48
 388 336 388 336 386 336 c 1,49,-1
 389 344 l 1,50,51
 389 364 389 364 369 376 c 1,52,53
 361 396 361 396 338 396 c 2,54,-1
 313 396 l 2,55,56
 293 396 293 396 293 391 c 2,57,-1
 293 389 l 1,58,59
 334 389 334 389 357 369 c 1,60,-1
 357 367 l 1,61,-1
 354 365 l 1,62,63
 345 365 345 365 329 379 c 1,64,-1
 320 380 l 1,65,66
 245 380 245 380 137 329 c 1,67,-1
 127 323 l 1,68,-1
 122 325 l 1,69,-1
 122 333 l 2,70,71
 122 340 122 340 112 350 c 1,72,-1
 112 351 l 2,73,74
 112 354 112 354 135 405 c 1,75,76
 139 422 139 422 153 439 c 1,77,-1
 194 501 l 1,78,79
 217 551 217 551 238 562 c 1,80,81
 247 572 247 572 247 581 c 2,82,-1
 247 584 l 1,83,84
 236 592 236 592 228 592 c 2,85,-1
 41 596 l 2,86,87
 32 596 32 596 30 613 c 1,88,-1
 30 617 l 1,89,-1
 31 621 l 1,90,-1
 31 625 l 1,91,92
 28 633 28 633 20 693 c 1,0,-1
61 682 m 1,93,-1
 57 678 l 1,94,-1
 57 668 l 1,95,-1
 59 668 l 1,96,-1
 72 668 l 1,97,-1
 74 668 l 1,98,-1
 99 666 l 1,99,-1
 103 670 l 1,100,101
 85 682 85 682 61 682 c 1,93,-1
33 666 m 1,102,103
 35 661 35 661 41 661 c 1,104,-1
 43 664 l 1,105,-1
 43 666 l 1,106,-1
 40 670 l 1,107,-1
 36 670 l 2,108,109
 33 670 33 670 33 666 c 1,102,103
159 663 m 1,110,-1
 156 663 l 1,111,-1
 156 661 l 1,112,-1
 157 661 l 1,113,-1
 159 663 l 1,110,-1
349 650 m 1,114,-1
 327 650 l 1,115,116
 327 644 327 644 346 643 c 1,117,-1
 348 643 l 1,118,-1
 352 646 l 1,119,-1
 352 647 l 1,120,-1
 349 650 l 1,114,-1
119 644 m 1,121,122
 172 638 172 638 236 638 c 2,123,-1
 248 638 l 1,124,125
 248 645 248 645 175 648 c 1,126,-1
 148 648 l 2,127,128
 119 648 119 648 119 644 c 1,121,122
67 644 m 1,129,-1
 63 643 l 1,130,131
 63 634 63 634 113 631 c 1,132,-1
 115 632 l 1,133,-1
 115 634 l 1,134,135
 102 644 102 644 72 644 c 2,136,-1
 67 644 l 1,129,-1
382 632 m 1,137,-1
 382 631 l 1,138,139
 383 627 383 627 390 627 c 2,140,-1
 394 627 l 2,141,142
 398 627 398 627 401 631 c 1,143,144
 401 637 401 637 389 637 c 1,145,146
 385 635 385 635 382 632 c 1,137,-1
132 635 m 1,147,-1
 131 634 l 1,148,-1
 131 633 l 2,149,150
 131 628 131 628 166 628 c 2,151,-1
 202 628 l 1,152,153
 202 634 202 634 132 635 c 1,147,-1
255 627 m 2,154,-1
 229 627 l 1,155,-1
 229 625 l 1,156,-1
 279 617 l 1,157,-1
 329 621 l 1,158,-1
 329 623 l 1,159,160
 310 627 310 627 255 627 c 2,154,-1
47 619 m 1,161,-1
 47 617 l 2,162,163
 47 609 47 609 88 609 c 2,164,-1
 129 609 l 1,165,-1
 129 612 l 2,166,167
 129 616 129 616 86 617 c 1,168,169
 86 622 86 622 61 623 c 1,170,-1
 57 623 l 2,171,172
 48 623 48 623 47 619 c 1,161,-1
167 612 m 2,173,-1
 146 612 l 1,174,175
 146 607 146 607 172 607 c 2,176,-1
 175 607 l 1,177,178
 175 612 175 612 167 612 c 2,173,-1
361 599 m 1,179,-1
 352 592 l 1,180,181
 355 578 355 578 362 578 c 1,182,183
 369 586 369 586 369 592 c 2,184,-1
 369 597 l 1,185,-1
 367 599 l 1,186,-1
 361 599 l 1,179,-1
268 585 m 1,187,-1
 266 582 l 1,188,-1
 266 580 l 1,189,-1
 272 580 l 1,190,-1
 274 582 l 1,191,-1
 274 585 l 1,192,-1
 268 585 l 1,187,-1
274 563 m 2,193,-1
 274 560 l 1,194,-1
 276 560 l 2,195,196
 288 560 288 560 295 578 c 1,197,-1
 293 579 l 1,198,-1
 292 579 l 1,199,200
 274 574 274 574 274 563 c 2,193,-1
349 565 m 1,201,-1
 344 565 l 1,202,-1
 344 562 l 1,203,-1
 347 562 l 1,204,-1
 349 563 l 1,205,-1
 349 565 l 1,201,-1
339 556 m 1,206,-1
 337 556 l 1,207,-1
 337 553 l 1,208,-1
 339 553 l 1,209,-1
 339 556 l 1,206,-1
279 493 m 1,210,-1
 278 490 l 1,211,-1
 280 487 l 1,212,213
 301 492 301 492 322 521 c 1,214,-1
 327 534 l 1,215,-1
 326 535 l 1,216,-1
 320 535 l 2,217,218
 308 535 308 535 279 493 c 1,210,-1
226 491 m 1,219,-1
 228 491 l 1,220,221
 243 500 243 500 243 511 c 2,222,-1
 243 512 l 1,223,-1
 241 512 l 1,224,225
 226 508 226 508 226 491 c 1,219,-1
247 495 m 1,226,-1
 247 491 l 1,227,-1
 250 491 l 1,228,229
 257 497 257 497 257 502 c 1,230,-1
 256 503 l 1,231,232
 252 501 252 501 247 495 c 1,226,-1
273 480 m 1,233,-1
 270 477 l 1,234,-1
 270 472 l 1,235,-1
 273 472 l 1,236,-1
 275 474 l 1,237,-1
 275 480 l 1,238,-1
 273 480 l 1,233,-1
167 445 m 1,239,-1
 167 443 l 1,240,-1
 169 441 l 1,241,-1
 178 441 l 1,242,-1
 197 456 l 1,243,-1
 198 462 l 1,244,-1
 198 464 l 1,245,-1
 196 466 l 1,246,-1
 194 466 l 1,247,248
 178 462 178 462 167 445 c 1,239,-1
257 412 m 1,249,-1
 257 411 l 1,250,-1
 258 411 l 1,251,-1
 299 424 l 1,252,253
 348 419 348 419 358 416 c 1,254,255
 363 416 363 416 364 420 c 1,256,-1
 365 420 l 1,257,258
 390 401 390 401 404 401 c 2,259,-1
 408 401 l 1,260,-1
 409 404 l 1,261,-1
 409 405 l 2,262,263
 409 416 409 416 340 433 c 0,264,265
 337 433 337 433 334 441 c 1,266,-1
 329 445 l 1,267,-1
 326 445 l 2,268,269
 302 445 302 445 276 421 c 1,270,271
 258 416 258 416 257 412 c 1,249,-1
239 441 m 1,272,-1
 238 441 l 1,273,-1
 238 437 l 1,274,-1
 239 436 l 1,275,-1
 243 436 l 1,276,-1
 243 437 l 1,277,-1
 239 441 l 1,272,-1
153 411 m 1,278,-1
 153 408 l 1,279,-1
 154 408 l 1,280,281
 167 415 167 415 173 431 c 1,282,-1
 171 431 l 1,283,284
 162 426 162 426 153 411 c 1,278,-1
185 408 m 1,285,-1
 185 402 l 1,286,-1
 189 402 l 2,287,288
 201 402 201 402 207 421 c 1,289,-1
 204 424 l 1,290,291
 194 420 194 420 185 408 c 1,285,-1
193 376 m 1,292,-1
 193 375 l 1,293,-1
 196 375 l 1,294,295
 263 391 263 391 263 398 c 2,296,-1
 263 399 l 1,297,-1
 260 399 l 1,298,299
 228 396 228 396 193 376 c 1,292,-1
146 373 m 1,300,-1
 146 370 l 1,301,-1
 147 369 l 1,302,-1
 147 367 l 1,303,304
 180 373 180 373 197 386 c 1,305,-1
 197 387 l 1,306,-1
 194 391 l 1,307,308
 160 384 160 384 146 373 c 1,300,-1
405 391 m 2,309,-1
 394 391 l 1,310,-1
 394 389 l 1,311,312
 399 375 399 375 408 375 c 2,313,-1
 415 375 l 2,314,315
 425 375 425 375 427 380 c 1,316,317
 418 391 418 391 405 391 c 2,309,-1
419 364 m 1,318,-1
 418 361 l 1,319,-1
 418 360 l 2,320,321
 418 352 418 352 434 330 c 1,322,-1
 433 311 l 1,323,-1
 433 288 l 2,324,325
 433 277 433 277 437 276 c 1,326,-1
 439 276 l 1,327,-1
 441 298 l 1,328,-1
 441 333 l 2,329,330
 441 350 441 350 423 364 c 1,331,-1
 419 364 l 1,318,-1
129 352 m 1,332,-1
 129 351 l 1,333,-1
 131 348 l 1,334,-1
 140 348 l 2,335,336
 149 348 149 348 150 352 c 1,337,-1
 150 355 l 1,338,339
 148 360 148 360 142 360 c 2,340,-1
 140 360 l 2,341,342
 134 360 134 360 129 352 c 1,332,-1
376 352 m 1,343,-1
 376 355 l 1,344,-1
 382 348 l 1,345,-1
 380 348 l 1,346,-1
 376 352 l 1,343,-1
400 328 m 1,347,-1
 398 328 l 1,348,-1
 398 326 l 1,349,-1
 400 323 l 1,350,-1
 402 323 l 1,351,-1
 402 326 l 1,352,-1
 400 328 l 1,347,-1
394 273 m 2,353,-1
 394 269 l 1,354,-1
 396 266 l 1,355,356
 408 286 408 286 408 301 c 2,357,-1
 408 313 l 1,358,-1
 405 313 l 1,359,360
 394 300 394 300 394 273 c 2,353,-1
439 266 m 1,361,-1
 429 247 l 1,362,363
 430 243 430 243 434 241 c 1,364,-1
 436 241 l 1,365,366
 443 244 443 244 443 254 c 0,367,368
 442 266 442 266 439 266 c 1,361,-1
400 218 m 2,369,-1
 400 216 l 1,370,-1
 404 216 l 1,371,-1
 409 222 l 1,372,-1
 409 228 l 1,373,-1
 406 228 l 1,374,375
 400 224 400 224 400 218 c 2,369,-1
391 185 m 1,376,-1
 394 184 l 1,377,-1
 414 197 l 1,378,-1
 414 199 l 1,379,-1
 411 201 l 1,380,-1
 409 201 l 2,381,382
 401 201 401 201 391 185 c 1,376,-1
348 154 m 1,383,-1
 352 154 l 2,384,385
 362 154 362 154 373 166 c 1,386,-1
 373 168 l 1,387,-1
 369 179 l 1,388,-1
 373 189 l 1,389,390
 364 189 364 189 355 166 c 1,391,392
 348 159 348 159 348 154 c 1,383,-1
418 182 m 1,393,-1
 415 179 l 1,394,-1
 415 178 l 1,395,-1
 419 178 l 1,396,-1
 419 182 l 1,397,-1
 418 182 l 1,393,-1
382 150 m 1,398,-1
 382 148 l 1,399,-1
 389 147 l 1,400,-1
 396 147 l 1,401,402
 411 148 411 148 411 159 c 1,403,404
 409 164 409 164 404 164 c 0,405,406
 394 164 394 164 382 150 c 1,398,-1
226 84 m 1,407,-1
 229 84 l 1,408,409
 319 122 319 122 319 139 c 1,410,-1
 313 139 l 1,411,412
 292 131 292 131 241 96 c 0,413,414
 226 86 226 86 226 84 c 1,407,-1
384 125 m 2,415,-1
 384 124 l 1,416,-1
 389 124 l 2,417,418
 392 124 392 124 396 133 c 1,419,-1
 394 135 l 1,420,421
 384 132 384 132 384 125 c 2,415,-1
373 133 m 1,422,-1
 369 129 l 1,423,-1
 369 128 l 1,424,-1
 374 128 l 1,425,-1
 377 130 l 1,426,-1
 374 133 l 1,427,-1
 373 133 l 1,422,-1
347 93 m 1,428,-1
 348 93 l 2,429,430
 358 93 358 93 371 103 c 1,431,432
 371 106 371 106 367 106 c 0,433,434
 347 101 347 101 347 93 c 1,428,-1
270 76 m 1,435,-1
 270 74 l 1,436,-1
 272 74 l 1,437,438
 293 80 293 80 293 85 c 2,439,-1
 293 86 l 1,440,-1
 292 86 l 2,441,442
 280 86 280 86 270 76 c 1,435,-1
333 77 m 1,443,-1
 329 74 l 1,444,-1
 329 71 l 1,445,-1
 336 71 l 1,446,-1
 339 75 l 1,447,-1
 339 77 l 1,448,-1
 333 77 l 1,443,-1
97 46 m 1,449,-1
 100 43 l 1,450,-1
 117 43 l 1,451,-1
 121 46 l 1,452,453
 121 49 121 49 110 49 c 0,454,455
 97 49 97 49 97 46 c 1,449,-1
189 49 m 1,456,-1
 187 46 l 1,457,-1
 187 43 l 1,458,459
 195 43 195 43 197 48 c 1,460,-1
 197 49 l 1,461,-1
 189 49 l 1,456,-1
270 36 m 1,462,-1
 272 34 l 1,463,-1
 273 34 l 1,464,465
 292 40 292 40 297 45 c 1,466,-1
 295 49 l 1,467,-1
 289 49 l 1,468,469
 270 45 270 45 270 36 c 1,462,-1
76 41 m 1,470,-1
 72 38 l 1,471,-1
 72 36 l 1,472,-1
 82 36 l 1,473,-1
 85 38 l 1,474,-1
 82 41 l 1,475,-1
 76 41 l 1,470,-1
157 20 m 1,476,-1
 122 17 l 1,477,-1
 100 22 l 1,478,-1
 92 22 l 1,479,480
 71 20 71 20 71 14 c 2,481,-1
 71 13 l 2,482,483
 71 8 71 8 135 4 c 1,484,485
 162 4 162 4 216 26 c 1,486,-1
 218 27 l 1,487,-1
 218 31 l 1,488,-1
 216 31 l 2,489,490
 204 31 204 31 157 20 c 1,476,-1
EndSplineSet
EndChar

StartChar: four
Encoding: 52 52 23
Width: 483
GlyphClass: 2
Flags: W
LayerCount: 2
Fore
SplineSet
139 700 m 1,0,-1
 139 713 l 1,1,-1
 139 714 l 1,2,3
 194 708 194 708 194 697 c 1,4,5
 185 642 185 642 159 411 c 0,6,7
 153 361 153 361 142 335 c 1,8,9
 117 301 117 301 111 249 c 1,10,11
 118 244 118 244 192 238 c 1,12,13
 216 229 216 229 229 229 c 2,14,-1
 240 229 l 1,15,-1
 291 234 l 1,16,-1
 314 234 l 1,17,-1
 314 235 l 1,18,19
 308 296 308 296 304 468 c 1,20,21
 300 490 300 490 295 493 c 1,22,23
 295 498 295 498 328 503 c 1,24,25
 328 506 328 506 337 507 c 1,26,27
 350 507 350 507 353 497 c 1,28,-1
 347 481 l 1,29,30
 365 452 365 452 365 295 c 0,31,32
 365 239 365 239 373 239 c 2,33,-1
 376 239 l 2,34,35
 415 239 415 239 428 247 c 1,36,-1
 435 243 l 1,37,-1
 434 234 l 1,38,-1
 434 226 l 1,39,-1
 438 219 l 1,40,-1
 437 209 l 1,41,42
 437 179 437 179 415 172 c 0,43,44
 393 166 393 166 393 160 c 1,45,-1
 376 160 l 2,46,47
 373 160 373 160 373 157 c 0,48,49
 381 88 381 88 381 28 c 1,50,51
 386 6 386 6 386 -17 c 1,52,-1
 394 -21 l 1,53,-1
 394 -23 l 2,54,55
 394 -30 394 -30 331 -50 c 1,56,57
 323 -43 323 -43 310 -43 c 1,58,-1
 308 -41 l 1,59,60
 319 33 319 33 319 67 c 0,61,62
 319 169 319 169 306 169 c 2,63,-1
 264 171 l 1,64,-1
 179 171 l 1,65,-1
 149 168 l 1,66,67
 5 170 5 170 5 182 c 1,68,69
 2 182 2 182 2 184 c 1,70,71
 34 214 34 214 34 229 c 1,72,73
 49 264 49 264 49 301 c 1,74,75
 76 376 76 376 88 509 c 1,76,77
 88 526 88 526 109 650 c 1,78,79
 109 667 109 667 119 697 c 1,80,-1
 120 697 l 1,81,82
 126 691 126 691 131 691 c 2,83,-1
 136 691 l 1,84,-1
 139 695 l 1,85,-1
 139 700 l 1,0,-1
132 654 m 2,86,-1
 132 652 l 1,87,88
 133 639 133 639 136 639 c 2,89,-1
 138 639 l 1,90,-1
 138 643 l 2,91,92
 138 648 138 648 146 662 c 1,93,-1
 149 678 l 1,94,-1
 149 679 l 1,95,-1
 148 682 l 1,96,-1
 144 682 l 2,97,98
 132 682 132 682 132 654 c 2,86,-1
154 606 m 1,99,-1
 154 603 l 1,100,-1
 157 600 l 1,101,102
 161 603 161 603 161 609 c 2,103,-1
 161 617 l 1,104,-1
 160 617 l 2,105,106
 157 617 157 617 154 606 c 1,99,-1
99 506 m 2,107,-1
 99 505 l 1,108,-1
 103 502 l 1,109,-1
 104 502 l 1,110,-1
 111 503 l 1,111,-1
 111 509 l 1,112,-1
 107 517 l 1,113,-1
 114 552 l 1,114,-1
 113 552 l 1,115,116
 99 522 99 522 99 506 c 2,107,-1
139 416 m 2,117,-1
 139 410 l 1,118,-1
 142 410 l 1,119,120
 148 412 148 412 148 419 c 2,121,-1
 148 426 l 1,122,-1
 144 426 l 1,123,124
 139 423 139 423 139 416 c 2,117,-1
99 330 m 1,125,-1
 99 329 l 1,126,127
 111 329 111 329 111 345 c 2,128,-1
 111 350 l 1,129,-1
 110 351 l 1,130,-1
 110 352 l 1,131,132
 103 352 103 352 99 330 c 1,125,-1
329 346 m 1,133,-1
 326 348 l 1,134,-1
 326 347 l 1,135,-1
 326 340 l 1,136,-1
 329 340 l 1,137,-1
 329 346 l 1,133,-1
101 325 m 1,138,-1
 95 325 l 1,139,-1
 95 320 l 1,140,-1
 99 320 l 1,141,-1
 101 323 l 1,142,-1
 101 325 l 1,138,-1
326 319 m 1,143,-1
 326 305 l 2,144,145
 326 298 326 298 329 298 c 1,146,-1
 331 301 l 1,147,-1
 331 308 l 2,148,149
 331 317 331 317 326 319 c 1,143,-1
81 270 m 1,150,-1
 78 268 l 1,151,-1
 78 266 l 1,152,-1
 81 266 l 1,153,-1
 84 269 l 1,154,-1
 84 270 l 1,155,-1
 81 270 l 1,150,-1
66 229 m 1,156,-1
 69 225 l 1,157,-1
 72 225 l 1,158,-1
 87 228 l 1,159,-1
 87 229 l 1,160,161
 85 234 85 234 78 234 c 2,162,-1
 74 234 l 2,163,164
 68 234 68 234 66 229 c 1,156,-1
417 229 m 2,165,-1
 388 226 l 1,166,-1
 388 224 l 1,167,168
 391 220 391 220 409 218 c 0,169,170
 417 218 417 218 421 225 c 1,171,-1
 421 228 l 2,172,173
 421 229 421 229 417 229 c 2,165,-1
119 224 m 1,174,-1
 121 221 l 1,175,-1
 144 224 l 1,176,-1
 144 225 l 2,177,178
 144 229 144 229 128 229 c 1,179,180
 119 228 119 228 119 224 c 1,174,-1
180 197 m 1,181,182
 202 191 202 191 296 191 c 0,183,184
 312 191 312 191 318 200 c 0,185,186
 318 201 318 201 301 203 c 1,187,188
 180 202 180 202 180 197 c 1,181,182
372 203 m 1,189,-1
 369 201 l 1,190,-1
 369 199 l 1,191,-1
 376 193 l 1,192,-1
 371 185 l 1,193,-1
 371 184 l 1,194,195
 372 181 372 181 381 181 c 2,196,-1
 390 181 l 2,197,198
 404 181 404 181 418 184 c 1,199,200
 418 186 418 186 394 193 c 1,201,202
 390 203 390 203 376 203 c 2,203,-1
 372 203 l 1,189,-1
333 143 m 2,204,-1
 333 139 l 1,205,-1
 336 137 l 1,206,-1
 337 139 l 1,207,-1
 337 150 l 1,208,209
 333 149 333 149 333 143 c 2,204,-1
358 23 m 1,210,211
 359 13 359 13 363 13 c 1,212,-1
 365 14 l 1,213,-1
 365 26 l 2,214,215
 365 34 365 34 362 36 c 1,216,217
 358 36 358 36 358 23 c 1,210,211
330 -14 m 2,218,-1
 330 -16 l 1,219,-1
 331 -16 l 1,220,221
 337 -13 337 -13 337 -5 c 1,222,223
 330 -6 330 -6 330 -14 c 2,218,-1
EndSplineSet
EndChar

StartChar: five
Encoding: 53 53 24
Width: 443
GlyphClass: 2
Flags: W
LayerCount: 2
Fore
SplineSet
254 631 m 1,0,-1
 256 631 l 1,1,2
 411 629 411 629 411 624 c 1,3,4
 410 620 410 620 400 615 c 1,5,-1
 400 610 l 1,6,-1
 404 599 l 1,7,-1
 400 585 l 1,8,-1
 400 583 l 1,9,-1
 401 581 l 1,10,-1
 398 578 l 1,11,-1
 398 577 l 1,12,-1
 384 587 l 1,13,-1
 381 587 l 1,14,15
 381 573 381 573 347 573 c 1,16,-1
 322 577 l 1,17,18
 189 567 189 567 162 562 c 1,19,20
 152 552 152 552 142 471 c 1,21,22
 132 441 132 441 132 418 c 1,23,-1
 135 418 l 1,24,-1
 135 417 l 1,25,26
 162 418 162 418 162 427 c 1,27,28
 153 430 153 430 150 436 c 1,29,-1
 150 438 l 2,30,31
 150 458 150 458 222 463 c 1,32,-1
 229 463 l 2,33,34
 282 463 282 463 305 430 c 1,35,36
 347 404 347 404 369 383 c 1,37,-1
 381 370 l 1,38,-1
 381 369 l 1,39,-1
 380 369 l 1,40,-1
 358 383 l 1,41,-1
 355 383 l 1,42,-1
 355 382 l 1,43,44
 364 359 364 359 374 358 c 1,45,46
 374 355 374 355 382 355 c 2,47,-1
 392 356 l 1,48,49
 399 350 399 350 399 345 c 1,50,51
 389 344 389 344 389 340 c 0,52,53
 390 333 390 333 409 322 c 1,54,55
 416 322 416 322 416 283 c 2,56,-1
 416 246 l 1,57,58
 432 207 432 207 415 173 c 1,59,-1
 413 172 l 1,60,-1
 410 172 l 1,61,62
 403 175 403 175 400 189 c 1,63,64
 402 200 402 200 407 204 c 1,65,-1
 403 207 l 1,66,67
 390 207 390 207 380 173 c 1,68,-1
 380 171 l 2,69,70
 380 167 380 167 391 167 c 1,71,-1
 391 166 l 1,72,-1
 391 163 l 1,73,74
 368 113 368 113 335 86 c 1,75,76
 326 82 326 82 314 51 c 1,77,-1
 314 49 l 1,78,79
 323 49 323 49 365 95 c 1,80,81
 383 126 383 126 405 153 c 1,82,-1
 407 152 l 1,83,-1
 407 149 l 1,84,85
 385 110 385 110 362 82 c 1,86,87
 289 16 289 16 233 -1 c 1,88,89
 125 -12 125 -12 92 -12 c 1,90,91
 83 -8 83 -8 23 -5 c 1,92,-1
 22 -5 l 1,93,-1
 22 -3 l 1,94,-1
 34 45 l 1,95,96
 34 70 34 70 62 70 c 1,97,-1
 67 71 l 1,98,99
 86 60 86 60 87 60 c 2,100,-1
 92 60 l 2,101,102
 102 60 102 60 125 63 c 128,-1,103
 148 66 148 66 152 66 c 1,104,105
 184 55 184 55 267 107 c 1,106,107
 326 154 326 154 341 182 c 1,108,109
 364 212 364 212 347 250 c 1,110,111
 347 320 347 320 317 346 c 1,112,113
 308 363 308 363 265 379 c 1,114,115
 242 393 242 393 218 393 c 2,116,-1
 214 393 l 2,117,118
 180 393 180 393 97 363 c 1,119,-1
 80 360 l 1,120,-1
 76 364 l 1,121,-1
 76 368 l 1,122,123
 81 368 81 368 85 429 c 1,124,125
 97 449 97 449 105 568 c 1,126,127
 106 610 106 610 113 610 c 1,128,-1
 115 612 l 1,129,-1
 115 614 l 1,130,-1
 113 624 l 1,131,-1
 115 624 l 1,132,133
 120 620 120 620 135 620 c 128,-1,134
 150 620 150 620 254 631 c 1,0,-1
365 614 m 1,135,-1
 365 612 l 1,136,137
 367 607 367 607 377 607 c 2,138,-1
 381 607 l 2,139,140
 391 607 391 607 391 616 c 1,141,-1
 387 618 l 1,142,-1
 374 618 l 2,143,144
 368 618 368 618 365 614 c 1,135,-1
125 595 m 1,145,-1
 122 590 l 1,146,-1
 122 589 l 1,147,-1
 125 585 l 1,148,149
 247 599 247 599 247 607 c 1,150,-1
 245 607 l 1,151,152
 125 598 125 598 125 595 c 1,145,-1
305 599 m 2,153,-1
 276 597 l 1,154,-1
 276 593 l 1,155,-1
 299 592 l 2,156,157
 314 592 314 592 314 596 c 1,158,159
 312 599 312 599 305 599 c 2,153,-1
129 567 m 1,160,-1
 127 564 l 1,161,-1
 127 535 l 1,162,-1
 129 533 l 1,163,164
 132 540 132 540 132 553 c 2,165,-1
 132 564 l 1,166,-1
 130 567 l 1,167,-1
 129 567 l 1,160,-1
125 501 m 1,168,-1
 122 501 l 1,169,-1
 122 499 l 1,170,-1
 125 499 l 1,171,-1
 125 501 l 1,168,-1
229 436 m 1,172,-1
 229 434 l 1,173,-1
 231 434 l 1,174,-1
 258 434 l 2,175,176
 292 434 292 434 292 437 c 0,177,178
 292 442 292 442 253 444 c 1,179,-1
 229 436 l 1,172,-1
188 436 m 2,180,-1
 188 434 l 1,181,-1
 193 430 l 1,182,-1
 198 430 l 1,183,-1
 211 434 l 1,184,-1
 211 437 l 1,185,-1
 193 439 l 1,186,187
 188 437 188 437 188 436 c 2,180,-1
236 413 m 1,188,189
 239 404 239 404 257 404 c 2,190,-1
 263 404 l 2,191,192
 268 404 268 404 273 410 c 1,193,-1
 273 416 l 1,194,195
 272 419 272 419 263 419 c 2,196,-1
 248 419 l 2,197,198
 239 419 239 419 236 413 c 1,188,189
148 401 m 2,199,-1
 148 400 l 1,200,-1
 152 397 l 1,201,202
 160 397 160 397 164 404 c 1,203,-1
 164 405 l 1,204,-1
 159 407 l 1,205,206
 148 405 148 405 148 401 c 2,199,-1
97 399 m 1,207,-1
 92 394 l 1,208,-1
 92 383 l 1,209,-1
 96 380 l 1,210,-1
 107 380 l 1,211,-1
 107 383 l 2,212,213
 107 394 107 394 99 399 c 1,214,-1
 97 399 l 1,207,-1
286 395 m 2,215,-1
 285 395 l 1,216,-1
 285 391 l 1,217,-1
 290 387 l 1,218,-1
 292 387 l 2,219,220
 293 387 293 387 293 391 c 128,-1,221
 293 395 293 395 286 395 c 2,215,-1
367 350 m 1,222,-1
 358 360 l 1,223,-1
 358 358 l 2,224,225
 358 350 358 350 365 346 c 1,226,-1
 367 346 l 1,227,-1
 367 350 l 1,222,-1
348 343 m 1,228,-1
 347 343 l 1,229,-1
 347 340 l 1,230,-1
 351 337 l 1,231,-1
 352 337 l 1,232,-1
 352 338 l 1,233,-1
 348 343 l 1,228,-1
358 326 m 1,234,-1
 355 329 l 1,235,-1
 355 326 l 1,236,-1
 357 323 l 1,237,-1
 358 325 l 1,238,-1
 358 326 l 1,234,-1
361 313 m 1,239,-1
 359 313 l 1,240,-1
 359 308 l 1,241,-1
 362 306 l 1,242,-1
 364 306 l 1,243,-1
 364 310 l 1,244,-1
 361 313 l 1,239,-1
369 291 m 1,245,-1
 365 288 l 1,246,-1
 365 286 l 1,247,-1
 371 286 l 1,248,-1
 373 288 l 1,249,-1
 373 291 l 1,250,-1
 369 291 l 1,245,-1
369 272 m 1,251,-1
 365 272 l 1,252,-1
 364 263 l 1,253,-1
 364 257 l 1,254,-1
 369 262 l 1,255,-1
 369 272 l 1,251,-1
393 175 m 1,256,-1
 395 177 l 1,257,-1
 400 177 l 1,258,-1
 400 175 l 1,259,-1
 395 172 l 1,260,-1
 393 172 l 1,261,-1
 393 175 l 1,256,-1
405 160 m 1,262,-1
 409 164 l 1,263,-1
 413 163 l 1,264,-1
 413 162 l 1,265,-1
 409 157 l 1,266,-1
 405 159 l 1,267,-1
 405 160 l 1,262,-1
186 45 m 1,268,-1
 186 43 l 1,269,270
 212 52 212 52 246 58 c 1,271,272
 267 70 267 70 267 78 c 1,273,-1
 264 82 l 1,274,-1
 316 103 l 1,275,-1
 315 109 l 1,276,277
 340 138 340 138 340 146 c 1,278,-1
 339 147 l 1,279,-1
 337 147 l 2,280,281
 328 147 328 147 246 80 c 1,282,283
 230 80 230 80 186 45 c 1,268,-1
130 13 m 2,284,-1
 130 10 l 1,285,-1
 134 9 l 1,286,287
 142 9 142 9 220 14 c 0,288,289
 229 14 229 14 271 41 c 1,290,291
 284 51 284 51 284 58 c 2,292,-1
 284 59 l 1,293,-1
 283 62 l 1,294,-1
 279 62 l 2,295,296
 264 62 264 62 232 34 c 1,297,298
 172 21 172 21 148 20 c 1,299,300
 130 16 130 16 130 13 c 2,284,-1
134 48 m 1,301,-1
 122 45 l 1,302,-1
 122 42 l 1,303,-1
 134 42 l 1,304,-1
 140 44 l 1,305,-1
 140 48 l 1,306,-1
 134 48 l 1,301,-1
283 37 m 1,307,-1
 281 34 l 1,308,-1
 281 31 l 1,309,-1
 283 31 l 1,310,-1
 286 34 l 1,311,-1
 286 37 l 1,312,-1
 283 37 l 1,307,-1
55 21 m 1,313,-1
 52 19 l 1,314,315
 53 15 53 15 59 15 c 0,316,317
 69 15 69 15 70 19 c 1,318,-1
 67 21 l 1,319,-1
 55 21 l 1,313,-1
77 7 m 1,320,-1
 80 5 l 1,321,-1
 82 5 l 2,322,323
 90 5 90 5 106 11 c 1,324,-1
 117 10 l 1,325,326
 127 13 127 13 127 20 c 2,327,-1
 127 21 l 1,328,-1
 122 21 l 1,329,330
 77 14 77 14 77 7 c 1,320,-1
EndSplineSet
EndChar

StartChar: six
Encoding: 54 54 25
Width: 409
GlyphClass: 2
Flags: W
LayerCount: 2
Fore
SplineSet
316 648 m 0,0,1
 381 648 381 648 391 638 c 1,2,3
 383 632 383 632 383 627 c 2,4,-1
 383 625 l 1,5,-1
 387 604 l 1,6,-1
 387 603 l 2,7,8
 387 572 387 572 375 572 c 1,9,-1
 360 577 l 1,10,-1
 356 577 l 1,11,-1
 311 571 l 1,12,-1
 296 572 l 1,13,14
 283 571 283 571 226 518 c 1,15,-1
 220 509 l 1,16,17
 199 497 199 497 189 477 c 1,18,19
 176 464 176 464 155 423 c 1,20,21
 152 423 152 423 147 406 c 1,22,23
 122 389 122 389 115 367 c 1,24,25
 108 360 108 360 83 317 c 1,26,27
 69 299 69 299 63 284 c 1,28,-1
 59 280 l 1,29,-1
 59 279 l 1,30,-1
 64 279 l 2,31,32
 68 279 68 279 81 300 c 1,33,34
 85 300 85 300 130 330 c 1,35,36
 191 364 191 364 212 364 c 0,37,38
 251 364 251 364 308 336 c 1,39,40
 360 287 360 287 366 269 c 1,41,42
 382 258 382 258 389 212 c 1,43,44
 373 129 373 129 354 96 c 1,45,46
 301 26 301 26 301 22 c 1,47,-1
 303 16 l 1,48,49
 278 -5 278 -5 265 -9 c 1,50,51
 171 -4 171 -4 158 -2 c 1,52,53
 139 10 139 10 110 18 c 1,54,-1
 67 49 l 1,55,56
 24 102 24 102 24 167 c 1,57,58
 20 171 20 171 17 236 c 1,59,60
 17 258 17 258 41 319 c 1,61,62
 41 338 41 338 65 387 c 1,63,64
 77 451 77 451 149 535 c 1,65,66
 244 631 244 631 254 631 c 1,67,68
 294 648 294 648 316 648 c 0,0,1
373 634 m 1,69,-1
 367 634 l 1,70,-1
 367 632 l 1,71,-1
 372 628 l 1,72,-1
 373 628 l 1,73,-1
 375 631 l 1,74,-1
 375 632 l 1,75,-1
 373 634 l 1,69,-1
90 423 m 1,76,-1
 90 419 l 1,77,-1
 93 419 l 2,78,79
 96 419 96 419 96 427 c 1,80,81
 124 455 124 455 150 507 c 1,82,83
 234 597 234 597 259 602 c 1,84,85
 296 620 296 620 296 631 c 2,86,-1
 296 633 l 1,87,-1
 293 633 l 1,88,89
 260 627 260 627 228 599 c 1,90,91
 160 531 160 531 135 501 c 1,92,93
 92 442 92 442 90 423 c 1,76,-1
322 619 m 1,94,-1
 322 617 l 1,95,-1
 338 617 l 2,96,97
 348 617 348 617 357 623 c 1,98,-1
 357 629 l 1,99,-1
 354 633 l 1,100,-1
 345 633 l 2,101,102
 336 633 336 633 322 619 c 1,94,-1
362 625 m 1,103,-1
 360 622 l 1,104,-1
 360 621 l 1,105,-1
 362 617 l 1,106,-1
 366 617 l 1,107,-1
 369 621 l 1,108,-1
 369 622 l 1,109,-1
 366 625 l 1,110,-1
 362 625 l 1,103,-1
232 571 m 1,111,-1
 232 567 l 1,112,-1
 234 567 l 1,113,114
 254 575 254 575 284 592 c 1,115,116
 298 592 298 592 307 603 c 1,117,-1
 307 604 l 1,118,-1
 304 604 l 2,119,120
 290 604 290 604 232 571 c 1,111,-1
313 585 m 1,121,-1
 313 581 l 1,122,-1
 319 581 l 1,123,124
 355 592 355 592 355 594 c 2,125,-1
 355 597 l 1,126,-1
 348 598 l 1,127,128
 332 598 332 598 313 585 c 1,121,-1
100 410 m 1,129,-1
 96 408 l 1,130,-1
 98 404 l 1,131,-1
 99 404 l 2,132,133
 105 404 105 404 125 436 c 1,134,135
 149 467 149 467 175 496 c 1,136,137
 181 505 181 505 247 560 c 1,138,-1
 253 567 l 1,139,-1
 251 567 l 2,140,141
 219 567 219 567 167 517 c 1,142,143
 121 450 121 450 100 410 c 1,129,-1
73 361 m 2,144,-1
 73 355 l 1,145,146
 85 358 85 358 85 370 c 2,147,-1
 85 371 l 1,148,-1
 79 371 l 1,149,150
 73 368 73 368 73 361 c 2,144,-1
177 335 m 1,151,-1
 177 332 l 1,152,-1
 184 332 l 1,153,154
 198 340 198 340 251 344 c 1,155,-1
 251 345 l 1,156,157
 244 352 244 352 228 352 c 2,158,-1
 218 352 l 2,159,160
 197 352 197 352 177 335 c 1,151,-1
148 317 m 1,161,-1
 127 301 l 1,162,-1
 127 298 l 1,163,164
 135 298 135 298 152 315 c 1,165,-1
 152 317 l 1,166,-1
 148 317 l 1,161,-1
323 307 m 1,167,-1
 323 303 l 1,168,169
 334 275 334 275 355 265 c 1,170,-1
 362 265 l 1,171,-1
 362 268 l 1,172,173
 336 306 336 306 323 307 c 1,167,-1
219 305 m 1,174,-1
 216 303 l 1,175,-1
 216 301 l 1,176,-1
 222 301 l 1,177,-1
 225 303 l 1,178,-1
 222 305 l 1,179,-1
 219 305 l 1,174,-1
290 297 m 1,180,-1
 281 297 l 1,181,-1
 281 294 l 1,182,-1
 284 290 l 1,183,-1
 286 290 l 1,184,-1
 290 294 l 1,185,-1
 290 297 l 1,180,-1
79 222 m 2,186,-1
 77 219 l 1,187,188
 77 167 77 167 118 76 c 1,189,190
 171 42 171 42 193 42 c 0,191,192
 266 42 266 42 306 124 c 1,193,-1
 310 149 l 1,194,195
 310 238 310 238 282 265 c 1,196,197
 244 290 244 290 189 290 c 1,198,199
 174 285 174 285 121 251 c 1,200,201
 94 244 94 244 79 222 c 2,186,-1
319 263 m 1,202,-1
 303 260 l 1,203,-1
 303 257 l 1,204,205
 316 245 316 245 316 234 c 1,206,-1
 319 234 l 1,207,-1
 321 255 l 1,208,-1
 321 256 l 1,209,-1
 319 263 l 1,202,-1
44 236 m 1,210,-1
 44 232 l 2,211,212
 44 229 44 229 48 229 c 0,213,214
 56 229 56 229 71 245 c 1,215,-1
 71 247 l 1,216,-1
 67 251 l 1,217,218
 53 251 53 251 44 236 c 1,210,-1
358 222 m 1,219,-1
 356 220 l 1,220,-1
 356 201 l 1,221,-1
 362 196 l 1,222,-1
 365 199 l 1,223,-1
 365 211 l 2,224,225
 365 220 365 220 360 222 c 1,226,-1
 358 222 l 1,219,-1
331 214 m 1,227,-1
 327 214 l 1,228,-1
 325 209 l 1,229,-1
 325 202 l 1,230,-1
 327 200 l 1,231,-1
 328 200 l 2,232,233
 332 200 332 200 332 212 c 1,234,-1
 331 214 l 1,227,-1
49 201 m 0,235,236
 49 193 49 193 73 133 c 1,237,-1
 74 133 l 1,238,-1
 76 135 l 1,239,240
 75 164 75 164 59 212 c 1,241,242
 49 212 49 212 49 201 c 0,235,236
36 177 m 1,243,-1
 32 177 l 1,244,-1
 32 167 l 1,245,-1
 34 164 l 1,246,-1
 38 164 l 1,247,-1
 38 171 l 1,248,-1
 36 177 l 1,243,-1
348 172 m 1,249,-1
 344 167 l 1,250,-1
 344 164 l 1,251,-1
 345 157 l 1,252,-1
 346 157 l 1,253,254
 352 160 352 160 352 169 c 1,255,-1
 348 172 l 1,249,-1
322 164 m 1,256,-1
 319 160 l 1,257,-1
 319 159 l 1,258,-1
 323 156 l 1,259,-1
 326 156 l 1,260,-1
 329 159 l 1,261,-1
 329 160 l 1,262,-1
 327 164 l 1,263,-1
 322 164 l 1,256,-1
38 157 m 1,264,-1
 34 153 l 1,265,-1
 34 146 l 1,266,267
 40 109 40 109 48 109 c 1,268,-1
 49 112 l 1,269,-1
 49 123 l 2,270,271
 49 157 49 157 38 157 c 1,264,-1
332 139 m 1,272,-1
 329 139 l 1,273,-1
 329 137 l 1,274,-1
 333 133 l 1,275,-1
 335 133 l 1,276,-1
 335 135 l 1,277,-1
 332 139 l 1,272,-1
74 109 m 1,278,-1
 70 109 l 1,279,-1
 70 105 l 1,280,-1
 75 100 l 1,281,-1
 77 100 l 1,282,-1
 77 105 l 1,283,-1
 74 109 l 1,278,-1
331 103 m 1,284,-1
 311 76 l 1,285,-1
 311 74 l 1,286,-1
 315 71 l 1,287,288
 335 97 335 97 335 103 c 1,289,-1
 331 103 l 1,284,-1
56 93 m 1,290,-1
 55 88 l 1,291,292
 58 83 58 83 59 83 c 2,293,-1
 61 83 l 1,294,-1
 61 84 l 2,295,296
 61 91 61 91 56 93 c 1,290,-1
85 83 m 1,297,-1
 83 80 l 1,298,-1
 83 77 l 1,299,300
 93 61 93 61 104 61 c 2,301,-1
 105 61 l 1,302,-1
 105 63 l 2,303,304
 105 67 105 67 86 83 c 1,305,-1
 85 83 l 1,297,-1
286 59 m 1,306,-1
 251 34 l 1,307,-1
 251 33 l 1,308,-1
 254 31 l 1,309,310
 271 31 271 31 290 56 c 1,311,-1
 290 59 l 1,312,-1
 286 59 l 1,306,-1
135 42 m 1,313,314
 137 36 137 36 140 34 c 1,315,-1
 145 34 l 2,316,317
 154 34 154 34 156 40 c 1,318,-1
 156 41 l 2,319,320
 156 45 156 45 143 46 c 1,321,-1
 137 46 l 2,322,323
 135 46 135 46 135 42 c 1,313,314
170 36 m 1,324,-1
 167 36 l 1,325,-1
 167 33 l 1,326,-1
 170 31 l 1,327,-1
 172 31 l 1,328,-1
 172 33 l 1,329,-1
 170 36 l 1,324,-1
175 26 m 1,330,331
 183 21 183 21 193 21 c 0,332,333
 208 21 208 21 216 28 c 1,334,-1
 216 30 l 1,335,-1
 189 30 l 2,336,337
 175 30 175 30 175 26 c 1,330,331
283 28 m 1,338,-1
 253 13 l 1,339,-1
 253 11 l 1,340,-1
 256 11 l 2,341,342
 273 11 273 11 286 27 c 1,343,-1
 286 28 l 1,344,-1
 283 28 l 1,338,-1
EndSplineSet
EndChar

StartChar: seven
Encoding: 55 55 26
Width: 409
GlyphClass: 2
Flags: W
LayerCount: 2
Fore
SplineSet
49 724 m 1,0,1
 219 710 219 710 339 706 c 1,2,3
 359 698 359 698 380 692 c 1,4,-1
 386 692 l 1,5,-1
 387 693 l 1,6,7
 394 692 394 692 394 689 c 2,8,-1
 394 686 l 1,9,10
 377 672 377 672 377 615 c 2,11,-1
 377 609 l 2,12,13
 377 602 377 602 387 595 c 1,14,-1
 387 594 l 1,15,-1
 361 508 l 1,16,17
 298 420 298 420 247 332 c 1,18,19
 192 259 192 259 173 216 c 1,20,-1
 172 203 l 1,21,-1
 177 117 l 1,22,-1
 167 10 l 2,23,24
 167 4 167 4 130 -2 c 1,25,-1
 121 2 l 1,26,-1
 110 2 l 1,27,-1
 117 10 l 1,28,-1
 117 12 l 1,29,-1
 115 14 l 1,30,-1
 112 14 l 2,31,32
 102 14 102 14 94 10 c 1,33,34
 85 10 85 10 85 30 c 2,35,-1
 85 63 l 1,36,-1
 86 139 l 1,37,-1
 85 175 l 1,38,39
 96 224 96 224 117 256 c 1,40,41
 142 282 142 282 142 302 c 1,42,43
 146 302 146 302 150 317 c 1,44,-1
 198 388 l 1,45,46
 238 452 238 452 265 519 c 1,47,-1
 270 526 l 1,48,-1
 270 529 l 1,49,-1
 268 531 l 1,50,-1
 301 617 l 1,51,-1
 301 619 l 1,52,53
 288 619 288 619 241 633 c 1,54,55
 207 633 207 633 173 639 c 1,56,-1
 152 632 l 1,57,58
 83 640 83 640 67 640 c 2,59,-1
 59 640 l 2,60,61
 47 640 47 640 47 638 c 1,62,63
 30 638 30 638 22 679 c 1,64,65
 20 679 20 679 20 686 c 1,66,67
 25 706 25 706 36 706 c 2,68,-1
 49 705 l 1,69,-1
 49 706 l 1,70,-1
 38 717 l 1,71,-1
 38 718 l 2,72,73
 38 721 38 721 49 724 c 1,0,1
82 700 m 1,74,-1
 67 700 l 1,75,-1
 67 697 l 1,76,-1
 77 686 l 1,77,-1
 77 685 l 1,78,-1
 56 685 l 1,79,-1
 53 682 l 1,80,-1
 53 680 l 1,81,-1
 57 677 l 1,82,-1
 63 677 l 1,83,-1
 77 679 l 1,84,85
 120 671 120 671 144 671 c 2,86,-1
 171 671 l 1,87,88
 171 676 171 676 135 680 c 1,89,-1
 135 683 l 1,90,91
 258 675 258 675 301 665 c 1,92,-1
 308 665 l 2,93,94
 310 665 310 665 310 670 c 0,95,96
 310 684 310 684 229 687 c 1,97,-1
 82 700 l 1,74,-1
203 675 m 1,98,-1
 203 670 l 1,99,-1
 214 668 l 1,100,-1
 221 668 l 1,101,-1
 221 670 l 2,102,103
 221 674 221 674 203 675 c 1,98,-1
327 670 m 128,-1,105
 327 665 327 665 349 665 c 2,106,-1
 351 665 l 1,107,-1
 355 670 l 1,108,-1
 355 673 l 1,109,-1
 348 675 l 1,110,-1
 344 675 l 2,111,104
 327 675 327 675 327 670 c 128,-1,105
58 661 m 1,112,-1
 56 658 l 1,113,114
 56 652 56 652 81 652 c 2,115,-1
 97 652 l 1,116,117
 85 661 85 661 59 661 c 2,118,-1
 58 661 l 1,112,-1
193 660 m 1,119,120
 193 656 193 656 270 648 c 1,121,-1
 292 642 l 1,122,-1
 301 642 l 1,123,-1
 305 646 l 1,124,125
 305 660 305 660 193 660 c 1,119,120
344 650 m 1,126,-1
 339 645 l 1,127,-1
 339 643 l 1,128,-1
 344 643 l 1,129,-1
 346 650 l 1,130,-1
 344 650 l 1,126,-1
326 619 m 1,131,132
 328 614 328 614 329 614 c 2,133,-1
 332 614 l 1,134,-1
 337 619 l 1,135,-1
 337 625 l 1,136,-1
 334 626 l 1,137,-1
 329 626 l 1,138,139
 326 624 326 624 326 619 c 1,131,132
344 595 m 1,140,-1
 344 594 l 2,141,142
 344 584 344 584 349 582 c 1,143,-1
 352 582 l 2,144,145
 357 582 357 582 357 616 c 1,146,-1
 355 620 l 1,147,148
 349 616 349 616 344 595 c 1,140,-1
315 604 m 1,149,-1
 314 604 l 1,150,-1
 315 598 l 1,151,-1
 319 598 l 1,152,-1
 319 601 l 1,153,-1
 315 604 l 1,149,-1
347 570 m 1,154,-1
 342 570 l 1,155,-1
 342 569 l 1,156,-1
 340 541 l 1,157,-1
 342 539 l 1,158,-1
 344 539 l 2,159,160
 346 539 346 539 351 559 c 1,161,-1
 351 563 l 1,162,-1
 347 570 l 1,154,-1
293 562 m 1,163,-1
 288 562 l 1,164,-1
 288 559 l 1,165,-1
 274 518 l 1,166,-1
 274 517 l 1,167,-1
 276 517 l 1,168,169
 294 544 294 544 295 557 c 1,170,-1
 295 560 l 1,171,-1
 293 562 l 1,163,-1
232 411 m 2,172,-1
 232 409 l 1,173,-1
 238 409 l 2,174,175
 248 409 248 409 268 448 c 1,176,177
 310 516 310 516 310 526 c 2,178,-1
 310 528 l 1,179,-1
 308 531 l 1,180,-1
 304 531 l 1,181,182
 297 525 297 525 266 473 c 1,183,184
 232 420 232 420 232 411 c 2,172,-1
308 481 m 1,185,-1
 307 481 l 1,186,187
 279 435 279 435 279 427 c 1,188,-1
 282 427 l 1,189,190
 309 458 309 458 309 481 c 1,191,-1
 308 481 l 1,185,-1
263 400 m 2,192,-1
 263 398 l 1,193,194
 264 398 264 398 278 415 c 1,195,-1
 278 418 l 1,196,-1
 275 418 l 1,197,198
 263 408 263 408 263 400 c 2,192,-1
241 362 m 1,199,-1
 243 362 l 1,200,201
 257 378 257 378 257 388 c 2,202,-1
 257 390 l 1,203,-1
 256 390 l 2,204,205
 248 390 248 390 241 362 c 1,199,-1
210 326 m 1,206,-1
 210 322 l 1,207,-1
 214 322 l 1,208,-1
 220 336 l 1,209,-1
 218 337 l 1,210,211
 212 337 212 337 210 326 c 1,206,-1
164 322 m 1,212,-1
 164 318 l 1,213,-1
 166 318 l 1,214,215
 181 328 181 328 181 334 c 1,216,-1
 179 334 l 1,217,218
 172 332 172 332 164 322 c 1,212,-1
167 292 m 1,219,-1
 169 292 l 2,220,221
 174 292 174 292 177 299 c 1,222,-1
 175 301 l 1,223,224
 167 299 167 299 167 292 c 1,219,-1
159 283 m 1,225,-1
 156 279 l 1,226,-1
 156 276 l 1,227,-1
 157 276 l 1,228,-1
 162 280 l 1,229,-1
 162 283 l 1,230,-1
 159 283 l 1,225,-1
121 235 m 1,231,-1
 122 235 l 1,232,233
 138 245 138 245 138 251 c 1,234,-1
 137 251 l 1,235,236
 121 244 121 244 121 235 c 1,231,-1
138 221 m 1,237,-1
 134 217 l 1,238,-1
 134 216 l 1,239,-1
 139 216 l 1,240,-1
 140 220 l 1,241,-1
 139 221 l 1,242,-1
 138 221 l 1,237,-1
134 196 m 2,243,-1
 134 179 l 1,244,245
 142 153 142 153 142 148 c 1,246,-1
 146 146 l 1,247,-1
 147 146 l 2,248,249
 150 146 150 146 152 160 c 1,250,-1
 147 185 l 1,251,-1
 150 206 l 1,252,-1
 149 206 l 1,253,-1
 148 207 l 1,254,255
 134 202 134 202 134 196 c 2,243,-1
117 183 m 1,256,-1
 113 183 l 1,257,-1
 113 179 l 1,258,-1
 117 182 l 1,259,-1
 117 183 l 1,256,-1
140 95 m 1,260,-1
 137 95 l 1,261,-1
 137 92 l 2,262,263
 137 83 137 83 142 81 c 1,264,-1
 144 81 l 1,265,-1
 147 84 l 1,266,-1
 147 85 l 2,267,268
 147 92 147 92 140 95 c 1,260,-1
130 49 m 1,269,-1
 128 45 l 1,270,-1
 128 43 l 1,271,-1
 130 43 l 1,272,-1
 132 45 l 1,273,-1
 132 49 l 1,274,-1
 130 49 l 1,269,-1
102 38 m 1,275,-1
 97 34 l 1,276,-1
 97 30 l 1,277,278
 100 23 100 23 110 23 c 2,279,-1
 122 23 l 2,280,281
 131 23 131 23 132 27 c 1,282,283
 132 38 132 38 110 38 c 2,284,-1
 102 38 l 1,275,-1
150 24 m 1,285,-1
 148 22 l 1,286,-1
 149 20 l 1,287,-1
 153 20 l 1,288,-1
 153 24 l 1,289,-1
 150 24 l 1,285,-1
EndSplineSet
EndChar

StartChar: eight
Encoding: 56 56 27
Width: 461
GlyphClass: 2
Flags: W
LayerCount: 2
Fore
SplineSet
246 707 m 2,0,-1
 254 707 l 2,1,2
 265 707 265 707 290 691 c 1,3,4
 333 675 333 675 333 656 c 1,5,6
 365 587 365 587 365 553 c 1,7,8
 363 544 363 544 358 499 c 1,9,10
 341 454 341 454 315 421 c 1,11,12
 399 351 399 351 409 315 c 1,13,14
 409 309 409 309 435 268 c 1,15,-1
 432 202 l 1,16,-1
 431 198 l 1,17,-1
 428 198 l 1,18,-1
 428 208 l 2,19,20
 428 218 428 218 425 218 c 2,21,-1
 422 218 l 2,22,23
 416 218 416 218 413 194 c 1,24,25
 416 181 416 181 419 181 c 2,26,-1
 421 181 l 2,27,28
 427 181 427 181 428 194 c 1,29,-1
 431 194 l 1,30,31
 431 162 431 162 413 135 c 1,32,-1
 409 142 l 1,33,-1
 405 142 l 1,34,-1
 401 139 l 1,35,-1
 401 134 l 1,36,-1
 406 129 l 1,37,-1
 405 122 l 1,38,-1
 409 112 l 1,39,40
 409 104 409 104 388 90 c 1,41,-1
 388 92 l 1,42,-1
 391 96 l 1,43,-1
 391 97 l 1,44,-1
 388 100 l 1,45,-1
 382 100 l 1,46,47
 365 91 365 91 356 65 c 1,48,-1
 361 63 l 1,49,-1
 384 81 l 1,50,-1
 384 80 l 1,51,52
 361 45 361 45 337 38 c 1,53,54
 323 25 323 25 297 13 c 1,55,56
 279 -2 279 -2 225 -14 c 1,57,58
 225 -16 225 -16 213 -16 c 0,59,60
 190 -16 190 -16 131 8 c 1,61,62
 95 8 95 8 41 128 c 1,63,64
 38 128 38 128 33 163 c 1,65,-1
 33 181 l 2,66,67
 33 242 33 242 53 282 c 1,68,69
 64 333 64 333 79 333 c 1,70,71
 79 344 79 344 106 376 c 2,72,-1
 117 389 l 1,73,-1
 117 392 l 1,74,75
 107 392 107 392 53 456 c 1,76,77
 23 543 23 543 23 560 c 1,78,79
 31 566 31 566 31 579 c 1,80,-1
 38 576 l 1,81,-1
 39 576 l 1,82,83
 44 578 44 578 44 585 c 2,84,-1
 44 591 l 1,85,-1
 40 596 l 1,86,-1
 38 596 l 1,87,-1
 35 588 l 1,88,-1
 31 589 l 1,89,-1
 31 591 l 1,90,91
 41 625 41 625 70 643 c 1,92,93
 80 671 80 671 112 683 c 0,94,95
 172 707 172 707 246 707 c 2,0,-1
79 629 m 1,96,-1
 81 628 l 1,97,-1
 82 628 l 2,98,99
 90 628 90 628 142 679 c 1,100,101
 146 679 146 679 146 683 c 1,102,-1
 144 683 l 2,103,104
 124 683 124 683 89 650 c 1,105,106
 82 641 82 641 79 629 c 1,96,-1
207 671 m 1,107,-1
 207 668 l 1,108,-1
 265 652 l 1,109,-1
 265 670 l 1,110,-1
 268 670 l 1,111,-1
 268 671 l 1,112,-1
 290 664 l 1,113,-1
 293 664 l 1,114,115
 293 677 293 677 246 677 c 1,116,117
 238 679 238 679 225 679 c 0,118,119
 215 679 215 679 207 671 c 1,107,-1
126 644 m 1,120,-1
 129 644 l 1,121,122
 153 656 153 656 153 663 c 1,123,-1
 149 663 l 1,124,125
 133 657 133 657 126 644 c 1,120,-1
106 540 m 2,126,-1
 106 535 l 1,127,128
 108 498 108 498 169 425 c 1,129,-1
 182 416 l 1,130,-1
 183 416 l 1,131,-1
 195 419 l 1,132,-1
 204 419 l 2,133,134
 236 419 236 419 280 443 c 0,135,136
 296 452 296 452 315 491 c 0,137,138
 322 506 322 506 330 506 c 1,139,-1
 328 516 l 1,140,-1
 334 538 l 1,141,-1
 334 544 l 2,142,143
 334 545 334 545 326 547 c 1,144,-1
 301 613 l 1,145,146
 295 624 295 624 270 628 c 1,147,148
 260 640 260 640 195 658 c 1,149,150
 174 658 174 658 114 607 c 1,151,152
 106 586 106 586 106 540 c 2,126,-1
302 654 m 1,153,-1
 293 654 l 1,154,-1
 293 653 l 1,155,156
 296 646 296 646 304 646 c 2,157,-1
 305 646 l 1,158,-1
 308 648 l 1,159,160
 305 652 305 652 302 654 c 1,153,-1
321 636 m 1,161,-1
 321 634 l 1,162,163
 328 616 328 616 336 616 c 1,164,-1
 336 621 l 1,165,166
 330 636 330 636 321 636 c 1,161,-1
43 607 m 1,167,-1
 43 601 l 1,168,-1
 44 601 l 1,169,170
 58 606 58 606 58 621 c 2,171,-1
 58 626 l 1,172,-1
 54 626 l 2,173,174
 49 626 49 626 43 607 c 1,167,-1
49 559 m 1,175,176
 49 540 49 540 52 540 c 2,177,-1
 53 540 l 2,178,179
 63 540 63 540 66 553 c 1,180,-1
 66 566 l 2,181,182
 66 598 66 598 78 613 c 1,183,-1
 78 621 l 1,184,-1
 69 621 l 2,185,186
 63 621 63 621 60 590 c 1,187,188
 56 590 56 590 49 559 c 1,175,176
329 607 m 2,189,-1
 324 607 l 1,190,-1
 324 603 l 1,191,-1
 321 592 l 1,192,-1
 330 576 l 1,193,194
 330 567 330 567 334 563 c 1,195,-1
 333 556 l 1,196,-1
 333 555 l 1,197,-1
 334 555 l 1,198,-1
 337 559 l 1,199,-1
 337 576 l 2,200,201
 337 607 337 607 329 607 c 2,189,-1
89 557 m 1,202,-1
 92 555 l 1,203,204
 95 560 95 560 95 565 c 1,205,-1
 94 565 l 1,206,207
 89 563 89 563 89 557 c 1,202,-1
79 532 m 0,208,209
 85 485 85 485 109 455 c 1,210,211
 139 423 139 423 149 419 c 1,212,-1
 153 419 l 1,213,214
 153 421 153 421 124 462 c 1,215,216
 93 517 93 517 91 535 c 1,217,-1
 85 540 l 1,218,-1
 84 540 l 1,219,220
 79 538 79 538 79 532 c 0,208,209
351 537 m 1,221,-1
 347 540 l 1,222,223
 340 520 340 520 340 508 c 1,224,-1
 341 507 l 1,225,-1
 344 507 l 1,226,227
 351 508 351 508 351 520 c 2,228,-1
 351 537 l 1,221,-1
45 522 m 1,229,230
 50 491 50 491 74 450 c 1,231,232
 77 450 77 450 92 427 c 1,233,234
 113 402 113 402 131 402 c 2,235,-1
 138 402 l 1,236,-1
 138 404 l 2,237,238
 138 407 138 407 89 450 c 1,239,240
 69 473 69 473 69 481 c 1,241,242
 62 490 62 490 56 531 c 1,243,-1
 54 532 l 1,244,-1
 49 532 l 1,245,246
 45 531 45 531 45 522 c 1,229,230
287 430 m 1,247,-1
 287 429 l 1,248,-1
 289 429 l 2,249,250
 305 429 305 429 331 470 c 1,251,-1
 334 483 l 1,252,-1
 334 490 l 1,253,-1
 331 495 l 1,254,255
 324 493 324 493 308 455 c 1,256,257
 301 444 301 444 287 430 c 1,247,-1
243 414 m 1,258,-1
 245 412 l 1,259,-1
 250 412 l 2,260,261
 256 412 256 412 265 418 c 1,262,-1
 265 421 l 1,263,264
 251 421 251 421 243 414 c 1,258,-1
301 411 m 1,265,-1
 297 409 l 1,266,267
 310 402 310 402 321 402 c 1,268,-1
 322 404 l 1,269,-1
 322 408 l 1,270,-1
 319 411 l 1,271,-1
 301 411 l 1,265,-1
283 398 m 1,272,-1
 271 394 l 1,273,-1
 271 392 l 1,274,275
 273 388 273 388 315 373 c 1,276,277
 335 358 335 358 340 358 c 1,278,-1
 340 364 l 1,279,280
 316 398 316 398 283 398 c 1,272,-1
154 394 m 2,281,-1
 148 394 l 1,282,-1
 148 391 l 2,283,284
 148 387 148 387 164 386 c 1,285,-1
 173 386 l 1,286,-1
 175 389 l 1,287,288
 175 394 175 394 154 394 c 2,281,-1
207 394 m 1,289,-1
 194 394 l 1,290,-1
 194 391 l 1,291,-1
 196 389 l 1,292,-1
 200 389 l 2,293,294
 216 389 216 389 229 392 c 1,295,-1
 229 394 l 1,296,-1
 207 394 l 1,289,-1
70 308 m 1,297,-1
 74 308 l 2,298,299
 81 308 81 308 132 361 c 1,300,301
 137 361 137 361 146 373 c 1,302,-1
 146 374 l 1,303,304
 144 380 144 380 135 380 c 2,305,-1
 131 380 l 2,306,307
 115 380 115 380 87 340 c 0,308,309
 86 340 86 340 81 326 c 1,310,311
 70 315 70 315 70 308 c 1,297,-1
114 288 m 1,312,-1
 116 286 l 1,313,-1
 116 285 l 1,314,-1
 122 286 l 1,315,-1
 124 283 l 1,316,317
 95 222 95 222 95 207 c 2,318,-1
 95 204 l 2,319,320
 95 102 95 102 129 77 c 1,321,322
 170 38 170 38 198 38 c 2,323,-1
 207 38 l 1,324,-1
 210 41 l 1,325,326
 209 43 209 43 173 59 c 1,327,328
 142 78 142 78 132 90 c 1,329,-1
 132 92 l 1,330,-1
 134 92 l 1,331,-1
 186 62 l 1,332,333
 248 41 248 41 265 41 c 2,334,-1
 268 41 l 2,335,336
 276 41 276 41 301 65 c 1,337,-1
 301 59 l 1,338,339
 329 69 329 69 347 103 c 1,340,-1
 351 117 l 1,341,-1
 351 119 l 1,342,-1
 337 112 l 1,343,-1
 337 113 l 1,344,345
 361 147 361 147 361 160 c 0,346,347
 361 201 361 201 351 232 c 1,348,-1
 351 243 l 2,349,350
 351 255 351 255 343 298 c 1,351,-1
 343 299 l 1,352,-1
 346 301 l 1,353,-1
 355 295 l 1,354,-1
 355 297 l 1,355,-1
 355 301 l 2,356,357
 355 312 355 312 347 317 c 1,358,-1
 344 317 l 1,359,-1
 344 307 l 1,360,-1
 341 307 l 1,361,362
 337 308 337 308 328 336 c 1,363,364
 298 377 298 377 245 377 c 1,365,366
 142 359 142 359 142 332 c 0,367,368
 142 301 142 301 114 288 c 1,312,-1
87 293 m 1,369,370
 94 293 94 293 101 303 c 1,371,-1
 101 305 l 1,372,-1
 99 305 l 2,373,374
 88 305 88 305 87 293 c 1,369,370
66 235 m 0,375,376
 66 230 66 230 78 228 c 1,377,378
 88 228 88 228 94 248 c 1,379,-1
 94 254 l 2,380,381
 94 257 94 257 82 257 c 1,382,-1
 81 258 l 1,383,-1
 81 260 l 2,384,385
 81 263 81 263 91 263 c 0,386,387
 95 263 95 263 101 276 c 1,388,-1
 101 278 l 1,389,-1
 99 280 l 1,390,391
 92 280 92 280 85 276 c 1,392,-1
 85 278 l 1,393,-1
 85 279 l 1,394,-1
 85 280 l 1,395,-1
 85 286 l 1,396,-1
 78 286 l 2,397,398
 66 286 66 286 66 235 c 0,375,376
387 273 m 0,399,400
 389 249 389 249 393 248 c 0,401,402
 396 248 396 248 397 260 c 1,403,404
 394 276 394 276 390 276 c 0,405,406
 387 276 387 276 387 273 c 0,399,400
372 225 m 2,407,-1
 372 221 l 1,408,-1
 374 210 l 1,409,-1
 371 206 l 1,410,-1
 371 201 l 2,411,412
 371 193 371 193 376 193 c 2,413,-1
 381 193 l 1,414,415
 388 196 388 196 388 203 c 2,416,-1
 388 207 l 1,417,418
 382 243 382 243 378 243 c 2,419,-1
 376 243 l 2,420,421
 372 243 372 243 372 225 c 2,407,-1
45 150 m 1,422,423
 70 96 70 96 82 82 c 1,424,-1
 84 82 l 1,425,-1
 84 84 l 1,426,-1
 62 178 l 2,427,428
 58 193 58 193 58 211 c 1,429,-1
 60 231 l 1,430,-1
 59 232 l 1,431,-1
 54 232 l 2,432,433
 48 232 48 232 45 150 c 1,422,423
413 164 m 1,434,-1
 415 163 l 1,435,-1
 416 163 l 1,436,437
 421 165 421 165 421 171 c 1,438,-1
 419 171 l 2,439,440
 416 171 416 171 413 164 c 1,434,-1
390 124 m 1,441,-1
 386 121 l 1,442,-1
 386 115 l 1,443,-1
 387 115 l 1,444,-1
 391 119 l 1,445,-1
 391 124 l 1,446,-1
 390 124 l 1,441,-1
318 90 m 1,447,-1
 322 95 l 1,448,-1
 324 95 l 1,449,-1
 324 92 l 1,450,-1
 319 87 l 1,451,-1
 318 87 l 1,452,-1
 318 90 l 1,447,-1
310 77 m 1,453,-1
 310 80 l 1,454,-1
 314 80 l 1,455,-1
 314 77 l 1,456,-1
 310 77 l 1,453,-1
104 70 m 1,457,-1
 101 70 l 1,458,-1
 101 56 l 2,459,460
 101 38 101 38 129 31 c 1,461,-1
 131 31 l 1,462,-1
 134 33 l 1,463,464
 126 51 126 51 104 70 c 1,457,-1
229 37 m 1,465,-1
 220 36 l 1,466,-1
 220 33 l 1,467,-1
 221 31 l 1,468,-1
 232 31 l 2,469,470
 238 31 238 31 239 34 c 1,471,-1
 239 36 l 1,472,-1
 233 37 l 1,473,-1
 229 37 l 1,465,-1
151 26 m 1,474,-1
 148 24 l 1,475,-1
 148 22 l 1,476,477
 163 3 163 3 208 3 c 1,478,479
 221 4 221 4 221 6 c 2,480,-1
 221 9 l 1,481,482
 209 9 209 9 155 26 c 1,483,-1
 151 26 l 1,474,-1
236 11 m 2,484,-1
 236 8 l 1,485,-1
 237 8 l 2,486,487
 251 8 251 8 268 21 c 1,488,-1
 268 23 l 1,489,-1
 267 23 l 1,490,491
 236 16 236 16 236 11 c 2,484,-1
EndSplineSet
EndChar

StartChar: nine
Encoding: 57 57 28
Width: 459
GlyphClass: 2
Flags: W
LayerCount: 2
Fore
SplineSet
200 652 m 1,0,-1
 213 653 l 1,1,2
 340 652 340 652 340 639 c 1,3,4
 380 614 380 614 380 602 c 1,5,6
 358 618 358 618 351 618 c 2,7,-1
 346 618 l 1,8,-1
 346 617 l 1,9,10
 347 609 347 609 385 580 c 1,11,-1
 388 580 l 1,12,-1
 385 591 l 1,13,-1
 387 591 l 1,14,15
 409 566 409 566 419 511 c 1,16,-1
 440 415 l 1,17,-1
 440 400 l 1,18,19
 429 296 429 296 425 296 c 1,20,21
 420 276 420 276 407 233 c 1,22,23
 407 208 407 208 393 192 c 1,24,-1
 391 193 l 1,25,-1
 391 198 l 1,26,-1
 394 203 l 1,27,-1
 393 214 l 1,28,-1
 391 214 l 1,29,-1
 363 178 l 1,30,31
 341 168 341 168 341 158 c 0,32,33
 341 154 341 154 347 151 c 1,34,-1
 350 151 l 2,35,36
 361 151 361 151 388 185 c 1,37,-1
 390 185 l 1,38,-1
 391 184 l 1,39,40
 391 156 391 156 311 91 c 1,41,42
 288 75 288 75 229 31 c 0,43,44
 223 26 223 26 217 12 c 1,45,46
 159 -37 159 -37 153 -37 c 0,47,48
 135 -37 135 -37 117 -45 c 1,49,50
 104 -45 104 -45 85 22 c 1,51,-1
 94 32 l 1,52,-1
 88 40 l 1,53,-1
 88 41 l 1,54,-1
 99 57 l 1,55,-1
 113 57 l 1,56,57
 130 72 130 72 136 72 c 1,58,59
 131 67 131 67 131 63 c 1,60,-1
 132 63 l 1,61,-1
 133 62 l 1,62,-1
 135 62 l 1,63,64
 139 63 139 63 141 67 c 1,65,-1
 141 72 l 1,66,-1
 138 72 l 1,67,-1
 138 73 l 1,68,69
 159 75 159 75 221 126 c 1,70,71
 292 177 292 177 300 185 c 1,72,73
 312 201 312 201 329 211 c 1,74,75
 345 228 345 228 345 236 c 2,76,-1
 345 237 l 1,77,-1
 341 237 l 1,78,-1
 334 236 l 1,79,-1
 329 237 l 1,80,81
 356 296 356 296 356 304 c 2,82,-1
 356 309 l 1,83,-1
 353 312 l 1,84,-1
 351 312 l 2,85,86
 346 312 346 312 287 258 c 1,87,88
 266 248 266 248 202 248 c 1,89,-1
 174 258 l 1,90,91
 124 267 124 267 108 286 c 0,92,93
 31 377 31 377 31 409 c 1,94,95
 13 445 13 445 13 473 c 2,96,-1
 13 482 l 2,97,98
 13 511 13 511 48 561 c 1,99,100
 48 568 48 568 76 611 c 1,101,102
 129 652 129 652 200 652 c 1,0,-1
183 639 m 1,103,-1
 165 639 l 1,104,-1
 165 636 l 2,105,106
 165 632 165 632 203 630 c 1,107,-1
 203 632 l 2,108,109
 203 637 203 637 183 639 c 1,103,-1
297 639 m 1,110,-1
 294 636 l 1,111,112
 299 622 299 622 321 622 c 1,113,-1
 324 626 l 1,114,115
 317 639 317 639 301 639 c 2,116,-1
 297 639 l 1,110,-1
215 635 m 1,117,-1
 211 635 l 1,118,119
 226 623 226 623 287 607 c 1,120,-1
 293 607 l 1,121,122
 293 616 293 616 232 634 c 1,123,-1
 215 635 l 1,117,-1
110 607 m 1,124,-1
 110 605 l 2,125,126
 110 602 110 602 113 602 c 1,127,128
 120 606 120 606 131 617 c 1,129,-1
 130 618 l 1,130,-1
 128 618 l 1,131,132
 113 612 113 612 110 607 c 1,124,-1
335 615 m 1,133,-1
 333 612 l 1,134,-1
 333 611 l 1,135,-1
 335 611 l 1,136,-1
 337 614 l 1,137,-1
 337 615 l 1,138,-1
 335 615 l 1,133,-1
145 603 m 1,139,-1
 145 602 l 1,140,-1
 146 602 l 2,141,142
 165 602 165 602 183 607 c 1,143,-1
 183 611 l 1,144,-1
 173 612 l 1,145,146
 152 612 152 612 145 603 c 1,139,-1
98 541 m 1,147,-1
 79 440 l 1,148,-1
 79 428 l 1,149,150
 80 424 80 424 92 419 c 1,151,152
 103 378 103 378 114 370 c 1,153,154
 195 322 195 322 215 322 c 2,155,-1
 218 322 l 1,156,157
 274 338 274 338 300 366 c 1,158,-1
 329 415 l 1,159,160
 363 440 363 440 363 465 c 2,161,-1
 363 467 l 2,162,163
 363 535 363 535 300 571 c 1,164,165
 266 598 266 598 247 598 c 1,166,-1
 232 601 l 1,167,168
 220 595 220 595 174 586 c 1,169,170
 98 558 98 558 98 541 c 1,147,-1
91 581 m 1,171,-1
 94 577 l 1,172,-1
 95 577 l 1,173,174
 108 584 108 584 108 592 c 2,175,-1
 108 595 l 1,176,-1
 103 595 l 1,177,178
 91 592 91 592 91 581 c 1,171,-1
302 595 m 1,179,-1
 299 595 l 1,180,181
 299 582 299 582 328 571 c 1,182,-1
 329 573 l 1,183,-1
 329 574 l 2,184,185
 329 582 329 582 302 595 c 1,179,-1
85 568 m 1,186,-1
 83 566 l 1,187,-1
 83 564 l 1,188,-1
 85 562 l 1,189,-1
 89 566 l 1,190,-1
 85 568 l 1,186,-1
52 517 m 2,191,-1
 52 508 l 1,192,-1
 54 506 l 1,193,-1
 50 498 l 1,194,-1
 50 489 l 1,195,196
 52 481 52 481 54 481 c 2,197,-1
 56 481 l 2,198,199
 62 481 62 481 64 531 c 1,200,-1
 63 535 l 1,201,-1
 60 535 l 1,202,203
 52 527 52 527 52 517 c 2,191,-1
383 535 m 1,204,-1
 380 535 l 1,205,-1
 380 531 l 1,206,-1
 384 519 l 1,207,-1
 384 506 l 1,208,-1
 390 489 l 1,209,-1
 387 482 l 1,210,-1
 395 466 l 1,211,-1
 394 461 l 1,212,213
 399 456 399 456 403 420 c 1,214,-1
 412 420 l 1,215,216
 417 423 417 423 417 430 c 2,217,-1
 417 432 l 2,218,219
 417 492 417 492 401 492 c 1,220,-1
 391 508 l 1,221,-1
 391 511 l 1,222,-1
 393 511 l 1,223,-1
 397 509 l 1,224,-1
 400 509 l 1,225,-1
 400 511 l 2,226,227
 400 518 400 518 383 535 c 1,204,-1
27 489 m 1,228,-1
 27 484 l 1,229,-1
 31 481 l 1,230,-1
 32 481 l 1,231,232
 38 482 38 482 38 492 c 2,233,-1
 38 500 l 1,234,-1
 34 500 l 2,235,236
 32 500 32 500 27 489 c 1,228,-1
49 460 m 0,237,238
 49 437 49 437 54 437 c 1,239,-1
 60 461 l 1,240,241
 58 472 58 472 56 472 c 2,242,-1
 54 472 l 1,243,244
 49 470 49 470 49 460 c 0,237,238
393 393 m 1,245,-1
 395 358 l 1,246,-1
 400 358 l 1,247,248
 404 373 404 373 405 398 c 1,249,250
 404 417 404 417 398 417 c 0,251,252
 393 417 393 417 393 393 c 1,245,-1
54 398 m 0,253,254
 54 386 54 386 70 358 c 1,255,-1
 74 358 l 1,256,-1
 74 360 l 1,257,-1
 73 369 l 1,258,-1
 74 370 l 1,259,-1
 82 370 l 1,260,-1
 82 372 l 1,261,262
 68 401 68 401 57 401 c 0,263,264
 54 401 54 401 54 398 c 0,253,254
83 351 m 1,265,-1
 81 351 l 1,266,-1
 81 347 l 1,267,268
 92 333 92 333 103 333 c 2,269,-1
 104 333 l 1,270,-1
 104 334 l 1,271,-1
 83 351 l 1,265,-1
108 314 m 2,272,-1
 104 314 l 1,273,-1
 104 309 l 1,274,275
 117 302 117 302 123 302 c 2,276,-1
 128 302 l 1,277,-1
 128 304 l 1,278,279
 121 314 121 314 108 314 c 2,272,-1
267 267 m 1,280,-1
 262 267 l 1,281,-1
 262 264 l 1,282,-1
 265 264 l 1,283,-1
 267 265 l 1,284,-1
 267 267 l 1,280,-1
390 225 m 1,285,-1
 391 224 l 1,286,287
 398 224 398 224 405 249 c 1,288,-1
 405 250 l 1,289,-1
 403 250 l 2,290,291
 397 250 397 250 390 225 c 1,285,-1
363 232 m 1,292,-1
 363 229 l 1,293,-1
 364 229 l 2,294,295
 374 229 374 229 374 239 c 2,296,-1
 374 240 l 1,297,-1
 372 240 l 1,298,299
 365 239 365 239 363 232 c 1,292,-1
319 217 m 1,300,-1
 329 229 l 1,301,302
 324 214 324 214 324 211 c 1,303,-1
 319 211 l 1,304,-1
 319 217 l 1,300,-1
275 94 m 1,305,-1
 275 93 l 1,306,-1
 277 92 l 1,307,-1
 279 92 l 1,308,309
 303 103 303 103 339 136 c 1,310,-1
 339 139 l 1,311,-1
 337 139 l 1,312,313
 317 135 317 135 277 95 c 1,314,-1
 275 94 l 1,305,-1
236 113 m 1,315,-1
 236 111 l 1,316,317
 243 111 243 111 249 120 c 1,318,-1
 248 121 l 1,319,-1
 247 121 l 1,320,321
 237 117 237 117 236 113 c 1,315,-1
188 29 m 1,322,-1
 188 25 l 1,323,-1
 189 25 l 1,324,325
 211 34 211 34 211 45 c 2,326,-1
 211 47 l 1,327,328
 192 41 192 41 188 29 c 1,322,-1
112 38 m 1,329,-1
 110 35 l 1,330,-1
 112 32 l 1,331,-1
 116 37 l 1,332,-1
 116 38 l 1,333,-1
 112 38 l 1,329,-1
139 6 m 1,334,-1
 142 4 l 1,335,336
 160 4 160 4 178 27 c 1,337,-1
 178 31 l 1,338,-1
 176 31 l 2,339,340
 161 31 161 31 139 6 c 1,334,-1
113 -16 m 2,341,-1
 113 -27 l 1,342,-1
 117 -27 l 1,343,344
 128 -19 128 -19 128 -13 c 2,345,-1
 128 -12 l 1,346,-1
 123 -6 l 1,347,348
 113 -6 113 -6 113 -16 c 2,341,-1
136 -23 m 2,349,-1
 136 -25 l 1,350,-1
 139 -25 l 1,351,-1
 153 -22 l 1,352,-1
 153 -18 l 1,353,-1
 148 -18 l 1,354,355
 136 -20 136 -20 136 -23 c 2,349,-1
EndSplineSet
EndChar

StartChar: colon
Encoding: 58 58 29
Width: 204
GlyphClass: 2
Flags: W
LayerCount: 2
Fore
SplineSet
120 480 m 0,0,1
 157 480 157 480 162 433 c 1,2,3
 162 408 162 408 131 364 c 1,4,5
 107 338 107 338 95 338 c 0,6,7
 62 338 62 338 38 385 c 1,8,-1
 38 391 l 1,9,10
 49 446 49 446 59 459 c 1,11,12
 95 480 95 480 120 480 c 0,0,1
117 470 m 1,13,-1
 98 466 l 1,14,-1
 98 462 l 1,15,-1
 104 461 l 1,16,-1
 120 461 l 2,17,18
 128 461 128 461 130 464 c 1,19,20
 130 469 130 469 117 470 c 1,13,-1
74 453 m 1,21,-1
 71 451 l 1,22,-1
 71 446 l 1,23,-1
 74 446 l 1,24,-1
 76 449 l 1,25,-1
 76 451 l 1,26,-1
 74 453 l 1,21,-1
96 427 m 1,27,-1
 96 423 l 2,28,29
 96 421 96 421 110 419 c 1,30,31
 115 411 115 411 123 411 c 1,32,-1
 123 408 l 2,33,34
 123 405 123 405 106 400 c 1,35,-1
 105 396 l 1,36,37
 110 387 110 387 113 386 c 1,38,-1
 115 386 l 1,39,40
 130 390 130 390 130 405 c 2,41,-1
 130 406 l 1,42,-1
 121 429 l 1,43,-1
 124 431 l 1,44,-1
 131 430 l 1,45,-1
 135 433 l 1,46,-1
 135 434 l 2,47,48
 135 446 135 446 114 446 c 0,49,50
 99 446 99 446 96 427 c 1,27,-1
74 419 m 1,51,-1
 71 416 l 1,52,-1
 71 408 l 2,53,54
 71 398 71 398 75 398 c 2,55,-1
 76 398 l 1,56,-1
 76 416 l 1,57,-1
 74 419 l 1,51,-1
94 185 m 1,58,-1
 115 185 l 2,59,60
 145 185 145 185 157 149 c 1,61,-1
 157 146 l 1,62,63
 151 95 151 95 142 88 c 1,64,65
 121 58 121 58 106 58 c 1,66,67
 81 64 81 64 67 81 c 1,68,69
 55 104 55 104 55 113 c 1,70,-1
 65 157 l 1,71,72
 65 177 65 177 94 185 c 1,58,-1
75 162 m 1,73,-1
 75 159 l 1,74,-1
 76 159 l 2,75,76
 86 159 86 159 95 169 c 1,77,-1
 95 172 l 1,78,-1
 92 172 l 2,79,80
 81 172 81 172 75 162 c 1,73,-1
121 156 m 1,81,-1
 118 153 l 1,82,-1
 118 152 l 2,83,84
 118 140 118 140 124 140 c 1,85,86
 128 144 128 144 128 149 c 0,87,88
 127 156 127 156 124 156 c 2,89,-1
 121 156 l 1,81,-1
103 149 m 1,90,91
 96 142 96 142 96 139 c 2,92,-1
 96 135 l 1,93,-1
 99 133 l 1,94,-1
 110 133 l 1,95,-1
 112 135 l 1,96,-1
 112 139 l 2,97,98
 112 148 112 148 103 149 c 1,90,91
112 115 m 2,99,-1
 92 117 l 1,100,-1
 90 113 l 1,101,102
 94 103 94 103 102 103 c 2,103,-1
 110 103 l 2,104,105
 135 103 135 103 135 118 c 2,106,-1
 135 121 l 1,107,-1
 135 128 l 1,108,-1
 131 128 l 1,109,110
 121 115 121 115 112 115 c 2,99,-1
EndSplineSet
EndChar

StartChar: semicolon
Encoding: 59 59 30
Width: 204
GlyphClass: 2
Flags: W
LayerCount: 2
Fore
SplineSet
104 504 m 1,0,1
 144 490 144 490 157 469 c 1,2,3
 163 440 163 440 163 428 c 1,4,5
 155 396 155 396 146 387 c 0,6,7
 129 372 129 372 114 369 c 1,8,-1
 107 370 l 1,9,-1
 103 370 l 1,10,-1
 103 369 l 1,11,-1
 107 364 l 1,12,-1
 107 363 l 1,13,-1
 103 363 l 2,14,15
 73 363 73 363 49 397 c 1,16,17
 40 412 40 412 40 434 c 0,18,19
 40 463 40 463 57 482 c 1,20,21
 86 504 86 504 104 504 c 1,0,1
73 454 m 2,22,-1
 73 450 l 1,23,24
 86 450 86 450 111 475 c 1,25,-1
 111 479 l 1,26,-1
 107 481 l 1,27,28
 73 471 73 471 73 454 c 2,22,-1
139 457 m 1,29,30
 139 447 139 447 128 409 c 1,31,-1
 128 407 l 1,32,33
 140 407 140 407 148 436 c 1,34,-1
 148 447 l 2,35,36
 148 457 148 457 139 457 c 1,29,30
101 437 m 1,37,-1
 103 434 l 1,38,-1
 106 434 l 1,39,40
 112 436 112 436 112 444 c 2,41,-1
 112 445 l 1,42,-1
 110 448 l 1,43,-1
 106 448 l 1,44,45
 101 446 101 446 101 437 c 1,37,-1
64 447 m 1,46,-1
 59 442 l 1,47,-1
 59 428 l 2,48,49
 59 416 59 416 67 410 c 1,50,-1
 69 410 l 1,51,-1
 70 417 l 1,52,53
 70 446 70 446 64 447 c 1,46,-1
89 415 m 1,54,-1
 88 415 l 1,55,-1
 88 412 l 1,56,-1
 91 409 l 1,57,-1
 92 409 l 1,58,-1
 92 412 l 1,59,-1
 89 415 l 1,54,-1
103 391 m 1,60,-1
 103 387 l 1,61,-1
 107 387 l 1,62,63
 131 392 131 392 131 397 c 2,64,-1
 131 398 l 1,65,-1
 130 398 l 2,66,67
 117 398 117 398 103 391 c 1,60,-1
116 145 m 1,68,69
 138 145 138 145 146 124 c 1,70,71
 157 124 157 124 161 111 c 1,72,73
 148 89 148 89 148 81 c 1,74,-1
 149 79 l 1,75,-1
 153 79 l 2,76,77
 157 79 157 79 164 101 c 1,78,-1
 167 101 l 2,79,80
 176 101 176 101 176 47 c 1,81,82
 161 -54 161 -54 148 -54 c 2,83,-1
 146 -54 l 1,84,-1
 145 -50 l 1,85,-1
 149 -23 l 1,86,-1
 148 -23 l 2,87,88
 142 -23 142 -23 126 -68 c 1,89,-1
 126 -72 l 1,90,-1
 128 -74 l 1,91,-1
 139 -67 l 1,92,93
 117 -100 117 -100 91 -111 c 1,94,-1
 85 -107 l 1,95,96
 104 -59 104 -59 104 -23 c 2,97,-1
 104 -20 l 2,98,99
 104 27 104 27 97 27 c 0,100,101
 35 35 35 35 35 82 c 0,102,103
 35 134 35 134 116 145 c 1,68,69
98 128 m 0,104,105
 98 124 98 124 113 122 c 1,106,-1
 122 122 l 2,107,108
 129 122 129 122 130 126 c 0,109,110
 130 130 130 130 110 132 c 1,111,-1
 106 132 l 1,112,113
 98 130 98 130 98 128 c 0,104,105
70 95 m 1,114,-1
 74 94 l 1,115,116
 85 99 85 99 87 104 c 1,117,-1
 87 108 l 1,118,-1
 85 108 l 1,119,120
 70 104 70 104 70 95 c 1,114,-1
95 83 m 1,121,-1
 98 83 l 1,122,123
 108 92 108 92 108 101 c 1,124,125
 95 97 95 97 95 83 c 1,121,-1
73 77 m 1,126,-1
 72 77 l 1,127,-1
 72 74 l 1,128,129
 78 64 78 64 92 56 c 1,130,-1
 95 56 l 1,131,-1
 95 58 l 1,132,133
 83 76 83 76 73 77 c 1,126,-1
141 45 m 1,134,-1
 139 45 l 1,135,-1
 139 41 l 1,136,-1
 141 41 l 1,137,-1
 141 45 l 1,134,-1
122 17 m 1,138,-1
 128 17 l 2,139,140
 135 17 135 17 135 25 c 2,141,-1
 135 27 l 1,142,-1
 131 27 l 1,143,144
 122 22 122 22 122 17 c 1,138,-1
148 22 m 1,145,-1
 142 16 l 1,146,-1
 142 12 l 1,147,148
 151 12 151 12 151 22 c 1,149,-1
 148 22 l 1,145,-1
114 -35 m 1,150,-1
 117 -35 l 1,151,-1
 117 -37 l 1,152,153
 129 -28 129 -28 135 -6 c 1,154,-1
 135 -5 l 1,155,-1
 132 -3 l 1,156,157
 128 -4 128 -4 120 -25 c 1,158,159
 114 -29 114 -29 114 -35 c 1,150,-1
EndSplineSet
EndChar

StartChar: less
Encoding: 60 60 31
Width: 283
GlyphClass: 2
Flags: W
LayerCount: 2
Fore
SplineSet
210 399 m 1,0,1
 227 385 227 385 232 385 c 1,2,-1
 232 380 l 1,3,4
 229 380 229 380 229 377 c 1,5,-1
 232 373 l 1,6,-1
 235 373 l 1,7,-1
 239 375 l 1,8,9
 243 375 243 375 246 369 c 1,10,11
 246 350 246 350 153 271 c 1,12,13
 139 263 139 263 139 256 c 2,14,-1
 139 253 l 2,15,16
 139 242 139 242 165 216 c 1,17,18
 200 169 200 169 252 113 c 1,19,-1
 252 110 l 1,20,21
 244 110 244 110 198 93 c 1,22,23
 180 93 180 93 131 156 c 1,24,25
 47 246 47 246 47 257 c 1,26,-1
 44 261 l 1,27,-1
 44 263 l 1,28,-1
 45 265 l 1,29,30
 59 257 59 257 66 257 c 1,31,-1
 84 288 l 1,32,-1
 84 291 l 1,33,-1
 54 286 l 1,34,-1
 53 286 l 1,35,-1
 53 288 l 1,36,37
 94 325 94 325 160 372 c 1,38,39
 190 397 190 397 210 399 c 1,0,1
194 337 m 1,40,-1
 194 333 l 1,41,42
 206 333 206 333 217 356 c 1,43,-1
 217 362 l 1,44,-1
 214 362 l 2,45,46
 203 362 203 362 194 337 c 1,40,-1
170 341 m 1,47,-1
 170 337 l 1,48,-1
 175 337 l 1,49,50
 188 338 188 338 188 344 c 2,51,-1
 188 345 l 1,52,-1
 185 347 l 1,53,-1
 180 347 l 2,54,55
 174 347 174 347 170 341 c 1,47,-1
107 322 m 1,56,-1
 109 322 l 1,57,58
 124 326 124 326 124 337 c 1,59,60
 114 337 114 337 107 322 c 1,56,-1
141 301 m 1,61,-1
 142 300 l 1,62,-1
 144 300 l 1,63,64
 153 301 153 301 166 319 c 1,65,-1
 166 323 l 1,66,-1
 161 323 l 1,67,68
 141 308 141 308 141 301 c 1,61,-1
183 152 m 1,69,-1
 180 149 l 1,70,71
 186 135 186 135 194 130 c 1,72,-1
 196 131 l 1,73,-1
 196 139 l 1,74,75
 190 148 190 148 183 152 c 1,69,-1
190 115 m 1,76,-1
 188 115 l 1,77,-1
 188 110 l 1,78,79
 191 103 191 103 198 103 c 2,80,-1
 200 103 l 1,81,-1
 200 104 l 2,82,83
 200 112 200 112 190 115 c 1,76,-1
EndSplineSet
EndChar

StartChar: equal
Encoding: 61 61 32
Width: 430
GlyphClass: 2
Flags: W
LayerCount: 2
Fore
SplineSet
372 220 m 1,0,-1
 376 219 l 2,1,2
 382 217 382 217 375 139 c 1,3,-1
 376 139 l 1,4,5
 375 129 375 129 273 139 c 1,6,7
 159 132 159 132 124 138 c 1,8,-1
 124 139 l 1,9,10
 125 148 125 148 211 146 c 1,11,12
 246 147 246 147 248 152 c 1,13,-1
 249 153 l 1,14,-1
 239 155 l 1,15,16
 121 165 121 165 117 141 c 1,17,-1
 109 139 l 1,18,19
 75 143 75 143 86 214 c 0,20,21
 89 232 89 232 167 229 c 1,22,23
 167 231 167 231 178 229 c 1,24,-1
 197 222 l 1,25,-1
 206 221 l 1,26,-1
 372 220 l 1,0,-1
349 207 m 1,27,-1
 343 206 l 1,28,-1
 342 203 l 1,29,-1
 351 202 l 1,30,-1
 357 202 l 1,31,-1
 358 205 l 1,32,-1
 349 207 l 1,27,-1
297 202 m 1,33,-1
 310 200 l 2,34,35
 319 198 319 198 322 203 c 1,36,-1
 322 204 l 1,37,-1
 319 204 l 1,38,39
 298 205 298 205 297 202 c 1,33,-1
243 202 m 1,40,-1
 243 199 l 1,41,-1
 245 199 l 1,42,43
 254 197 254 197 256 202 c 1,44,-1
 256 203 l 1,45,-1
 252 203 l 1,46,47
 245 204 245 204 243 202 c 1,40,-1
305 180 m 1,48,-1
 326 176 l 1,49,50
 359 173 359 173 363 180 c 1,51,-1
 363 182 l 1,52,-1
 358 184 l 1,53,54
 307 185 307 185 305 180 c 1,48,-1
195 200 m 1,55,-1
 194 196 l 1,56,-1
 196 196 l 1,57,58
 218 193 218 193 229 200 c 1,59,-1
 229 201 l 1,60,-1
 227 202 l 1,61,62
 218 203 218 203 195 200 c 1,55,-1
106 214 m 1,63,-1
 103 211 l 1,64,-1
 100 199 l 1,65,-1
 103 196 l 1,66,-1
 103 195 l 1,67,68
 106 195 106 195 111 207 c 1,69,-1
 111 211 l 1,70,-1
 110 214 l 1,71,-1
 106 214 l 1,63,-1
137 210 m 1,72,-1
 132 206 l 1,73,-1
 131 205 l 1,74,-1
 137 204 l 1,75,-1
 139 206 l 1,76,-1
 140 209 l 1,77,-1
 137 210 l 1,72,-1
286 182 m 1,78,-1
 283 182 l 1,79,-1
 283 180 l 1,80,-1
 289 178 l 1,81,-1
 286 182 l 1,78,-1
269 154 m 1,82,-1
 269 153 l 1,83,-1
 270 153 l 1,84,85
 358 142 358 142 360 147 c 1,86,-1
 360 148 l 2,87,88
 360 151 360 151 355 156 c 1,89,-1
 354 156 l 1,90,91
 323 160 323 160 269 154 c 1,82,-1
101 187 m 1,92,-1
 98 185 l 1,93,-1
 98 182 l 1,94,-1
 100 182 l 1,95,-1
 103 184 l 1,96,-1
 103 186 l 1,97,-1
 101 187 l 1,92,-1
380 344 m 1,98,-1
 384 343 l 2,99,100
 392 342 392 342 375 265 c 1,101,-1
 376 264 l 1,102,103
 373 254 373 254 274 272 c 1,104,105
 160 278 160 278 124 286 c 1,106,-1
 125 289 l 2,107,108
 128 297 128 297 211 286 c 1,109,110
 248 284 248 284 250 289 c 1,111,-1
 250 290 l 1,112,-1
 241 292 l 1,113,114
 124 315 124 315 118 291 c 1,115,-1
 110 289 l 1,116,117
 77 297 77 297 95 365 c 0,118,119
 99 383 99 383 177 373 c 1,120,121
 178 374 178 374 188 373 c 1,122,-1
 206 364 l 1,123,-1
 214 362 l 1,124,-1
 380 344 l 1,98,-1
355 333 m 1,125,-1
 349 333 l 1,126,-1
 348 331 l 1,127,-1
 357 328 l 1,128,-1
 364 328 l 1,129,-1
 364 330 l 1,130,-1
 355 333 l 1,125,-1
304 333 m 1,131,-1
 316 330 l 2,132,133
 326 328 326 328 328 333 c 1,134,-1
 326 334 l 1,135,136
 304 337 304 337 304 333 c 1,131,-1
250 338 m 1,137,-1
 250 336 l 1,138,139
 260 333 260 333 263 337 c 2,140,-1
 264 339 l 1,141,-1
 258 340 l 2,142,143
 252 341 252 341 250 338 c 1,137,-1
310 311 m 1,144,-1
 330 306 l 2,145,146
 361 299 361 299 366 305 c 1,147,-1
 367 308 l 1,148,-1
 363 310 l 1,149,150
 312 316 312 316 310 311 c 1,144,-1
202 342 m 1,151,-1
 201 338 l 1,152,-1
 202 337 l 1,153,154
 220 333 220 333 236 338 c 1,155,-1
 236 339 l 1,156,-1
 234 340 l 1,157,158
 222 343 222 343 202 342 c 1,151,-1
115 364 m 1,159,-1
 111 362 l 1,160,-1
 107 349 l 1,161,-1
 110 346 l 1,162,163
 113 346 113 346 119 357 c 1,164,-1
 120 361 l 1,165,-1
 117 364 l 1,166,-1
 115 364 l 1,159,-1
145 357 m 1,167,-1
 139 355 l 1,168,-1
 139 353 l 1,169,-1
 145 351 l 1,170,-1
 148 354 l 1,171,-1
 148 355 l 1,172,-1
 145 357 l 1,167,-1
291 315 m 1,173,-1
 289 315 l 1,174,-1
 288 313 l 1,175,-1
 293 311 l 1,176,-1
 291 315 l 1,173,-1
272 289 m 1,177,-1
 271 287 l 1,178,-1
 272 287 l 1,179,180
 359 267 359 267 361 273 c 1,181,-1
 362 274 l 1,182,183
 362 278 362 278 356 283 c 1,184,-1
 355 283 l 1,185,186
 324 290 324 290 272 289 c 1,177,-1
107 337 m 1,187,-1
 103 337 l 1,188,-1
 103 333 l 1,189,-1
 106 333 l 1,190,-1
 109 335 l 1,191,-1
 110 337 l 1,192,-1
 107 337 l 1,187,-1
EndSplineSet
EndChar

StartChar: greater
Encoding: 62 62 33
Width: 286
GlyphClass: 2
Flags: W
LayerCount: 2
Fore
SplineSet
100 430 m 1,0,1
 122 427 122 427 122 410 c 1,2,-1
 121 407 l 1,3,-1
 110 409 l 1,4,5
 105 408 105 408 103 404 c 1,6,-1
 103 400 l 1,7,-1
 113 400 l 1,8,-1
 128 402 l 1,9,10
 204 308 204 308 211 282 c 1,11,12
 231 256 231 256 231 250 c 128,-1,13
 231 244 231 244 243 236 c 1,14,-1
 251 222 l 1,15,16
 248 203 248 203 193 156 c 1,17,18
 141 99 141 99 128 75 c 1,19,-1
 124 75 l 1,20,-1
 124 76 l 1,21,-1
 125 89 l 1,22,-1
 124 90 l 1,23,-1
 122 90 l 1,24,25
 116 85 116 85 80 67 c 1,26,-1
 78 69 l 1,27,-1
 78 70 l 1,28,-1
 81 85 l 2,29,30
 81 88 81 88 62 94 c 1,31,-1
 57 100 l 1,32,-1
 57 115 l 1,33,-1
 53 124 l 1,34,35
 59 152 59 152 130 228 c 1,36,37
 135 228 135 228 135 231 c 2,38,-1
 135 232 l 2,39,40
 135 243 135 243 58 362 c 0,41,42
 41 387 41 387 41 392 c 1,43,-1
 46 394 l 1,44,-1
 59 389 l 1,45,-1
 61 389 l 1,46,-1
 70 400 l 1,47,48
 82 408 82 408 82 414 c 1,49,-1
 78 414 l 1,50,-1
 57 404 l 1,51,-1
 57 405 l 1,52,-1
 56 407 l 1,53,54
 68 430 68 430 100 430 c 1,0,1
71 367 m 1,55,56
 71 360 71 360 92 337 c 1,57,58
 92 332 92 332 121 294 c 1,59,-1
 162 231 l 1,60,61
 162 223 162 223 175 222 c 1,62,-1
 177 222 l 1,63,-1
 181 226 l 1,64,-1
 135 298 l 1,65,66
 117 308 117 308 117 322 c 1,67,68
 100 344 100 344 92 362 c 1,69,70
 82 375 82 375 77 375 c 0,71,72
 74 375 74 375 71 367 c 1,55,56
166 322 m 1,73,-1
 166 321 l 1,74,75
 171 304 171 304 212 239 c 1,76,-1
 211 236 l 1,77,-1
 210 236 l 2,78,79
 202 236 202 236 177 263 c 1,80,-1
 177 261 l 1,81,82
 189 225 189 225 207 225 c 2,83,-1
 229 224 l 1,84,-1
 229 226 l 1,85,86
 216 240 216 240 184 301 c 0,87,88
 172 322 172 322 166 322 c 1,73,-1
67 118 m 2,89,-1
 67 114 l 1,90,-1
 68 112 l 1,91,-1
 71 112 l 2,92,93
 78 112 78 112 112 142 c 1,94,95
 157 176 157 176 172 211 c 1,96,-1
 169 211 l 2,97,98
 161 211 161 211 71 121 c 1,99,100
 67 121 67 121 67 118 c 2,89,-1
185 195 m 1,101,-1
 185 193 l 1,102,-1
 187 193 l 2,103,104
 216 193 216 193 216 205 c 2,105,-1
 216 206 l 1,106,-1
 212 211 l 1,107,-1
 207 211 l 2,108,109
 198 211 198 211 185 195 c 1,101,-1
94 105 m 2,110,-1
 94 102 l 1,111,-1
 97 100 l 1,112,113
 117 100 117 100 144 139 c 1,114,115
 148 139 148 139 153 150 c 1,116,117
 175 150 175 150 185 175 c 1,118,-1
 185 181 l 1,119,-1
 181 181 l 1,120,121
 94 109 94 109 94 105 c 2,110,-1
EndSplineSet
EndChar

StartChar: question
Encoding: 63 63 34
Width: 409
GlyphClass: 2
Flags: W
LayerCount: 2
Fore
SplineSet
232 668 m 0,0,1
 254 668 254 668 319 641 c 1,2,3
 405 602 405 602 405 531 c 2,4,-1
 405 496 l 2,5,6
 405 461 405 461 381 422 c 1,7,8
 368 373 368 373 358 373 c 1,9,10
 319 355 319 355 319 341 c 2,11,-1
 319 331 l 2,12,13
 319 296 319 296 327 256 c 1,14,15
 324 203 324 203 314 203 c 0,16,17
 306 203 306 203 279 185 c 1,18,-1
 268 184 l 1,19,20
 251 184 251 184 251 202 c 1,21,22
 233 304 233 304 233 352 c 0,23,24
 233 362 233 362 282 401 c 1,25,26
 306 425 306 425 311 439 c 1,27,28
 322 451 322 451 324 451 c 2,29,-1
 333 448 l 1,30,31
 342 448 342 448 349 488 c 1,32,-1
 349 491 l 1,33,-1
 339 509 l 1,34,-1
 339 513 l 1,35,-1
 338 513 l 1,36,-1
 342 523 l 1,37,-1
 342 536 l 2,38,39
 342 547 342 547 326 560 c 1,40,41
 318 580 318 580 301 580 c 1,42,43
 268 592 268 592 228 592 c 2,44,-1
 218 592 l 2,45,46
 164 592 164 592 117 520 c 1,47,-1
 78 470 l 1,48,-1
 78 467 l 1,49,50
 58 441 58 441 40 461 c 0,51,52
 22 482 22 482 22 492 c 1,53,-1
 33 530 l 1,54,55
 45 558 45 558 76 584 c 0,56,57
 136 633 136 633 178 654 c 1,58,59
 203 668 203 668 232 668 c 0,0,1
178 639 m 1,60,-1
 178 637 l 1,61,-1
 189 637 l 2,62,63
 215 637 215 637 235 649 c 1,64,-1
 235 652 l 1,65,-1
 232 654 l 1,66,-1
 222 654 l 2,67,68
 199 654 199 654 178 639 c 1,60,-1
272 641 m 1,69,-1
 268 639 l 1,70,-1
 268 637 l 2,71,72
 268 634 268 634 275 634 c 0,73,74
 286 634 286 634 286 639 c 1,75,-1
 283 641 l 1,76,-1
 272 641 l 1,69,-1
154 621 m 1,77,-1
 157 618 l 1,78,-1
 169 622 l 1,79,-1
 169 627 l 1,80,-1
 167 627 l 2,81,82
 157 627 157 627 154 621 c 1,77,-1
338 616 m 1,83,-1
 337 614 l 1,84,85
 344 600 344 600 364 592 c 1,86,-1
 369 592 l 1,87,-1
 369 593 l 2,88,89
 369 600 369 600 338 616 c 1,83,-1
90 578 m 1,90,91
 109 578 109 578 131 600 c 1,92,93
 142 605 142 605 142 607 c 2,94,-1
 142 608 l 1,95,-1
 135 614 l 1,96,-1
 134 614 l 2,97,98
 129 614 129 614 97 592 c 1,99,100
 90 589 90 589 90 578 c 1,90,91
221 614 m 1,101,-1
 218 614 l 1,102,-1
 218 612 l 1,103,-1
 221 612 l 1,104,-1
 221 614 l 1,101,-1
78 569 m 1,105,-1
 74 563 l 1,106,-1
 74 562 l 1,107,-1
 75 562 l 1,108,109
 80 564 80 564 80 569 c 1,110,-1
 78 569 l 1,105,-1
386 553 m 1,111,-1
 384 553 l 1,112,-1
 384 552 l 2,113,114
 384 544 384 544 390 543 c 1,115,-1
 391 543 l 1,116,-1
 391 544 l 2,117,118
 391 551 391 551 386 553 c 1,111,-1
103 540 m 2,119,-1
 103 538 l 1,120,-1
 105 538 l 1,121,122
 110 540 110 540 112 546 c 1,123,-1
 112 548 l 1,124,-1
 110 550 l 1,125,126
 103 547 103 547 103 540 c 2,119,-1
47 523 m 2,127,-1
 47 521 l 1,128,-1
 51 520 l 1,129,130
 65 528 65 528 65 538 c 2,131,-1
 65 542 l 1,132,-1
 62 542 l 1,133,134
 47 532 47 532 47 523 c 2,127,-1
62 499 m 1,135,-1
 59 498 l 1,136,-1
 59 495 l 1,137,-1
 62 495 l 1,138,-1
 65 498 l 1,139,-1
 65 499 l 1,140,-1
 62 499 l 1,135,-1
67 452 m 1,141,-1
 68 452 l 1,142,-1
 68 449 l 1,143,-1
 67 449 l 1,144,-1
 67 452 l 1,141,-1
336 442 m 1,145,-1
 330 442 l 1,146,-1
 330 437 l 1,147,-1
 333 437 l 1,148,-1
 336 441 l 1,149,-1
 336 442 l 1,145,-1
338 395 m 2,150,-1
 338 392 l 1,151,-1
 340 392 l 2,152,153
 350 392 350 392 351 398 c 1,154,-1
 349 399 l 1,155,-1
 348 399 l 1,156,157
 338 398 338 398 338 395 c 2,150,-1
258 345 m 2,158,-1
 258 342 l 2,159,160
 258 319 258 319 272 319 c 0,161,162
 273 319 273 319 275 327 c 1,163,164
 274 357 274 357 270 357 c 2,165,-1
 265 357 l 1,166,167
 258 356 258 356 258 345 c 2,158,-1
299 322 m 1,168,-1
 297 319 l 1,169,-1
 301 319 l 1,170,-1
 301 322 l 1,171,-1
 299 322 l 1,168,-1
268 307 m 1,172,-1
 265 303 l 1,173,-1
 265 301 l 2,174,175
 265 292 265 292 272 291 c 1,176,-1
 274 291 l 1,177,-1
 275 297 l 2,178,179
 275 303 275 303 268 307 c 1,172,-1
279 238 m 1,180,-1
 274 232 l 1,181,-1
 278 220 l 1,182,-1
 274 203 l 1,183,-1
 280 203 l 2,184,185
 287 203 287 203 292 211 c 1,186,-1
 292 215 l 1,187,188
 288 218 288 218 288 234 c 1,189,-1
 283 238 l 1,190,-1
 279 238 l 1,180,-1
293 131 m 1,191,192
 310 131 310 131 347 110 c 1,193,194
 362 106 362 106 362 103 c 0,195,196
 362 99 362 99 344 96 c 1,197,-1
 344 95 l 1,198,-1
 344 93 l 1,199,-1
 349 76 l 1,200,201
 367 31 367 31 328 4 c 1,202,203
 265 3 265 3 243 65 c 1,204,-1
 239 80 l 1,205,206
 239 102 239 102 293 131 c 1,191,192
293 114 m 2,207,-1
 286 114 l 1,208,-1
 286 113 l 1,209,210
 290 107 290 107 317 100 c 1,211,-1
 319 102 l 1,212,-1
 319 104 l 1,213,214
 310 114 310 114 293 114 c 2,207,-1
279 71 m 0,215,216
 279 70 279 70 288 65 c 1,217,218
 290 59 290 59 292 59 c 2,219,-1
 293 59 l 1,220,-1
 305 74 l 1,221,222
 305 80 305 80 299 83 c 1,223,-1
 283 83 l 1,224,225
 279 82 279 82 279 71 c 0,215,216
EndSplineSet
EndChar

StartChar: at
Encoding: 64 64 35
Width: 782
GlyphClass: 2
Flags: W
LayerCount: 2
Fore
SplineSet
409 736 m 1,0,-1
 441 742 l 1,1,2
 471 731 471 731 501 731 c 1,3,4
 506 726 506 726 550 716 c 1,5,-1
 592 681 l 1,6,7
 616 672 616 672 656 635 c 1,8,9
 676 632 676 632 676 625 c 1,10,-1
 673 615 l 1,11,12
 673 608 673 608 703 570 c 1,13,14
 724 536 724 536 736 476 c 1,15,16
 742 476 742 476 747 372 c 1,17,-1
 743 346 l 1,18,-1
 747 333 l 1,19,20
 738 251 738 251 724 229 c 1,21,22
 724 225 724 225 718 221 c 1,23,-1
 716 221 l 2,24,25
 713 221 713 221 713 227 c 1,26,-1
 722 268 l 1,27,28
 729 275 729 275 729 283 c 2,29,-1
 729 286 l 1,30,-1
 723 300 l 1,31,32
 729 325 729 325 733 416 c 1,33,-1
 718 471 l 1,34,35
 718 496 718 496 704 524 c 1,36,-1
 703 520 l 1,37,38
 720 438 720 438 720 356 c 1,39,40
 711 259 711 259 704 259 c 1,41,42
 689 215 689 215 685 197 c 1,43,44
 664 168 664 168 664 161 c 1,45,-1
 668 161 l 1,46,47
 692 172 692 172 707 193 c 1,48,49
 713 193 713 193 730 205 c 1,50,-1
 733 205 l 1,51,-1
 733 203 l 2,52,53
 733 193 733 193 617 77 c 1,54,55
 603 74 603 74 587 52 c 1,56,57
 579 32 579 32 550 20 c 1,58,59
 421 -27 421 -27 396 -27 c 1,60,61
 381 -31 381 -31 330 -34 c 1,62,63
 279 -4 279 -4 196 67 c 1,64,65
 118 112 118 112 88 197 c 1,66,67
 53 302 53 302 53 328 c 2,68,-1
 53 355 l 2,69,70
 53 436 53 436 88 535 c 1,71,72
 130 600 130 600 158 631 c 1,73,74
 223 688 223 688 255 691 c 1,75,76
 266 696 266 696 301 715 c 1,77,78
 328 728 328 728 409 736 c 1,0,-1
449 733 m 1,79,-1
 434 733 l 1,80,-1
 434 729 l 1,81,-1
 441 728 l 1,82,-1
 452 728 l 1,83,-1
 452 731 l 1,84,-1
 449 733 l 1,79,-1
409 718 m 1,85,-1
 406 715 l 1,86,-1
 424 711 l 1,87,-1
 434 713 l 1,88,-1
 434 716 l 1,89,-1
 427 718 l 1,90,-1
 409 718 l 1,85,-1
319 697 m 1,91,-1
 319 696 l 1,92,-1
 323 696 l 2,93,94
 342 696 342 696 367 709 c 1,95,-1
 367 711 l 1,96,-1
 364 711 l 1,97,98
 326 709 326 709 319 697 c 1,91,-1
468 711 m 1,99,-1
 466 711 l 1,100,-1
 466 707 l 1,101,-1
 471 703 l 1,102,-1
 484 703 l 1,103,104
 484 707 484 707 468 711 c 1,99,-1
396 707 m 1,105,-1
 394 706 l 1,106,107
 394 704 394 704 399 701 c 1,108,-1
 402 703 l 1,109,-1
 402 704 l 1,110,-1
 399 707 l 1,111,-1
 396 707 l 1,105,-1
530 706 m 2,112,-1
 520 706 l 1,113,-1
 520 703 l 2,114,115
 520 697 520 697 545 693 c 1,116,-1
 553 693 l 1,117,-1
 553 697 l 1,118,119
 546 706 546 706 530 706 c 2,112,-1
499 676 m 1,120,-1
 499 674 l 1,121,122
 502 668 502 668 532 665 c 1,123,124
 538 666 538 666 538 669 c 2,125,-1
 538 670 l 2,126,127
 538 675 538 675 507 681 c 0,128,129
 502 681 502 681 499 676 c 1,120,-1
133 420 m 1,130,-1
 131 419 l 1,131,132
 136 419 136 419 137 409 c 1,133,134
 131 304 131 304 128 292 c 1,135,-1
 128 286 l 1,136,137
 132 286 132 286 137 257 c 1,138,139
 154 194 154 194 184 170 c 1,140,141
 236 89 236 89 259 89 c 1,142,143
 297 77 297 77 350 67 c 1,144,145
 377 59 377 59 416 59 c 2,146,-1
 426 59 l 1,147,148
 472 69 472 69 535 98 c 1,149,150
 552 102 552 102 584 131 c 1,151,-1
 590 141 l 1,152,-1
 590 146 l 1,153,154
 535 149 535 149 535 157 c 1,155,156
 524 157 524 157 503 225 c 1,157,-1
 503 234 l 1,158,-1
 505 252 l 1,159,160
 502 262 502 262 499 262 c 1,161,162
 480 255 480 255 411 211 c 1,163,164
 390 203 390 203 381 203 c 2,165,-1
 380 203 l 2,166,167
 320 203 320 203 293 239 c 1,168,169
 270 258 270 258 265 283 c 1,170,171
 243 333 243 333 243 347 c 0,172,173
 243 401 243 401 272 459 c 1,174,175
 287 474 287 474 297 496 c 1,176,177
 362 567 362 567 427 567 c 0,178,179
 456 567 456 567 515 520 c 1,180,-1
 517 520 l 1,181,-1
 522 535 l 1,182,-1
 525 535 l 1,183,-1
 532 531 l 1,184,-1
 534 531 l 2,185,186
 545 531 545 531 552 535 c 1,187,-1
 560 526 l 1,188,189
 571 526 571 526 571 506 c 0,190,191
 571 407 571 407 549 338 c 1,192,193
 534 336 534 336 534 333 c 1,194,195
 541 333 541 333 549 244 c 1,196,197
 549 218 549 218 577 193 c 1,198,-1
 578 193 l 2,199,200
 584 193 584 193 625 222 c 1,201,-1
 629 222 l 1,202,-1
 629 219 l 1,203,-1
 631 219 l 1,204,205
 655 259 655 259 668 308 c 2,206,-1
 670 316 l 1,207,-1
 660 448 l 1,208,-1
 662 459 l 1,209,210
 641 558 641 558 631 589 c 1,211,212
 610 622 610 622 602 622 c 1,213,214
 573 643 573 643 474 670 c 1,215,216
 474 673 474 673 454 675 c 1,217,-1
 421 675 l 2,218,219
 353 675 353 675 313 653 c 1,220,221
 266 634 266 634 253 608 c 1,222,223
 227 575 227 575 199 556 c 1,224,225
 157 500 157 500 142 482 c 1,226,227
 139 433 139 433 133 420 c 1,130,-1
557 664 m 1,228,-1
 552 662 l 1,229,-1
 552 661 l 2,230,231
 552 656 552 656 588 643 c 1,232,-1
 592 643 l 1,233,-1
 592 646 l 2,234,235
 592 650 592 650 578 653 c 1,236,237
 573 664 573 664 562 664 c 2,238,-1
 557 664 l 1,228,-1
218 595 m 2,239,-1
 218 593 l 1,240,-1
 220 590 l 1,241,242
 234 590 234 590 259 635 c 1,243,-1
 259 637 l 1,244,-1
 256 640 l 1,245,-1
 247 640 l 1,246,247
 218 605 218 605 218 595 c 2,239,-1
623 632 m 1,248,-1
 621 632 l 1,249,-1
 621 631 l 1,250,251
 625 618 625 618 661 581 c 1,252,253
 661 576 661 576 670 574 c 1,254,-1
 671 575 l 1,255,-1
 671 577 l 1,256,-1
 635 622 l 1,257,-1
 623 632 l 1,248,-1
214 585 m 1,258,-1
 211 583 l 1,259,-1
 214 583 l 1,260,-1
 214 585 l 1,258,-1
108 499 m 1,261,-1
 110 499 l 2,262,263
 122 499 122 499 129 521 c 1,264,-1
 131 521 l 2,265,266
 134 521 134 521 134 517 c 1,267,-1
 135 517 l 1,268,-1
 137 517 l 2,269,270
 149 517 149 517 157 546 c 1,271,-1
 157 548 l 1,272,-1
 153 548 l 1,273,274
 135 533 135 533 129 533 c 2,275,-1
 128 533 l 1,276,277
 128 539 128 539 157 568 c 1,278,-1
 159 575 l 1,279,-1
 158 577 l 1,280,281
 108 548 108 548 108 499 c 1,261,-1
434 553 m 1,282,-1
 419 553 l 1,283,-1
 419 548 l 1,284,285
 462 523 462 523 505 489 c 1,286,-1
 512 486 l 1,287,-1
 515 486 l 1,288,-1
 515 490 l 1,289,290
 484 538 484 538 434 553 c 1,282,-1
361 527 m 1,291,-1
 361 524 l 1,292,-1
 365 524 l 2,293,294
 377 524 377 524 383 533 c 1,295,-1
 381 535 l 1,296,-1
 376 535 l 2,297,298
 366 535 366 535 361 527 c 1,291,-1
553 521 m 1,299,-1
 550 517 l 1,300,-1
 550 509 l 1,301,-1
 553 509 l 1,302,-1
 555 513 l 1,303,-1
 555 521 l 1,304,-1
 553 521 l 1,299,-1
668 517 m 1,305,-1
 664 517 l 1,306,-1
 664 515 l 1,307,308
 669 498 669 498 672 498 c 1,309,-1
 675 501 l 1,310,-1
 675 506 l 2,311,312
 675 513 675 513 668 517 c 1,305,-1
301 395 m 1,313,-1
 301 389 l 2,314,315
 301 318 301 318 325 297 c 1,316,317
 360 274 360 274 383 274 c 2,318,-1
 396 274 l 1,319,320
 445 283 445 283 445 294 c 1,321,322
 474 316 474 316 481 348 c 0,323,324
 491 389 491 389 491 420 c 2,325,-1
 491 428 l 2,326,327
 491 454 491 454 461 492 c 1,328,329
 445 504 445 504 426 505 c 1,330,-1
 409 505 l 2,331,332
 381 505 381 505 340 470 c 1,333,334
 340 462 340 462 322 452 c 1,335,336
 310 452 310 452 301 395 c 1,313,-1
549 499 m 1,337,-1
 547 499 l 1,338,339
 548 459 548 459 553 459 c 1,340,-1
 555 471 l 1,341,-1
 555 488 l 2,342,343
 555 498 555 498 549 499 c 1,337,-1
112 486 m 1,344,-1
 113 486 l 1,345,-1
 118 490 l 1,346,-1
 118 494 l 1,347,348
 112 491 112 491 112 486 c 1,344,-1
100 472 m 2,349,-1
 100 470 l 1,350,-1
 102 470 l 1,351,352
 109 474 109 474 109 481 c 1,353,-1
 108 482 l 1,354,-1
 106 482 l 1,355,356
 100 480 100 480 100 472 c 2,349,-1
503 464 m 1,357,-1
 515 427 l 1,358,-1
 518 427 l 1,359,-1
 518 445 l 2,360,361
 518 460 518 460 506 469 c 1,362,363
 503 469 503 469 503 464 c 1,357,-1
682 466 m 1,364,-1
 679 463 l 1,365,-1
 679 461 l 2,366,367
 679 440 679 440 683 419 c 1,368,369
 681 411 681 411 676 404 c 1,370,-1
 676 400 l 1,371,372
 680 400 680 400 685 341 c 1,373,-1
 686 340 l 1,374,-1
 688 340 l 2,375,376
 694 340 694 340 697 380 c 1,377,-1
 691 413 l 1,378,-1
 693 420 l 1,379,-1
 693 428 l 2,380,381
 693 458 693 458 682 466 c 1,364,-1
83 410 m 1,382,-1
 83 403 l 1,383,-1
 85 400 l 1,384,385
 90 400 90 400 95 444 c 1,386,-1
 94 445 l 1,387,-1
 92 445 l 2,388,389
 85 445 85 445 83 410 c 1,382,-1
86 389 m 1,390,-1
 84 389 l 1,391,-1
 84 385 l 1,392,-1
 86 385 l 1,393,-1
 86 389 l 1,390,-1
524 356 m 1,394,-1
 527 356 l 1,395,396
 534 359 534 359 534 366 c 2,397,-1
 534 370 l 1,398,-1
 531 388 l 1,399,400
 526 388 526 388 524 356 c 1,394,-1
257 360 m 2,401,-1
 257 344 l 1,402,403
 260 328 260 328 265 328 c 2,404,-1
 268 328 l 1,405,-1
 268 331 l 1,406,-1
 261 370 l 1,407,408
 257 369 257 369 257 360 c 2,401,-1
86 335 m 1,409,-1
 81 329 l 1,410,-1
 81 328 l 1,411,412
 84 327 84 327 92 301 c 1,413,-1
 93 300 l 1,414,-1
 95 300 l 1,415,-1
 95 301 l 2,416,417
 95 310 95 310 90 335 c 1,418,-1
 86 335 l 1,409,-1
73 310 m 1,419,-1
 70 308 l 1,420,-1
 70 294 l 1,421,422
 71 281 71 281 76 281 c 2,423,-1
 77 281 l 2,424,425
 81 281 81 281 81 292 c 0,426,427
 81 304 81 304 74 310 c 1,428,-1
 73 310 l 1,419,-1
518 296 m 1,429,-1
 517 293 l 1,430,-1
 517 288 l 1,431,-1
 520 291 l 1,432,-1
 520 296 l 1,433,-1
 518 296 l 1,429,-1
327 278 m 1,434,435
 327 264 327 264 367 261 c 1,436,-1
 382 261 l 1,437,-1
 385 263 l 1,438,439
 385 265 385 265 327 278 c 1,434,435
408 267 m 2,440,-1
 408 265 l 1,441,-1
 410 263 l 1,442,443
 423 263 423 263 430 273 c 1,444,-1
 430 275 l 1,445,-1
 424 275 l 1,446,447
 408 272 408 272 408 267 c 2,440,-1
416 239 m 1,448,-1
 416 237 l 1,449,-1
 421 237 l 2,450,451
 443 237 443 237 471 268 c 1,452,-1
 468 271 l 1,453,454
 419 242 419 242 416 239 c 1,448,-1
509 244 m 1,455,-1
 513 240 l 1,456,457
 518 243 518 243 518 249 c 2,458,-1
 518 256 l 1,459,-1
 517 256 l 2,460,461
 512 256 512 256 509 244 c 1,455,-1
106 253 m 1,462,-1
 103 250 l 1,463,-1
 103 247 l 1,464,-1
 113 219 l 1,465,-1
 119 219 l 1,466,-1
 119 228 l 2,467,468
 119 241 119 241 106 253 c 1,462,-1
653 222 m 1,469,-1
 653 220 l 1,470,-1
 654 220 l 1,471,472
 673 240 673 240 673 250 c 1,473,-1
 671 253 l 1,474,475
 660 253 660 253 653 222 c 1,469,-1
340 227 m 1,476,-1
 340 222 l 1,477,-1
 355 220 l 1,478,-1
 382 220 l 1,479,480
 405 222 405 222 405 227 c 0,481,482
 405 230 405 230 387 230 c 0,483,484
 356 230 356 230 340 227 c 1,476,-1
102 227 m 1,485,-1
 99 227 l 1,486,-1
 99 225 l 2,487,488
 99 218 99 218 103 217 c 1,489,-1
 109 217 l 1,490,-1
 109 219 l 1,491,-1
 102 227 l 1,485,-1
637 217 m 1,492,-1
 634 214 l 1,493,-1
 634 211 l 1,494,-1
 638 207 l 1,495,-1
 643 207 l 1,496,-1
 643 209 l 2,497,498
 643 215 643 215 638 217 c 1,499,-1
 637 217 l 1,492,-1
596 182 m 1,500,-1
 597 182 l 1,501,502
 610 191 610 191 623 203 c 1,503,-1
 623 207 l 1,504,-1
 622 207 l 2,505,506
 606 207 606 207 596 182 c 1,500,-1
108 202 m 1,507,-1
 105 200 l 1,508,-1
 105 196 l 1,509,510
 115 162 115 162 125 157 c 1,511,-1
 131 157 l 1,512,-1
 134 158 l 1,513,514
 117 202 117 202 109 202 c 2,515,-1
 108 202 l 1,507,-1
562 192 m 1,516,-1
 547 192 l 1,517,-1
 547 190 l 2,518,519
 547 185 547 185 560 185 c 1,520,-1
 563 186 l 1,521,-1
 563 189 l 1,522,-1
 562 192 l 1,516,-1
527 186 m 1,523,524
 536 160 536 160 560 160 c 1,525,-1
 581 158 l 1,526,-1
 596 160 l 1,527,-1
 596 162 l 1,528,529
 592 166 592 166 549 177 c 1,530,531
 532 186 532 186 527 186 c 1,523,524
617 182 m 1,532,-1
 616 178 l 1,533,-1
 616 177 l 2,534,535
 616 175 616 175 619 175 c 0,536,537
 625 176 625 176 625 180 c 2,538,-1
 625 182 l 1,539,-1
 617 182 l 1,532,-1
518 76 m 1,540,-1
 520 74 l 1,541,-1
 521 74 l 1,542,543
 570 84 570 84 607 123 c 1,544,545
 643 159 643 159 653 174 c 1,546,-1
 653 176 l 2,547,548
 653 178 653 178 650 178 c 1,549,550
 637 173 637 173 565 104 c 1,551,552
 521 79 521 79 518 76 c 1,540,-1
144 170 m 1,553,554
 147 158 147 158 150 158 c 2,555,-1
 152 158 l 1,556,-1
 154 161 l 1,557,-1
 154 162 l 1,558,559
 151 170 151 170 144 170 c 1,553,554
661 148 m 1,560,-1
 657 145 l 1,561,-1
 660 142 l 1,562,-1
 662 142 l 1,563,-1
 666 146 l 1,564,-1
 663 148 l 1,565,-1
 661 148 l 1,560,-1
647 146 m 1,566,-1
 644 143 l 1,567,-1
 644 142 l 1,568,-1
 650 142 l 1,569,-1
 650 146 l 1,570,-1
 647 146 l 1,566,-1
590 81 m 1,571,-1
 590 77 l 1,572,-1
 597 77 l 2,573,574
 614 77 614 77 625 98 c 1,575,-1
 625 103 l 1,576,577
 612 103 612 103 590 81 c 1,571,-1
203 88 m 1,578,-1
 199 88 l 1,579,-1
 199 86 l 1,580,581
 211 67 211 67 232 60 c 1,582,-1
 236 61 l 1,583,-1
 236 64 l 1,584,-1
 203 88 l 1,578,-1
453 42 m 1,585,-1
 453 40 l 1,586,-1
 454 40 l 2,587,588
 492 40 492 40 553 67 c 1,589,-1
 553 69 l 1,590,591
 520 69 520 69 453 42 c 1,585,-1
365 0 m 1,592,-1
 365 1 l 2,593,594
 365 5 365 5 347 5 c 2,595,-1
 328 5 l 2,596,597
 300 5 300 5 300 0 c 1,598,599
 320 -23 320 -23 336 -23 c 0,600,601
 346 -23 346 -23 411 -2 c 1,602,603
 449 -2 449 -2 535 29 c 1,604,605
 561 40 561 40 585 67 c 1,606,-1
 585 69 l 1,607,-1
 582 69 l 2,608,609
 574 69 574 69 545 42 c 1,610,611
 534 42 534 42 491 25 c 1,612,-1
 365 0 l 1,592,-1
273 67 m 1,613,-1
 270 64 l 1,614,615
 277 59 277 59 284 59 c 1,616,-1
 286 61 l 1,617,-1
 286 63 l 2,618,619
 286 67 286 67 276 67 c 2,620,-1
 273 67 l 1,613,-1
320 46 m 1,621,-1
 311 46 l 1,622,-1
 311 45 l 2,623,624
 311 42 311 42 323 40 c 1,625,-1
 325 41 l 1,626,-1
 325 42 l 1,627,-1
 320 46 l 1,621,-1
346 21 m 1,628,-1
 348 19 l 1,629,-1
 362 19 l 2,630,631
 377 19 377 19 377 23 c 2,632,-1
 377 25 l 1,633,-1
 371 26 l 1,634,635
 346 25 346 25 346 21 c 1,628,-1
276 19 m 1,636,-1
 274 16 l 1,637,-1
 274 13 l 2,638,639
 274 10 274 10 288 10 c 1,640,-1
 295 11 l 1,641,-1
 295 13 l 2,642,643
 295 18 295 18 283 19 c 1,644,-1
 276 19 l 1,636,-1
400 -16 m 1,645,-1
 398 -14 l 1,646,-1
 396 -15 l 1,647,-1
 396 -16 l 1,648,-1
 400 -16 l 1,645,-1
EndSplineSet
EndChar

StartChar: A
Encoding: 65 65 36
Width: 574
GlyphClass: 2
Flags: W
LayerCount: 2
Fore
SplineSet
310 665 m 1,0,1
 369 657 369 657 369 643 c 1,2,-1
 417 500 l 1,3,-1
 449 386 l 1,4,5
 471 284 471 284 506 166 c 1,6,7
 508 167 508 167 510 167 c 1,8,-1
 510 157 l 1,9,-1
 509 157 l 1,10,11
 510 154 510 154 511.5 150 c 128,-1,12
 513 146 513 146 513 144 c 2,13,-1
 532 103 l 1,14,-1
 537 78 l 1,15,-1
 535 67 l 1,16,17
 546 59 546 59 560 58 c 1,18,-1
 580 58 l 1,19,-1
 581 58 l 1,20,21
 592 56 592 56 594 53 c 1,22,-1
 588 41 l 1,23,-1
 589 24 l 2,24,25
 589 13 589 13 579 3 c 1,26,-1
 575 3 l 1,27,28
 567 11 567 11 562 11 c 2,29,-1
 560 11 l 2,30,31
 550 11 550 11 549 5 c 0,32,33
 549 2 549 2 567 1 c 1,34,-1
 567 -2 l 2,35,36
 567 -6 567 -6 555 -7 c 1,37,-1
 542 -3 l 1,38,-1
 532 -3 l 1,39,-1
 470 -9 l 1,40,41
 449 -9 449 -9 418 16 c 1,42,-1
 426 24 l 1,43,-1
 426 28 l 1,44,-1
 416 49 l 1,45,46
 416 61 416 61 453 61 c 1,47,-1
 454 63 l 1,48,-1
 454 67 l 2,49,50
 454 112 454 112 413 168 c 1,51,-1
 412 168 l 1,52,53
 308 160 308 160 169 147 c 1,54,-1
 147 147 l 1,55,56
 143 143 143 143 120 67 c 1,57,58
 124 63 124 63 131 63 c 2,59,-1
 151 63 l 2,60,61
 186 63 186 63 211 35 c 1,62,-1
 211 34 l 2,63,64
 211 27 211 27 185 7 c 1,65,66
 185 -4 185 -4 33 -4 c 1,67,68
 8 -3 8 -3 8 2 c 1,69,-1
 12 15 l 1,70,-1
 12 16 l 2,71,72
 12 20 12 20 4 34 c 1,73,74
 4 40 4 40 22 49 c 1,75,-1
 23 52 l 1,76,-1
 23 67 l 2,77,78
 23 76 23 76 33 76 c 1,79,-1
 37 72 l 1,80,-1
 33 60 l 1,81,-1
 34 59 l 1,82,-1
 35 59 l 1,83,84
 47 76 47 76 47 83 c 2,85,-1
 47 87 l 2,86,87
 47 93 47 93 44 93 c 1,88,89
 54 111 54 111 60 141 c 1,90,-1
 112 285 l 1,91,-1
 131 332 l 1,92,93
 131 341 131 341 149 362 c 1,94,-1
 149 364 l 1,95,-1
 146 374 l 1,96,97
 157 382 157 382 157 387 c 1,98,-1
 154 390 l 1,99,100
 154 400 154 400 166 411 c 1,101,-1
 165 418 l 1,102,-1
 211 553 l 1,103,104
 228 583 228 583 242 625 c 1,105,106
 245 625 245 625 257 644 c 1,107,108
 298 664 298 664 310 665 c 1,0,1
166 220 m 1,109,-1
 166 215 l 1,110,-1
 169 213 l 1,111,112
 300 234 300 234 375 234 c 2,113,-1
 416 234 l 1,114,-1
 419 238 l 1,115,-1
 419 239 l 1,116,117
 414 275 414 275 401 275 c 1,118,-1
 338 465 l 1,119,120
 327 506 327 506 316 531 c 0,121,122
 311 543 311 543 304 548 c 1,123,124
 304 538 304 538 303 527 c 1,125,126
 233 387 233 387 202 337 c 1,127,128
 186 306 186 306 166 220 c 1,109,-1
546 28 m 1,129,-1
 546 26 l 1,130,-1
 547 26 l 2,131,132
 567 26 567 26 567 32 c 1,133,-1
 562 36 l 1,134,135
 554 36 554 36 546 28 c 1,129,-1
300 567 m 1,136,-1
 301 567 l 2,137,138
 310 567 310 567 310 575 c 2,139,-1
 310 579 l 1,140,-1
 307 579 l 1,141,142
 300 575 300 575 300 567 c 1,136,-1
330 650 m 2,143,-1
 325 650 l 1,144,-1
 325 645 l 1,145,-1
 328 642 l 1,146,-1
 336 642 l 1,147,-1
 338 644 l 1,148,-1
 338 645 l 1,149,150
 336 650 336 650 330 650 c 2,143,-1
342 218 m 1,151,-1
 340 214 l 1,152,-1
 342 212 l 1,153,-1
 347 212 l 2,154,155
 356 212 356 212 357 216 c 1,156,-1
 357 218 l 1,157,-1
 342 218 l 1,151,-1
499 134 m 1,158,-1
 470 134 l 1,159,-1
 470 130 l 1,160,-1
 499 132 l 1,161,-1
 499 134 l 1,158,-1
113 139 m 1,162,-1
 111 139 l 1,163,-1
 110 133 l 1,164,-1
 111 128 l 1,165,-1
 113 128 l 1,166,-1
 116 131 l 1,167,-1
 116 138 l 1,168,-1
 113 139 l 1,162,-1
462 -3 m 1,169,-1
 462 -5 l 1,170,-1
 466 -5 l 2,171,172
 472 -5 472 -5 473 -1 c 1,173,-1
 471 2 l 1,174,175
 464 2 464 2 462 -3 c 1,169,-1
74 132 m 1,176,-1
 67 126 l 1,177,-1
 67 123 l 1,178,179
 75 123 75 123 76 130 c 1,180,-1
 74 132 l 1,176,-1
404 251 m 1,181,-1
 408 256 l 1,182,-1
 409 255 l 1,183,-1
 409 247 l 1,184,-1
 406 244 l 1,185,-1
 404 251 l 1,181,-1
186 372 m 1,186,-1
 183 392 l 1,187,-1
 182 386 l 1,188,-1
 182 383 l 1,189,-1
 183 383 l 1,190,191
 186 366 186 366 186 370 c 2,192,-1
 186 372 l 1,186,-1
517 77 m 1,193,-1
 516 77 l 1,194,-1
 516 70 l 1,195,-1
 519 67 l 1,196,-1
 520 67 l 1,197,-1
 520 74 l 1,198,-1
 517 77 l 1,193,-1
67 67 m 1,199,-1
 63 66 l 1,200,-1
 63 63 l 1,201,-1
 66 60 l 1,202,-1
 67 60 l 1,203,-1
 69 63 l 1,204,-1
 67 67 l 1,199,-1
304 616 m 1,205,-1
 303 616 l 1,206,-1
 303 614 l 1,207,-1
 305 611 l 1,208,-1
 307 611 l 1,209,-1
 307 614 l 1,210,-1
 304 616 l 1,205,-1
267 198 m 1,211,-1
 264 198 l 1,212,-1
 264 195 l 1,213,-1
 267 195 l 1,214,-1
 267 198 l 1,211,-1
176 361 m 1,215,-1
 175 361 l 1,216,-1
 175 358 l 1,217,-1
 176 358 l 1,218,-1
 176 361 l 1,215,-1
EndSplineSet
EndChar

StartChar: B
Encoding: 66 66 37
Width: 538
GlyphClass: 2
Flags: W
LayerCount: 2
Fore
SplineSet
50 632 m 1,0,-1
 62 628 l 1,1,2
 113 632 113 632 297 632 c 1,3,-1
 345 617 l 1,4,5
 391 611 391 611 407 598 c 0,6,7
 481 533 481 533 481 486 c 1,8,9
 476 460 476 460 460 404 c 1,10,11
 425 368 425 368 394 345 c 1,12,13
 394 336 394 336 413 329 c 1,14,15
 423 322 423 322 445 313 c 1,16,17
 457 301 457 301 484 265 c 1,18,19
 520 229 520 229 526 178 c 1,20,-1
 527 167 l 2,21,22
 527 157 527 157 520 157 c 1,23,-1
 520 156 l 2,24,25
 520 150 520 150 531 130 c 1,26,-1
 531 121 l 2,27,28
 531 112 531 112 517 81 c 1,29,30
 517 68 517 68 495 64 c 1,31,32
 482 64 482 64 469 46 c 1,33,-1
 469 44 l 2,34,35
 469 42 469 42 477 40 c 1,36,-1
 477 39 l 1,37,38
 475 34 475 34 470 34 c 1,39,40
 470 40 470 40 467 40 c 0,41,42
 465 40 465 40 463 32 c 1,43,44
 445 32 445 32 420 16 c 1,45,-1
 420 14 l 1,46,-1
 423 14 l 2,47,48
 429 14 429 14 452 24 c 1,49,-1
 452 23 l 1,50,51
 437 9 437 9 391 -1 c 1,52,53
 327 -30 327 -30 133 -30 c 1,54,-1
 133 -28 l 1,55,-1
 132 -23 l 1,56,57
 86 -23 86 -23 48 -41 c 1,58,59
 32 -41 32 -41 32 14 c 0,60,61
 32 22 32 22 92 39 c 1,62,63
 136 44 136 44 136 48 c 2,64,-1
 136 49 l 1,65,66
 130 49 130 49 122 133 c 1,67,68
 120 166 120 166 116 178 c 1,69,70
 116 189 116 189 124 207 c 1,71,72
 122 279 122 279 113 279 c 0,73,74
 107 279 107 279 103 442 c 1,75,-1
 103 544 l 1,76,77
 81 553 81 553 74 553 c 2,78,-1
 67 553 l 2,79,80
 60 553 60 553 58 548 c 1,81,-1
 58 546 l 1,82,-1
 59 538 l 2,83,84
 59 536 59 536 45 505 c 1,85,-1
 45 503 l 1,86,-1
 29 502 l 1,87,88
 26 507 26 507 10 508 c 0,89,90
 1 508 1 508 -2 567 c 1,91,92
 -5 584 -5 584 -13 606 c 1,93,94
 2 627 2 627 20 627 c 1,95,96
 20 629 20 629 50 632 c 1,0,-1
143 599 m 1,97,-1
 145 598 l 1,98,-1
 173 598 l 2,99,100
 211 598 211 598 211 606 c 2,101,-1
 211 607 l 2,102,103
 211 608 211 608 205 610 c 1,104,105
 146 607 146 607 143 599 c 1,97,-1
98 602 m 1,106,-1
 124 594 l 1,107,-1
 126 594 l 2,108,109
 132 594 132 594 136 600 c 1,110,111
 136 605 136 605 113 607 c 1,112,113
 98 606 98 606 98 602 c 1,106,-1
238 607 m 1,114,-1
 233 607 l 1,115,-1
 233 604 l 1,116,-1
 238 604 l 1,117,-1
 238 607 l 1,114,-1
400 583 m 1,118,-1
 397 580 l 1,119,-1
 397 579 l 1,120,-1
 401 574 l 1,121,-1
 407 574 l 1,122,-1
 409 577 l 1,123,-1
 409 578 l 1,124,-1
 405 583 l 1,125,-1
 400 583 l 1,118,-1
161 569 m 2,126,-1
 161 567 l 1,127,-1
 164 563 l 1,128,-1
 168 563 l 1,129,130
 219 568 219 568 223 575 c 1,131,-1
 221 577 l 1,132,133
 161 574 161 574 161 569 c 2,126,-1
168 542 m 0,134,135
 176 327 176 327 182 327 c 1,136,-1
 185 325 l 1,137,-1
 186 325 l 1,138,-1
 277 346 l 1,139,140
 337 354 337 354 337 362 c 1,141,142
 409 418 409 418 409 439 c 2,143,-1
 409 445 l 1,144,145
 398 502 398 502 398 509 c 0,146,147
 398 535 398 535 363 558 c 1,148,149
 350 561 350 561 314 562 c 1,150,151
 168 554 168 554 168 542 c 0,134,135
400 553 m 2,152,-1
 391 553 l 1,153,-1
 391 550 l 1,154,155
 409 534 409 534 409 505 c 1,156,157
 417 476 417 476 420 471 c 1,158,-1
 422 471 l 1,159,-1
 422 480 l 1,160,161
 413 553 413 553 400 553 c 2,152,-1
455 531 m 1,162,-1
 452 531 l 1,163,-1
 452 528 l 1,164,-1
 457 524 l 1,165,-1
 460 524 l 1,166,-1
 460 527 l 1,167,-1
 455 531 l 1,162,-1
437 508 m 1,168,-1
 434 505 l 1,169,-1
 435 501 l 1,170,-1
 438 501 l 1,171,-1
 444 506 l 1,172,-1
 441 508 l 1,173,-1
 437 508 l 1,168,-1
444 482 m 1,174,-1
 441 484 l 1,175,-1
 440 483 l 1,176,-1
 440 478 l 1,177,-1
 442 476 l 1,178,-1
 444 477 l 1,179,-1
 444 482 l 1,174,-1
116 457 m 1,180,-1
 113 454 l 1,181,-1
 113 445 l 1,182,-1
 116 443 l 1,183,-1
 117 443 l 1,184,-1
 120 445 l 1,185,-1
 120 449 l 2,186,187
 120 456 120 456 116 457 c 1,180,-1
384 366 m 1,188,-1
 380 362 l 1,189,-1
 383 362 l 1,190,-1
 385 364 l 1,191,-1
 385 366 l 1,192,-1
 384 366 l 1,188,-1
239 322 m 1,193,-1
 242 322 l 1,194,-1
 242 321 l 1,195,196
 304 326 304 326 304 332 c 2,197,-1
 304 333 l 1,198,-1
 299 333 l 1,199,200
 244 332 244 332 239 322 c 1,193,-1
345 323 m 2,201,-1
 345 321 l 1,202,-1
 346 321 l 2,203,204
 367 321 367 321 400 311 c 0,205,206
 403 311 403 311 403 315 c 1,207,208
 397 329 397 329 376 329 c 2,209,-1
 365 329 l 2,210,211
 345 329 345 329 345 323 c 2,201,-1
416 308 m 1,212,-1
 416 307 l 1,213,214
 428 293 428 293 438 293 c 1,215,-1
 438 294 l 2,216,217
 438 304 438 304 416 308 c 1,212,-1
243 286 m 1,218,219
 243 284 243 284 247 284 c 0,220,221
 274 285 274 285 304 292 c 1,222,-1
 339 293 l 1,223,-1
 351 293 l 1,224,-1
 358 294 l 1,225,-1
 358 296 l 2,226,227
 358 301 358 301 328 301 c 2,228,-1
 310 301 l 2,229,230
 256 301 256 301 243 286 c 1,218,219
233 290 m 1,231,-1
 229 290 l 1,232,-1
 229 288 l 1,233,-1
 233 288 l 1,234,-1
 233 290 l 1,231,-1
385 290 m 1,235,-1
 383 290 l 1,236,-1
 383 286 l 1,237,-1
 385 286 l 1,238,-1
 385 290 l 1,235,-1
180 276 m 1,239,-1
 180 274 l 1,240,-1
 183 274 l 1,241,242
 208 277 208 277 208 282 c 1,243,-1
 205 282 l 2,244,245
 196 282 196 282 180 276 c 1,239,-1
178 261 m 1,246,-1
 175 256 l 1,247,-1
 174 234 l 1,248,249
 178 63 178 63 189 40 c 1,250,251
 194 23 194 23 213 23 c 2,252,-1
 302 19 l 1,253,254
 356 22 356 22 434 65 c 1,255,256
 472 103 472 103 472 117 c 1,257,258
 476 117 476 117 477 127 c 1,259,-1
 477 130 l 2,260,261
 477 175 477 175 450 226 c 1,262,263
 422 256 422 256 405 256 c 2,264,-1
 397 256 l 1,265,266
 391 258 391 258 391 259 c 0,267,268
 391 263 391 263 398 263 c 1,269,-1
 398 265 l 1,270,271
 391 275 391 275 376 275 c 2,272,-1
 375 275 l 1,273,-1
 375 274 l 1,274,-1
 380 268 l 1,275,-1
 380 266 l 1,276,-1
 378 266 l 1,277,278
 332 281 332 281 304 281 c 2,279,-1
 299 281 l 2,280,281
 230 281 230 281 178 261 c 1,246,-1
444 273 m 1,282,-1
 441 271 l 1,283,284
 445 256 445 256 466 240 c 1,285,-1
 469 240 l 1,286,-1
 469 244 l 1,287,288
 466 258 466 258 445 273 c 1,289,-1
 444 273 l 1,282,-1
432 38 m 1,290,-1
 434 36 l 1,291,-1
 435 36 l 2,292,293
 448 36 448 36 455 51 c 1,294,-1
 455 52 l 1,295,-1
 454 52 l 1,296,297
 432 45 432 45 432 38 c 1,290,-1
148 46 m 1,298,-1
 142 46 l 1,299,-1
 142 45 l 1,300,301
 143 41 143 41 149 41 c 1,302,-1
 149 44 l 1,303,-1
 148 46 l 1,298,-1
405 26 m 2,304,-1
 405 22 l 1,305,-1
 409 22 l 2,306,307
 416 22 416 22 422 31 c 1,308,-1
 422 34 l 1,309,310
 405 31 405 31 405 26 c 2,304,-1
121 9 m 1,311,-1
 114 9 l 1,312,-1
 114 4 l 1,313,-1
 121 4 l 1,314,-1
 126 4 l 1,315,-1
 132 4 l 1,316,-1
 132 9 l 1,317,-1
 126 9 l 1,318,-1
 121 9 l 1,311,-1
215 -1 m 1,319,-1
 213 -3 l 1,320,-1
 218 -3 l 1,321,-1
 215 -1 l 1,319,-1
76 -5 m 1,322,-1
 73 -6 l 1,323,324
 75 -11 75 -11 81 -11 c 1,325,-1
 85 -6 l 1,326,-1
 83 -5 l 1,327,-1
 76 -5 l 1,322,-1
EndSplineSet
EndChar

StartChar: C
Encoding: 67 67 38
Width: 579
GlyphClass: 2
Flags: W
LayerCount: 2
Fore
SplineSet
290 661 m 2,0,-1
 299 661 l 2,1,2
 348 661 348 661 407 626 c 1,3,4
 439 597 439 597 446 597 c 2,5,-1
 452 597 l 1,6,7
 460 602 460 602 460 608 c 2,8,-1
 460 610 l 1,9,-1
 455 625 l 1,10,11
 455 629 455 629 462 630 c 1,12,13
 468 628 468 628 473 622 c 1,14,-1
 475 622 l 1,15,-1
 475 625 l 2,16,17
 475 636 475 636 460 649 c 1,18,19
 464 652 464 652 481 652 c 0,20,21
 485 652 485 652 517 632 c 1,22,23
 524 632 524 632 524 625 c 2,24,-1
 524 531 l 2,25,26
 524 465 524 465 514 455 c 1,27,-1
 513 452 l 1,28,-1
 516 448 l 1,29,-1
 516 447 l 2,30,31
 516 432 516 432 472 432 c 1,32,33
 462 427 462 427 459 427 c 2,34,-1
 455 427 l 1,35,36
 455 443 455 443 432 484 c 1,37,38
 415 550 415 550 400 562 c 1,39,40
 384 581 384 581 310 593 c 1,41,-1
 281 596 l 1,42,-1
 242 592 l 1,43,-1
 235 599 l 1,44,45
 217 597 217 597 171 556 c 1,46,-1
 169 548 l 1,47,-1
 169 546 l 1,48,-1
 173 546 l 1,49,50
 214 580 214 580 232 589 c 1,51,-1
 232 587 l 1,52,53
 208 561 208 561 144 520 c 1,54,55
 117 500 117 500 103 465 c 1,56,57
 78 408 78 408 78 353 c 0,58,59
 78 258 78 258 101 215 c 1,60,61
 141 106 141 106 193 60 c 1,62,63
 260 23 260 23 320 23 c 2,64,-1
 336 23 l 2,65,66
 366 23 366 23 401 45 c 1,67,68
 413 68 413 68 454 101 c 0,69,70
 488 128 488 128 488 145 c 2,71,-1
 488 148 l 1,72,-1
 487 175 l 2,73,74
 487 178 487 178 499 186 c 1,75,76
 499 190 499 190 504 193 c 1,77,-1
 507 193 l 1,78,-1
 531 189 l 1,79,-1
 548 189 l 2,80,81
 556 189 556 189 556 175 c 1,82,83
 566 129 566 129 566 106 c 0,84,85
 566 55 566 55 553 22 c 1,86,-1
 553 19 l 1,87,-1
 554 12 l 1,88,-1
 549 4 l 1,89,-1
 549 2 l 2,90,91
 549 0 549 0 566 -3 c 1,92,-1
 566 -5 l 1,93,-1
 500 -37 l 1,94,-1
 498 -37 l 1,95,96
 482 -16 482 -16 473 12 c 1,97,-1
 472 13 l 1,98,99
 459 8 459 8 427 -12 c 1,100,101
 348 -45 348 -45 330 -45 c 1,102,-1
 270 -27 l 1,103,-1
 258 -25 l 1,104,-1
 252 -25 l 1,105,-1
 239 -29 l 1,106,107
 216 -29 216 -29 165 -8 c 1,108,109
 124 2 124 2 95 47 c 1,110,111
 25 148 25 148 25 203 c 1,112,113
 16 239 16 239 16 258 c 1,114,115
 17 268 17 268 29 268 c 1,116,-1
 31 259 l 1,117,-1
 31 254 l 1,118,-1
 35 254 l 1,119,-1
 39 257 l 1,120,-1
 39 261 l 2,121,122
 39 274 39 274 16 279 c 0,123,124
 13 279 13 279 12 388 c 0,125,126
 12 412 12 412 39 477 c 1,127,128
 41 477 41 477 44 506 c 1,129,130
 48 507 48 507 52 529 c 1,131,132
 82 563 82 563 126 592 c 1,133,134
 145 610 145 610 184 627 c 0,135,136
 259 661 259 661 290 661 c 2,0,-1
256 639 m 1,137,-1
 256 636 l 1,138,-1
 258 636 l 1,139,140
 271 637 271 637 271 642 c 1,141,-1
 268 643 l 1,142,-1
 267 643 l 2,143,144
 257 643 257 643 256 639 c 1,137,-1
322 643 m 2,145,-1
 321 643 l 1,146,-1
 321 640 l 1,147,-1
 337 637 l 1,148,-1
 339 637 l 1,149,-1
 341 640 l 1,150,151
 341 643 341 643 322 643 c 2,145,-1
170 607 m 1,152,-1
 170 605 l 1,153,-1
 171 605 l 1,154,155
 188 609 188 609 210 624 c 1,156,-1
 210 625 l 1,157,-1
 208 626 l 1,158,-1
 207 626 l 1,159,160
 185 622 185 622 170 607 c 1,152,-1
316 616 m 0,161,162
 316 612 316 612 359 605 c 1,163,-1
 364 601 l 1,164,-1
 371 601 l 1,165,-1
 374 605 l 1,166,-1
 374 607 l 1,167,168
 364 607 364 607 353 617 c 1,169,170
 334 625 334 625 326 625 c 0,171,172
 316 625 316 625 316 616 c 0,161,162
435 587 m 2,173,-1
 432 587 l 1,174,-1
 432 585 l 1,175,176
 440 573 440 573 447 573 c 2,177,-1
 448 573 l 1,178,-1
 452 576 l 1,179,-1
 452 577 l 1,180,181
 443 587 443 587 435 587 c 2,173,-1
160 566 m 1,182,-1
 163 566 l 1,183,184
 167 567 167 567 169 571 c 1,185,-1
 167 571 l 2,186,187
 163 571 163 571 160 566 c 1,182,-1
149 553 m 1,188,-1
 153 553 l 1,189,-1
 157 556 l 1,190,-1
 157 560 l 1,191,192
 149 560 149 560 149 553 c 1,188,-1
447 556 m 1,193,-1
 445 553 l 1,194,-1
 445 551 l 1,195,-1
 448 549 l 1,196,-1
 452 553 l 1,197,-1
 448 556 l 1,198,-1
 447 556 l 1,193,-1
82 529 m 1,199,200
 94 529 94 529 99 538 c 1,201,-1
 99 541 l 1,202,-1
 95 541 l 2,203,204
 85 541 85 541 82 529 c 1,199,200
481 491 m 1,205,-1
 479 489 l 1,206,-1
 479 486 l 1,207,-1
 482 485 l 1,208,-1
 485 488 l 1,209,-1
 484 491 l 1,210,-1
 481 491 l 1,205,-1
465 467 m 2,211,-1
 465 465 l 1,212,213
 482 470 482 470 482 475 c 1,214,215
 480 479 480 479 477 481 c 1,216,-1
 473 481 l 1,217,218
 465 473 465 473 465 467 c 2,211,-1
469 451 m 1,219,-1
 465 447 l 1,220,-1
 465 442 l 1,221,-1
 469 442 l 2,222,223
 475 442 475 442 477 447 c 1,224,-1
 477 448 l 1,225,-1
 475 451 l 1,226,-1
 469 451 l 1,219,-1
66 407 m 2,227,-1
 66 405 l 1,228,-1
 69 405 l 1,229,-1
 74 409 l 1,230,-1
 74 416 l 1,231,-1
 70 416 l 1,232,233
 66 413 66 413 66 407 c 2,227,-1
35 397 m 1,234,-1
 33 397 l 1,235,-1
 29 382 l 1,236,-1
 29 373 l 1,237,-1
 31 373 l 2,238,239
 35 373 35 373 35 383 c 2,240,-1
 35 397 l 1,234,-1
31 363 m 1,241,-1
 27 363 l 1,242,-1
 27 358 l 1,243,-1
 31 358 l 1,244,-1
 33 360 l 1,245,-1
 31 363 l 1,241,-1
58 283 m 2,246,-1
 58 265 l 1,247,248
 60 241 60 241 85 205 c 1,249,-1
 87 203 l 1,250,-1
 91 203 l 1,251,-1
 91 208 l 1,252,253
 72 265 72 265 64 322 c 1,254,-1
 63 322 l 2,255,256
 58 322 58 322 58 283 c 2,246,-1
39 316 m 1,257,-1
 38 316 l 1,258,-1
 37 310 l 1,259,-1
 37 301 l 1,260,-1
 40 297 l 1,261,-1
 43 300 l 1,262,-1
 43 306 l 2,263,264
 43 315 43 315 39 316 c 1,257,-1
37 242 m 1,265,-1
 34 242 l 1,266,-1
 34 239 l 1,267,-1
 38 236 l 1,268,-1
 39 236 l 1,269,-1
 39 239 l 1,270,-1
 37 242 l 1,265,-1
60 202 m 1,271,-1
 57 200 l 1,272,273
 57 194 57 194 62 192 c 1,274,-1
 63 192 l 1,275,-1
 66 193 l 1,276,-1
 66 196 l 1,277,-1
 60 202 l 1,271,-1
59 175 m 1,278,-1
 58 175 l 1,279,-1
 58 173 l 1,280,281
 62 151 62 151 69 151 c 2,282,-1
 70 151 l 2,283,284
 74 151 74 151 74 155 c 1,285,-1
 59 175 l 1,278,-1
512 149 m 1,286,-1
 509 148 l 1,287,-1
 509 146 l 1,288,-1
 514 141 l 1,289,-1
 516 141 l 1,290,291
 527 143 527 143 527 146 c 2,292,-1
 527 148 l 1,293,-1
 526 149 l 1,294,-1
 512 149 l 1,286,-1
523 126 m 2,295,-1
 523 122 l 1,296,297
 526 116 526 116 531 116 c 1,298,299
 535 120 535 120 535 128 c 2,300,-1
 535 133 l 2,301,302
 535 136 535 136 531 136 c 1,303,304
 523 133 523 133 523 126 c 2,295,-1
512 123 m 1,305,-1
 509 121 l 1,306,-1
 509 108 l 1,307,-1
 513 104 l 1,308,-1
 514 104 l 1,309,-1
 517 107 l 1,310,-1
 517 114 l 2,311,312
 517 121 517 121 512 123 c 1,305,-1
112 113 m 1,313,-1
 112 112 l 1,314,315
 128 81 128 81 139 81 c 1,316,-1
 139 85 l 1,317,318
 120 111 120 111 112 113 c 1,313,-1
79 110 m 1,319,-1
 77 107 l 1,320,-1
 79 104 l 1,321,-1
 81 104 l 1,322,-1
 84 107 l 1,323,-1
 81 110 l 1,324,-1
 79 110 l 1,319,-1
481 99 m 1,325,-1
 479 97 l 1,326,-1
 479 94 l 1,327,-1
 484 94 l 1,328,-1
 487 97 l 1,329,-1
 487 99 l 1,330,-1
 481 99 l 1,325,-1
517 99 m 1,331,-1
 513 99 l 1,332,-1
 513 95 l 1,333,-1
 516 95 l 1,334,-1
 517 98 l 1,335,-1
 517 99 l 1,331,-1
89 94 m 1,336,-1
 88 94 l 1,337,-1
 88 93 l 2,338,339
 88 90 88 90 94 79 c 1,340,-1
 99 79 l 1,341,-1
 99 81 l 2,342,343
 99 88 99 88 89 94 c 1,336,-1
472 81 m 2,344,-1
 472 79 l 1,345,-1
 473 79 l 1,346,-1
 479 82 l 1,347,-1
 479 85 l 1,348,-1
 477 85 l 1,349,350
 472 83 472 83 472 81 c 2,344,-1
149 76 m 1,351,-1
 146 74 l 1,352,353
 146 61 146 61 165 57 c 1,354,-1
 167 57 l 1,355,-1
 171 60 l 1,356,357
 163 71 163 71 149 76 c 1,351,-1
520 74 m 1,358,-1
 519 74 l 1,359,-1
 519 67 l 1,360,-1
 522 64 l 1,361,-1
 523 64 l 1,362,-1
 523 72 l 1,363,-1
 520 74 l 1,358,-1
107 70 m 1,364,-1
 104 70 l 1,365,366
 112 47 112 47 124 40 c 1,367,-1
 130 40 l 1,368,-1
 130 47 l 1,369,370
 123 58 123 58 107 70 c 1,364,-1
182 42 m 2,371,-1
 176 42 l 1,372,-1
 176 41 l 2,373,374
 176 38 176 38 203 32 c 1,375,-1
 203 34 l 1,376,377
 198 42 198 42 182 42 c 2,371,-1
452 29 m 1,378,-1
 452 27 l 1,379,380
 459 27 459 27 463 34 c 1,381,-1
 463 35 l 1,382,-1
 462 35 l 2,383,384
 454 35 454 35 452 29 c 1,378,-1
517 29 m 1,385,-1
 516 27 l 1,386,-1
 517 22 l 1,387,-1
 522 23 l 1,388,-1
 522 27 l 1,389,-1
 519 29 l 1,390,-1
 517 29 l 1,385,-1
157 16 m 1,391,-1
 155 13 l 1,392,393
 156 9 156 9 198 -4 c 1,394,395
 198 -8 198 -8 215 -8 c 1,396,-1
 220 -6 l 1,397,-1
 220 -5 l 1,398,399
 219 -1 219 -1 183 13 c 1,400,401
 180 16 180 16 166 16 c 2,402,-1
 157 16 l 1,391,-1
205 16 m 1,403,-1
 204 15 l 1,404,-1
 204 13 l 1,405,406
 230 -4 230 -4 268 -4 c 2,407,-1
 275 -4 l 1,408,-1
 277 -2 l 1,409,410
 224 16 224 16 205 16 c 1,403,-1
286 5 m 1,411,412
 298 -8 298 -8 326 -8 c 1,413,414
 359 -5 359 -5 359 2 c 2,415,-1
 359 4 l 2,416,417
 359 9 359 9 334 9 c 2,418,-1
 319 9 l 2,419,420
 286 9 286 9 286 5 c 1,411,412
403 5 m 1,421,-1
 401 2 l 1,422,-1
 405 2 l 1,423,-1
 407 4 l 1,424,-1
 406 5 l 1,425,-1
 403 5 l 1,421,-1
519 -6 m 1,426,-1
 504 -8 l 1,427,-1
 504 -12 l 1,428,-1
 509 -16 l 1,429,-1
 514 -16 l 1,430,431
 538 -12 538 -12 538 -8 c 2,432,-1
 538 -6 l 1,433,-1
 519 -6 l 1,426,-1
341 -23 m 1,434,-1
 312 -31 l 1,435,-1
 312 -34 l 1,436,-1
 328 -37 l 1,437,-1
 334 -37 l 2,438,439
 344 -37 344 -37 384 -15 c 1,440,-1
 384 -12 l 1,441,-1
 383 -12 l 2,442,443
 374 -12 374 -12 341 -23 c 1,434,-1
EndSplineSet
EndChar

